<?xml version='1.0' encoding='utf-8'?>
<!-- Generator: imaengine 6.0   -->
<svg xmlns:xlink="http://www.w3.org/1999/xlink" xmlns="http://www.w3.org/2000/svg" viewBox="0,0,154,180" style="enable-background:new 0 0 154 180;" version="1.1">
<defs/>
<g id="layer0">
<path d="M154.405,21.6935L154.405,105.573C154.405,124.649 144.127,142.379 127.572,151.864L77.2026,180.655L26.8327,151.864C10.2784,142.379 0,124.649 0,105.573L0,21.6935L3.91649,19.4678C26.2023,6.73445 51.5448,0 77.2121,0C102.879,0 128.232,6.73445 150.508,19.4678L154.405,21.6935Z" fill="#F5F6F7"/>
<path d="M77.193,65.8925L7.74702,26.2022L7.74702,105.573C7.74702,121.927 16.5066,137.039 30.7206,145.158L30.9021,145.263L30.9021,118.803L54.0571,132.033L54.0571,158.484L77.2026,171.714L77.2026,92.3431L100.358,79.1226L100.358,158.484L123.503,145.263L123.513,145.254L123.513,66.16L146.658,52.9299L146.658,26.2022L77.193,65.8925ZM54.0475,105.573L30.8925,92.3431L30.8925,65.8925L54.0475,79.1226L54.0475,105.573Z" fill="#222324"/>
</g>
</svg>
