<?xml version='1.0' encoding='utf-8'?>
<!-- Generator: imaengine 6.0   -->
<svg xmlns:xlink="http://www.w3.org/1999/xlink" xmlns="http://www.w3.org/2000/svg" viewBox="0,0,190,222" style="enable-background:new 0 0 190 222;" version="1.1">
<defs/>
<g id="layer0">
<path d="M190.355,26.7444L190.355,130.154C190.355,153.672 177.684,175.529 157.275,187.223L95.1777,222.717L33.0802,187.223C12.6715,175.529 0,153.672 0,130.154L0,26.7444L4.82836,24.0005C32.3029,8.30243 63.546,0 95.1894,0C126.833,0 158.088,8.30243 185.551,24.0005L190.355,26.7444Z" fill="#2AADA7"/>
<path d="M95.1659,81.2343L9.55076,32.3029L9.55076,130.154C9.55076,150.315 20.3498,168.946 37.8732,178.956L38.097,179.085L38.097,146.464L66.6432,162.775L66.6432,195.384L95.1777,211.694L95.1777,113.843L123.724,97.5447L123.724,195.384L152.258,179.085L152.27,179.073L152.27,81.564L180.805,65.2536L180.805,32.3029L95.1659,81.2343ZM66.6314,130.154L38.0852,113.843L38.0852,81.2343L66.6314,97.5447L66.6314,130.154Z" fill="#FFFFFF"/>
</g>
</svg>
