<svg version="1.1" viewBox="0.0 0.0 453.745406824147 437.87401574803147" fill="none" stroke="none" stroke-linecap="square" stroke-miterlimit="10" xmlns:xlink="http://www.w3.org/1999/xlink" xmlns="http://www.w3.org/2000/svg"><clipPath id="p.0"><path d="m0 0l453.7454 0l0 437.87402l-453.7454 0l0 -437.87402z" clip-rule="nonzero"/></clipPath><g clip-path="url(#p.0)"><path fill="#000000" fill-opacity="0.0" d="m0 0l453.7454 0l0 437.87402l-453.7454 0z" fill-rule="evenodd"/><path fill="#000000" fill-opacity="0.0" d="m134.2559 1.851706l61.133865 0l0 28.88189l-61.133865 0z" fill-rule="evenodd"/><path stroke="#666666" stroke-width="1.0" stroke-linejoin="round" stroke-linecap="butt" d="m134.2559 1.851706l61.133865 0l0 28.88189l-61.133865 0z" fill-rule="evenodd"/><path fill="#434343" d="m163.64366 23.212648l-7.46875 0l0 -1.46875l3.0625 0l0 -8.703124l-2.859375 1.546875l-0.578125 -1.34375l3.78125 -1.984375l1.40625 0l0 10.484374l2.65625 0l0 1.46875zm10.304169 -6.625q0 1.75 -0.421875 3.0q-0.421875 1.25 -1.25 2.0625q-0.8125 0.796875 -2.03125 1.1875q-1.203125 0.375 -2.796875 0.375l-0.984375 0l0 -1.390625l1.09375 0q1.1875 0 2.03125 -0.234375q0.859375 -0.234375 1.421875 -0.6875q0.578125 -0.46875 0.875 -1.125q0.3125 -0.65625 0.375 -1.515625l0.046875 -0.359375q-0.578125 0.328125 -1.328125 0.53125q-0.75 0.203125 -1.625 0.203125q-0.890625 0 -1.578125 -0.25q-0.6875 -0.265625 -1.140625 -0.734375q-0.453125 -0.484375 -0.6875 -1.125q-0.21875 -0.65624905 -0.21875 -1.421874q0 -0.84375 0.296875 -1.5625q0.3125 -0.71875 0.84375 -1.25q0.546875 -0.53125 1.296875 -0.828125q0.765625 -0.3125 1.671875 -0.3125q0.890625 0 1.640625 0.296875q0.75 0.28125 1.296875 0.9375q0.546875 0.640625 0.859375 1.6875q0.3125 1.03125 0.3125 2.515624zm-4.171875 -4.140624q-0.515625 0 -0.953125 0.171875q-0.421875 0.15625 -0.75 0.484375q-0.3125 0.328125 -0.5 0.796875q-0.171875 0.46875 -0.171875 1.09375q0 0.546875 0.125 0.984375q0.140625 0.43749905 0.40625 0.74999905q0.28125 0.296875 0.71875 0.46875q0.4375 0.15625 1.046875 0.15625q0.328125 0 0.6875 -0.0625q0.375 -0.0625 0.703125 -0.171875q0.34375 -0.109375 0.65625 -0.25q0.3125 -0.15625 0.5625 -0.3125q0 -1.171874 -0.1875 -1.953124q-0.171875 -0.796875 -0.5 -1.265625q-0.3125 -0.484375 -0.796875 -0.6875q-0.46875 -0.203125 -1.046875 -0.203125z" fill-rule="nonzero"/><path fill="#000000" fill-opacity="0.0" d="m235.38977 1.851706l61.13385 0l0 28.88189l-61.13385 0z" fill-rule="evenodd"/><path stroke="#666666" stroke-width="1.0" stroke-linejoin="round" stroke-linecap="butt" d="m235.38977 1.851706l61.13385 0l0 28.88189l-61.13385 0z" fill-rule="evenodd"/><path fill="#434343" d="m265.27753 11.822024q-1.25 -0.265625 -2.15625 -0.265625q-2.140625 0 -2.140625 2.234375l0 1.609375l4.015625 0l0 1.312499l-4.015625 0l0 6.5l-1.609375 0l0 -6.5l-2.9375 0l0 -1.312499l2.9375 0l0 -1.515625q0 -3.65625 3.8125 -3.65625q0.9375 0 2.09375 0.21875l0 1.375zm-9.578125 2.25l0 0zm11.257294 4.765624q0 -1.171875 0.3125 -2.078125q0.3125 -0.90624905 0.90625 -1.531249q0.59375 -0.625 1.40625 -0.9375q0.828125 -0.328125 1.84375 -0.328125q0.4375 0 0.859375 0.0625q0.421875 0.046875 0.828125 0.15625l0 -3.84375l1.59375 0l0 12.874999l-1.421875 0l-0.046875 -1.734375q-0.671875 0.96875 -1.453125 1.4375q-0.765625 0.453125 -1.671875 0.453125q-0.78125 0 -1.375 -0.3125q-0.59375 -0.328125 -1.0 -0.921875q-0.390625 -0.609375 -0.59375 -1.4375q-0.1875 -0.84375 -0.1875 -1.859375zm1.609375 -0.109375q0 1.65625 0.484375 2.484375q0.5 0.8125 1.390625 0.8125q0.59375 0 1.265625 -0.53125q0.671875 -0.546875 1.40625 -1.609375l0 -4.234374q-0.390625 -0.1875 -0.859375 -0.28125q-0.46875 -0.09375 -0.9375 -0.09375q-1.296875 0 -2.03125 0.84374905q-0.71875 0.828125 -0.71875 2.609375z" fill-rule="nonzero"/><path fill="#000000" fill-opacity="0.0" d="m134.2559 30.733595l61.133865 0l0 28.881891l-61.133865 0z" fill-rule="evenodd"/><path stroke="#666666" stroke-width="1.0" stroke-linejoin="round" stroke-linecap="butt" d="m134.2559 30.733595l61.133865 0l0 28.881891l-61.133865 0z" fill-rule="evenodd"/><path fill="#434343" d="m158.62439 52.09454l-7.84375 0l0 -1.421875l3.078125 -3.0625q0.75 -0.75 1.21875 -1.296875q0.484375 -0.546875 0.75 -0.984375q0.265625 -0.453125 0.34375 -0.859375q0.09375 -0.40625 0.09375 -0.859375q0 -0.4375 -0.125 -0.828125q-0.109375 -0.40625 -0.359375 -0.703125q-0.234375 -0.3125 -0.640625 -0.484375q-0.390625 -0.171875 -0.9375 -0.171875q-0.75 0 -1.375 0.34375q-0.609375 0.328125 -1.125 0.875l-0.875 -1.046875q0.671875 -0.71875 1.546875 -1.140625q0.875 -0.421875 2.046875 -0.421875q0.796875 0 1.4375 0.234375q0.65625 0.234375 1.125 0.6875q0.484375 0.4375 0.734375 1.09375q0.265625 0.640625 0.265625 1.453125q0 0.671875 -0.1875 1.265625q-0.171875 0.578125 -0.546875 1.15625q-0.375 0.578125 -0.9375 1.203125q-0.546875 0.609375 -1.3125 1.359375l-2.171875 2.09375l5.796875 0l0 1.515625zm10.522919 -5.953125q0 1.375 -0.28125 2.5q-0.265625 1.125 -0.828125 1.9375q-0.546875 0.796875 -1.375 1.234375q-0.8125 0.4375 -1.9375 0.4375q-0.953125 0 -1.734375 -0.359375q-0.78125 -0.359375 -1.34375 -1.09375q-0.546875 -0.75 -0.859375 -1.90625q-0.296875 -1.15625 -0.296875 -2.75q0 -1.359375 0.28125 -2.484375q0.28125 -1.140625 0.828125 -1.9375q0.546875 -0.8125 1.375 -1.25q0.84375 -0.4375 1.9375 -0.4375q0.953125 0 1.734375 0.359375q0.796875 0.359375 1.34375 1.109375q0.5625 0.75 0.859375 1.90625q0.296875 1.15625 0.296875 2.734375zm-1.59375 0.0625q0 -0.3125 -0.03125 -0.609375q-0.015625 -0.3125 -0.046875 -0.609375l-5.046875 3.75q0.140625 0.46875 0.34375 0.875q0.21875 0.390625 0.515625 0.6875q0.296875 0.28125 0.671875 0.453125q0.375 0.15625 0.859375 0.15625q0.625 0 1.125 -0.296875q0.515625 -0.3125 0.859375 -0.90625q0.359375 -0.59375 0.546875 -1.46875q0.203125 -0.875 0.203125 -2.03125zm-5.453125 -0.109375q0 0.28125 0 0.5625q0 0.28125 0.03125 0.546875l5.046875 -3.734375q-0.140625 -0.453125 -0.359375 -0.828125q-0.203125 -0.390625 -0.5 -0.671875q-0.28125 -0.28125 -0.65625 -0.4375q-0.375 -0.15625 -0.84375 -0.15625q-0.609375 0 -1.125 0.3125q-0.5 0.296875 -0.859375 0.890625q-0.359375 0.59375 -0.546875 1.484375q-0.1875 0.875 -0.1875 2.03125zm17.179169 2.234375q0 0.8125 -0.296875 1.53125q-0.296875 0.71875 -0.84375 1.25q-0.546875 0.53125 -1.3125 0.84375q-0.765625 0.296875 -1.703125 0.296875q-0.984375 0 -1.75 -0.3125q-0.75 -0.3125 -1.265625 -0.953125q-0.5 -0.65625 -0.765625 -1.640625q-0.265625 -1.0 -0.265625 -2.359375q0 -0.90625 0.109375 -1.765625q0.125 -0.859375 0.390625 -1.609375q0.28125 -0.765625 0.734375 -1.390625q0.453125 -0.625 1.125 -1.078125q0.6875 -0.453125 1.609375 -0.703125q0.921875 -0.25 2.125 -0.25l1.1875 0l0 1.390625l-1.28125 0q-1.0625 0 -1.859375 0.25q-0.78125 0.25 -1.3125 0.71875q-0.515625 0.46875 -0.796875 1.125q-0.28125 0.65625 -0.359375 1.46875l-0.03125 0.359375q0.5625 -0.328125 1.3125 -0.53125q0.765625 -0.203125 1.640625 -0.203125q0.890625 0 1.5625 0.265625q0.6875 0.25 1.140625 0.734375q0.453125 0.46875 0.671875 1.125q0.234375 0.640625 0.234375 1.4375zm-1.65625 0.09375q0 -0.546875 -0.140625 -0.984375q-0.125 -0.4375 -0.40625 -0.75q-0.28125 -0.3125 -0.71875 -0.46875q-0.4375 -0.171875 -1.03125 -0.171875q-0.34375 0 -0.703125 0.0625q-0.359375 0.0625 -0.703125 0.1875q-0.328125 0.109375 -0.640625 0.25q-0.3125 0.140625 -0.5625 0.3125q0 1.171875 0.15625 1.96875q0.171875 0.78125 0.484375 1.25q0.328125 0.46875 0.796875 0.671875q0.484375 0.203125 1.09375 0.203125q0.53125 0 0.953125 -0.15625q0.4375 -0.171875 0.75 -0.5q0.3125 -0.328125 0.484375 -0.796875q0.1875 -0.46875 0.1875 -1.078125z" fill-rule="nonzero"/><path fill="#000000" fill-opacity="0.0" d="m235.38977 30.733595l61.13385 0l0 28.881891l-61.13385 0z" fill-rule="evenodd"/><path stroke="#666666" stroke-width="1.0" stroke-linejoin="round" stroke-linecap="butt" d="m235.38977 30.733595l61.13385 0l0 28.881891l-61.13385 0z" fill-rule="evenodd"/><path fill="#434343" d="m264.2619 51.75079q-0.625 0.25 -1.28125 0.359375q-0.640625 0.109375 -1.328125 0.109375q-2.171875 0 -3.34375 -1.171875q-1.171875 -1.171875 -1.171875 -3.4375q0 -1.078125 0.328125 -1.953125q0.34375 -0.890625 0.953125 -1.515625q0.609375 -0.640625 1.453125 -0.984375q0.859375 -0.34375 1.875 -0.34375q0.71875 0 1.328125 0.109375q0.625 0.09375 1.1875 0.328125l0 1.515625q-0.59375 -0.3125 -1.21875 -0.453125q-0.609375 -0.140625 -1.265625 -0.140625q-0.609375 0 -1.15625 0.234375q-0.53125 0.234375 -0.9375 0.671875q-0.40625 0.421875 -0.65625 1.0625q-0.234375 0.625 -0.234375 1.421875q0 1.65625 0.796875 2.484375q0.8125 0.8125 2.25 0.8125q0.640625 0 1.25 -0.140625q0.609375 -0.140625 1.171875 -0.4375l0 1.46875zm2.6947937 -4.03125q0 -1.171875 0.3125 -2.078125q0.3125 -0.90625 0.90625 -1.53125q0.59375 -0.625 1.40625 -0.9375q0.828125 -0.328125 1.84375 -0.328125q0.4375 0 0.859375 0.0625q0.421875 0.046875 0.828125 0.15625l0 -3.84375l1.59375 0l0 12.875l-1.421875 0l-0.046875 -1.734375q-0.671875 0.96875 -1.453125 1.4375q-0.765625 0.453125 -1.671875 0.453125q-0.78125 0 -1.375 -0.3125q-0.59375 -0.328125 -1.0 -0.921875q-0.390625 -0.609375 -0.59375 -1.4375q-0.1875 -0.84375 -0.1875 -1.859375zm1.609375 -0.109375q0 1.65625 0.484375 2.484375q0.5 0.8125 1.390625 0.8125q0.59375 0 1.265625 -0.53125q0.671875 -0.546875 1.40625 -1.609375l0 -4.234375q-0.390625 -0.1875 -0.859375 -0.28125q-0.46875 -0.09375 -0.9375 -0.09375q-1.296875 0 -2.03125 0.84375q-0.71875 0.828125 -0.71875 2.609375z" fill-rule="nonzero"/><path fill="#000000" fill-opacity="0.0" d="m134.2559 59.615486l61.133865 0l0 28.88189l-61.133865 0z" fill-rule="evenodd"/><path stroke="#666666" stroke-width="1.0" stroke-linejoin="round" stroke-linecap="butt" d="m134.2559 59.615486l61.133865 0l0 28.88189l-61.133865 0z" fill-rule="evenodd"/><path fill="#434343" d="m163.75304 80.976425l-7.84375 0l0 -1.421875l3.078125 -3.0625q0.75 -0.75 1.21875 -1.296875q0.484375 -0.546875 0.75 -0.984375q0.265625 -0.453125 0.34375 -0.859375q0.09375 -0.40625 0.09375 -0.859375q0 -0.4375 -0.125 -0.828125q-0.109375 -0.40625 -0.359375 -0.703125q-0.234375 -0.3125 -0.640625 -0.484375q-0.390625 -0.171875 -0.9375 -0.171875q-0.75 0 -1.375 0.34375q-0.609375 0.328125 -1.125 0.875l-0.875 -1.046875q0.671875 -0.71875 1.546875 -1.140625q0.875 -0.421875 2.046875 -0.421875q0.796875 0 1.4375 0.234375q0.65625 0.234375 1.125 0.6875q0.484375 0.4375 0.734375 1.09375q0.265625 0.640625 0.265625 1.453125q0 0.671875 -0.1875 1.265625q-0.171875 0.578125 -0.546875 1.15625q-0.375 0.578125 -0.9375 1.203125q-0.546875 0.609375 -1.3125 1.359375l-2.171875 2.09375l5.796875 0l0 1.515625zm10.194794 -6.625q0 1.75 -0.421875 3.0q-0.421875 1.25 -1.25 2.0625q-0.8125 0.796875 -2.03125 1.1875q-1.203125 0.375 -2.796875 0.375l-0.984375 0l0 -1.390625l1.09375 0q1.1875 0 2.03125 -0.234375q0.859375 -0.234375 1.421875 -0.6875q0.578125 -0.46875 0.875 -1.125q0.3125 -0.65625 0.375 -1.515625l0.046875 -0.359375q-0.578125 0.328125 -1.328125 0.53125q-0.75 0.203125 -1.625 0.203125q-0.890625 0 -1.578125 -0.25q-0.6875 -0.265625 -1.140625 -0.734375q-0.453125 -0.484375 -0.6875 -1.125q-0.21875 -0.65625 -0.21875 -1.421875q0 -0.84375 0.296875 -1.5625q0.3125 -0.71875 0.84375 -1.25q0.546875 -0.53125 1.296875 -0.828125q0.765625 -0.3125 1.671875 -0.3125q0.890625 0 1.640625 0.296875q0.75 0.28125 1.296875 0.9375q0.546875 0.640625 0.859375 1.6875q0.3125 1.03125 0.3125 2.515625zm-4.171875 -4.140625q-0.515625 0 -0.953125 0.171875q-0.421875 0.15625 -0.75 0.484375q-0.3125 0.328125 -0.5 0.796875q-0.171875 0.46875 -0.171875 1.09375q0 0.546875 0.125 0.984375q0.140625 0.4375 0.40625 0.75q0.28125 0.296875 0.71875 0.46875q0.4375 0.15625 1.046875 0.15625q0.328125 0 0.6875 -0.0625q0.375 -0.0625 0.703125 -0.171875q0.34375 -0.109375 0.65625 -0.25q0.3125 -0.15625 0.5625 -0.3125q0 -1.171875 -0.1875 -1.953125q-0.171875 -0.796875 -0.5 -1.265625q-0.3125 -0.484375 -0.796875 -0.6875q-0.46875 -0.203125 -1.046875 -0.203125z" fill-rule="nonzero"/><path fill="#000000" fill-opacity="0.0" d="m235.38977 59.615486l61.13385 0l0 28.88189l-61.13385 0z" fill-rule="evenodd"/><path stroke="#666666" stroke-width="1.0" stroke-linejoin="round" stroke-linecap="butt" d="m235.38977 59.615486l61.13385 0l0 28.88189l-61.13385 0z" fill-rule="evenodd"/><path fill="#434343" d="m265.15253 75.0233q0 1.375 -0.28125 2.5q-0.265625 1.125 -0.828125 1.9375q-0.546875 0.796875 -1.375 1.234375q-0.8125 0.4375 -1.9375 0.4375q-0.953125 0 -1.734375 -0.359375q-0.78125 -0.359375 -1.34375 -1.09375q-0.546875 -0.75 -0.859375 -1.90625q-0.296875 -1.15625 -0.296875 -2.75q0 -1.359375 0.28125 -2.484375q0.28125 -1.140625 0.828125 -1.9375q0.546875 -0.8125 1.375 -1.25q0.84375 -0.4375 1.9375 -0.4375q0.953125 0 1.734375 0.359375q0.796875 0.359375 1.34375 1.109375q0.5625 0.75 0.859375 1.90625q0.296875 1.15625 0.296875 2.734375zm-1.59375 0.0625q0 -0.3125 -0.03125 -0.609375q-0.015625 -0.3125 -0.046875 -0.609375l-5.046875 3.75q0.140625 0.46875 0.34375 0.875q0.21875 0.390625 0.515625 0.6875q0.296875 0.28125 0.671875 0.453125q0.375 0.15625 0.859375 0.15625q0.625 0 1.125 -0.296875q0.515625 -0.3125 0.859375 -0.90625q0.359375 -0.59375 0.546875 -1.46875q0.203125 -0.875 0.203125 -2.03125zm-5.453125 -0.109375q0 0.28125 0 0.5625q0 0.28125 0.03125 0.546875l5.046875 -3.734375q-0.140625 -0.453125 -0.359375 -0.828125q-0.203125 -0.390625 -0.5 -0.671875q-0.28125 -0.28125 -0.65625 -0.4375q-0.375 -0.15625 -0.84375 -0.15625q-0.609375 0 -1.125 0.3125q-0.5 0.296875 -0.859375 0.890625q-0.359375 0.59375 -0.546875 1.484375q-0.1875 0.875 -0.1875 2.03125zm17.038544 3.015625q0 0.75 -0.3125 1.34375q-0.3125 0.578125 -0.875 0.984375q-0.546875 0.40625 -1.3125 0.609375q-0.75 0.203125 -1.625 0.203125q-0.984375 0 -1.734375 -0.203125q-0.734375 -0.21875 -1.234375 -0.609375q-0.5 -0.40625 -0.765625 -0.9375q-0.25 -0.53125 -0.25 -1.1875q0 -1.09375 0.609375 -1.875q0.625 -0.796875 1.890625 -1.453125q-1.171875 -0.59375 -1.703125 -1.3125q-0.53125 -0.71875 -0.53125 -1.65625q0 -0.578125 0.234375 -1.109375q0.234375 -0.546875 0.703125 -0.953125q0.484375 -0.421875 1.203125 -0.671875q0.71875 -0.25 1.703125 -0.25q0.921875 0 1.609375 0.203125q0.703125 0.1875 1.171875 0.546875q0.46875 0.359375 0.703125 0.890625q0.25 0.515625 0.25 1.140625q0 1.046875 -0.578125 1.78125q-0.578125 0.71875 -1.640625 1.265625q0.515625 0.265625 0.96875 0.59375q0.46875 0.3125 0.796875 0.703125q0.34375 0.390625 0.53125 0.875q0.1875 0.484375 0.1875 1.078125zm-1.890625 -6.15625q0 -0.8125 -0.578125 -1.203125q-0.5625 -0.40625 -1.59375 -0.40625q-1.015625 0 -1.59375 0.390625q-0.5625 0.390625 -0.5625 1.171875q0 0.359375 0.140625 0.671875q0.140625 0.296875 0.421875 0.5625q0.28125 0.25 0.703125 0.515625q0.4375 0.25 1.03125 0.515625q1.03125 -0.484375 1.53125 -1.0q0.5 -0.53125 0.5 -1.21875zm0.15625 6.265625q0 -0.328125 -0.109375 -0.640625q-0.109375 -0.328125 -0.390625 -0.640625q-0.28125 -0.3125 -0.75 -0.609375q-0.46875 -0.3125 -1.203125 -0.640625q-0.625 0.296875 -1.046875 0.59375q-0.421875 0.296875 -0.6875 0.609375q-0.25 0.296875 -0.359375 0.625q-0.109375 0.328125 -0.109375 0.6875q0 0.40625 0.171875 0.734375q0.1875 0.3125 0.484375 0.53125q0.3125 0.21875 0.734375 0.328125q0.4375 0.109375 0.9375 0.109375q0.484375 0 0.90625 -0.09375q0.4375 -0.109375 0.75 -0.3125q0.3125 -0.203125 0.484375 -0.515625q0.1875 -0.328125 0.1875 -0.765625z" fill-rule="nonzero"/><path fill="#000000" fill-opacity="0.0" d="m134.2559 88.497375l61.133865 0l0 28.88189l-61.133865 0z" fill-rule="evenodd"/><path stroke="#666666" stroke-width="1.0" stroke-linejoin="round" stroke-linecap="butt" d="m134.2559 88.497375l61.133865 0l0 28.88189l-61.133865 0z" fill-rule="evenodd"/><path fill="#434343" d="m163.69054 103.233315q0 1.75 -0.421875 3.0q-0.421875 1.25 -1.25 2.0625q-0.8125 0.796875 -2.03125 1.1875q-1.203125 0.375 -2.796875 0.375l-0.984375 0l0 -1.390625l1.09375 0q1.1875 0 2.03125 -0.234375q0.859375 -0.234375 1.421875 -0.6875q0.578125 -0.46875 0.875 -1.125q0.3125 -0.65625 0.375 -1.515625l0.046875 -0.359375q-0.578125 0.328125 -1.328125 0.53125q-0.75 0.203125 -1.625 0.203125q-0.890625 0 -1.578125 -0.25q-0.6875 -0.265625 -1.140625 -0.734375q-0.453125 -0.484375 -0.6875 -1.125q-0.21875 -0.65625 -0.21875 -1.421875q0 -0.84375 0.296875 -1.5625q0.3125 -0.71875 0.84375 -1.25q0.546875 -0.53125 1.296875 -0.828125q0.765625 -0.3125 1.671875 -0.3125q0.890625 0 1.640625 0.296875q0.75 0.28125 1.296875 0.9375q0.546875 0.640625 0.859375 1.6875q0.3125 1.03125 0.3125 2.515625zm-4.171875 -4.140625q-0.515625 0 -0.953125 0.171875q-0.421875 0.15625 -0.75 0.484375q-0.3125 0.328125 -0.5 0.796875q-0.171875 0.46875 -0.171875 1.09375q0 0.546875 0.125 0.984375q0.140625 0.4375 0.40625 0.75q0.28125 0.296875 0.71875 0.46875q0.4375 0.15625 1.046875 0.15625q0.328125 0 0.6875 -0.0625q0.375 -0.0625 0.703125 -0.171875q0.34375 -0.109375 0.65625 -0.25q0.3125 -0.15625 0.5625 -0.3125q0 -1.171875 -0.1875 -1.953125q-0.171875 -0.796875 -0.5 -1.265625q-0.3125 -0.484375 -0.796875 -0.6875q-0.46875 -0.203125 -1.046875 -0.203125zm14.257294 7.15625q0 0.78125 -0.328125 1.46875q-0.3125 0.6875 -0.953125 1.203125q-0.625 0.515625 -1.59375 0.8125q-0.96875 0.28125 -2.25 0.28125q-0.71875 0 -1.28125 -0.046875q-0.5625 -0.03125 -1.046875 -0.109375l0 -1.421875q0.5625 0.09375 1.1875 0.15625q0.625 0.046875 1.28125 0.046875q0.890625 0 1.515625 -0.15625q0.640625 -0.15625 1.046875 -0.453125q0.40625 -0.296875 0.578125 -0.71875q0.1875 -0.4375 0.1875 -0.984375q0 -0.484375 -0.21875 -0.84375q-0.21875 -0.375 -0.625 -0.609375q-0.390625 -0.25 -0.9375 -0.375q-0.546875 -0.125 -1.203125 -0.125l-1.359375 0l0 -1.296875l1.375 0q0.53125 0 0.96875 -0.140625q0.453125 -0.140625 0.765625 -0.40625q0.3125 -0.265625 0.484375 -0.65625q0.171875 -0.390625 0.171875 -0.875q0 -0.953125 -0.59375 -1.390625q-0.578125 -0.4375 -1.703125 -0.4375q-0.609375 0 -1.25 0.125q-0.625 0.109375 -1.359375 0.34375l0 -1.390625q0.3125 -0.109375 0.65625 -0.1875q0.359375 -0.09375 0.703125 -0.140625q0.359375 -0.0625 0.703125 -0.09375q0.34375 -0.03125 0.65625 -0.03125q0.953125 0 1.671875 0.203125q0.71875 0.203125 1.203125 0.59375q0.484375 0.375 0.71875 0.921875q0.25 0.546875 0.25 1.21875q0 1.03125 -0.53125 1.71875q-0.515625 0.6875 -1.421875 1.109375q0.46875 0.0625 0.90625 0.28125q0.453125 0.21875 0.8125 0.5625q0.375 0.34375 0.59375 0.8125q0.21875 0.453125 0.21875 1.03125z" fill-rule="nonzero"/><path fill="#000000" fill-opacity="0.0" d="m235.38977 88.497375l61.13385 0l0 28.88189l-61.13385 0z" fill-rule="evenodd"/><path stroke="#666666" stroke-width="1.0" stroke-linejoin="round" stroke-linecap="butt" d="m235.38977 88.497375l61.13385 0l0 28.88189l-61.13385 0z" fill-rule="evenodd"/><path fill="#434343" d="m264.8869 106.87394q0 0.75 -0.3125 1.34375q-0.3125 0.578125 -0.875 0.984375q-0.546875 0.40625 -1.3125 0.609375q-0.75 0.203125 -1.625 0.203125q-0.984375 0 -1.734375 -0.203125q-0.734375 -0.21875 -1.234375 -0.609375q-0.5 -0.40625 -0.765625 -0.9375q-0.25 -0.53125 -0.25 -1.1875q0 -1.09375 0.609375 -1.875q0.625 -0.796875 1.890625 -1.453125q-1.171875 -0.59375 -1.703125 -1.3125q-0.53125 -0.71875 -0.53125 -1.65625q0 -0.578125 0.234375 -1.109375q0.234375 -0.546875 0.703125 -0.953125q0.484375 -0.421875 1.203125 -0.671875q0.71875 -0.25 1.703125 -0.25q0.921875 0 1.609375 0.203125q0.703125 0.1875 1.171875 0.546875q0.46875 0.359375 0.703125 0.890625q0.25 0.515625 0.25 1.140625q0 1.046875 -0.578125 1.78125q-0.578125 0.71875 -1.640625 1.265625q0.515625 0.265625 0.96875 0.59375q0.46875 0.3125 0.796875 0.703125q0.34375 0.390625 0.53125 0.875q0.1875 0.484375 0.1875 1.078125zm-1.890625 -6.15625q0 -0.8125 -0.578125 -1.203125q-0.5625 -0.40625 -1.59375 -0.40625q-1.015625 0 -1.59375 0.390625q-0.5625 0.390625 -0.5625 1.171875q0 0.359375 0.140625 0.671875q0.140625 0.296875 0.421875 0.5625q0.28125 0.25 0.703125 0.515625q0.4375 0.25 1.03125 0.515625q1.03125 -0.484375 1.53125 -1.0q0.5 -0.53125 0.5 -1.21875zm0.15625 6.265625q0 -0.328125 -0.109375 -0.640625q-0.109375 -0.328125 -0.390625 -0.640625q-0.28125 -0.3125 -0.75 -0.609375q-0.46875 -0.3125 -1.203125 -0.640625q-0.625 0.296875 -1.046875 0.59375q-0.421875 0.296875 -0.6875 0.609375q-0.25 0.296875 -0.359375 0.625q-0.109375 0.328125 -0.109375 0.6875q0 0.40625 0.171875 0.734375q0.1875 0.3125 0.484375 0.53125q0.3125 0.21875 0.734375 0.328125q0.4375 0.109375 0.9375 0.109375q0.484375 0 0.90625 -0.09375q0.4375 -0.109375 0.75 -0.3125q0.3125 -0.203125 0.484375 -0.515625q0.1875 -0.328125 0.1875 -0.765625zm3.8041687 -1.5q0 -1.171875 0.3125 -2.078125q0.3125 -0.90625 0.90625 -1.53125q0.59375 -0.625 1.40625 -0.9375q0.828125 -0.328125 1.84375 -0.328125q0.4375 0 0.859375 0.0625q0.421875 0.046875 0.828125 0.15625l0 -3.84375l1.59375 0l0 12.875l-1.421875 0l-0.046875 -1.734375q-0.671875 0.96875 -1.453125 1.4375q-0.765625 0.453125 -1.671875 0.453125q-0.78125 0 -1.375 -0.3125q-0.59375 -0.328125 -1.0 -0.921875q-0.390625 -0.609375 -0.59375 -1.4375q-0.1875 -0.84375 -0.1875 -1.859375zm1.609375 -0.109375q0 1.65625 0.484375 2.484375q0.5 0.8125 1.390625 0.8125q0.59375 0 1.265625 -0.53125q0.671875 -0.546875 1.40625 -1.609375l0 -4.234375q-0.390625 -0.1875 -0.859375 -0.28125q-0.46875 -0.09375 -0.9375 -0.09375q-1.296875 0 -2.03125 0.84375q-0.71875 0.828125 -0.71875 2.609375z" fill-rule="nonzero"/><path fill="#000000" fill-opacity="0.0" d="m134.2559 117.379265l61.133865 0l0 28.88189l-61.133865 0z" fill-rule="evenodd"/><path stroke="#666666" stroke-width="1.0" stroke-linejoin="round" stroke-linecap="butt" d="m134.2559 117.379265l61.133865 0l0 28.88189l-61.133865 0z" fill-rule="evenodd"/><path fill="#434343" d="m158.51501 138.7402l-7.46875 0l0 -1.46875l3.0625 0l0 -8.703125l-2.859375 1.546875l-0.578125 -1.34375l3.78125 -1.9843674l1.40625 0l0 10.484367l2.65625 0l0 1.46875zm10.366669 0l-7.84375 0l0 -1.421875l3.078125 -3.0625q0.75 -0.75 1.21875 -1.296875q0.484375 -0.546875 0.75 -0.984375q0.265625 -0.453125 0.34375 -0.859375q0.09375 -0.40625 0.09375 -0.859375q0 -0.4375 -0.125 -0.828125q-0.109375 -0.40625 -0.359375 -0.703125q-0.234375 -0.3125 -0.640625 -0.484375q-0.390625 -0.171875 -0.9375 -0.171875q-0.75 0 -1.375 0.34375q-0.609375 0.328125 -1.125 0.875l-0.875 -1.046875q0.671875 -0.7187424 1.546875 -1.1406174q0.875 -0.421875 2.046875 -0.421875q0.796875 0 1.4375 0.234375q0.65625 0.234375 1.125 0.6875q0.484375 0.43749237 0.734375 1.0937424q0.265625 0.640625 0.265625 1.453125q0 0.671875 -0.1875 1.265625q-0.171875 0.578125 -0.546875 1.15625q-0.375 0.578125 -0.9375 1.203125q-0.546875 0.609375 -1.3125 1.359375l-2.171875 2.09375l5.796875 0l0 1.515625zm10.257294 0l-7.84375 0l0 -1.421875l3.078125 -3.0625q0.75 -0.75 1.21875 -1.296875q0.484375 -0.546875 0.75 -0.984375q0.265625 -0.453125 0.34375 -0.859375q0.09375 -0.40625 0.09375 -0.859375q0 -0.4375 -0.125 -0.828125q-0.109375 -0.40625 -0.359375 -0.703125q-0.234375 -0.3125 -0.640625 -0.484375q-0.390625 -0.171875 -0.9375 -0.171875q-0.75 0 -1.375 0.34375q-0.609375 0.328125 -1.125 0.875l-0.875 -1.046875q0.671875 -0.7187424 1.546875 -1.1406174q0.875 -0.421875 2.046875 -0.421875q0.796875 0 1.4375 0.234375q0.65625 0.234375 1.125 0.6875q0.484375 0.43749237 0.734375 1.0937424q0.265625 0.640625 0.265625 1.453125q0 0.671875 -0.1875 1.265625q-0.171875 0.578125 -0.546875 1.15625q-0.375 0.578125 -0.9375 1.203125q-0.546875 0.609375 -1.3125 1.359375l-2.171875 2.09375l5.796875 0l0 1.515625z" fill-rule="nonzero"/><path fill="#000000" fill-opacity="0.0" d="m235.38977 117.379265l61.13385 0l0 28.88189l-61.13385 0z" fill-rule="evenodd"/><path stroke="#666666" stroke-width="1.0" stroke-linejoin="round" stroke-linecap="butt" d="m235.38977 117.379265l61.13385 0l0 28.88189l-61.13385 0z" fill-rule="evenodd"/><path fill="#434343" d="m264.98065 134.00583q0 1.140625 -0.328125 2.046875q-0.3125 0.890625 -0.890625 1.515625q-0.578125 0.609375 -1.40625 0.953125q-0.828125 0.328125 -1.859375 0.328125q-0.8125 0 -1.671875 -0.15625q-0.84375 -0.15625 -1.671875 -0.484375l0 -12.343742l1.59375 0l0 3.5468674l-0.078125 1.6875q0.6875 -0.90625 1.453125 -1.28125q0.78125 -0.390625 1.6875 -0.390625q0.78125 0 1.375 0.328125q0.59375 0.328125 0.984375 0.9375q0.40625 0.59375 0.609375 1.4375q0.203125 0.828125 0.203125 1.875zm-1.625 0.0625q0 -0.71875 -0.109375 -1.3125q-0.109375 -0.609375 -0.34375 -1.03125q-0.21875 -0.421875 -0.578125 -0.65625q-0.34375 -0.25 -0.84375 -0.25q-0.296875 0 -0.609375 0.09375q-0.3125 0.09375 -0.640625 0.328125q-0.328125 0.21875 -0.703125 0.59375q-0.359375 0.359375 -0.78125 0.90625l0 4.4375q0.453125 0.171875 0.9375 0.28125q0.484375 0.109375 0.921875 0.109375q0.546875 0 1.046875 -0.171875q0.5 -0.171875 0.875 -0.578125q0.375 -0.40625 0.59375 -1.078125q0.234375 -0.671875 0.234375 -1.671875zm9.929169 4.671875l-0.03125 -1.234375q-0.75 0.75 -1.515625 1.078125q-0.765625 0.3125 -1.625 0.3125q-0.78125 0 -1.34375 -0.1875q-0.546875 -0.203125 -0.90625 -0.546875q-0.359375 -0.359375 -0.53125 -0.828125q-0.15625 -0.484375 -0.15625 -1.03125q0 -1.375 1.015625 -2.15625q1.03125 -0.78125 3.03125 -0.78125l1.890625 0l0 -0.796875q0 -0.8125 -0.515625 -1.296875q-0.515625 -0.5 -1.578125 -0.5q-0.78125 0 -1.53125 0.1875q-0.75 0.171875 -1.546875 0.484375l0 -1.4375q0.296875 -0.109375 0.65625 -0.203125q0.375 -0.109375 0.78125 -0.1875q0.40625 -0.078125 0.859375 -0.125q0.453125 -0.0625 0.90625 -0.0625q0.828125 0 1.484375 0.1875q0.671875 0.171875 1.125 0.546875q0.46875 0.375 0.703125 0.953125q0.25 0.5625 0.25 1.328125l0 6.296875l-1.421875 0zm-0.171875 -4.15625l-2.015625 0q-0.578125 0 -1.015625 0.125q-0.421875 0.109375 -0.703125 0.328125q-0.265625 0.21875 -0.40625 0.53125q-0.125 0.296875 -0.125 0.671875q0 0.265625 0.078125 0.515625q0.078125 0.234375 0.265625 0.421875q0.1875 0.1875 0.46875 0.296875q0.296875 0.109375 0.71875 0.109375q0.546875 0 1.25 -0.328125q0.703125 -0.34375 1.484375 -1.0625l0 -1.609375z" fill-rule="nonzero"/><path fill="#000000" fill-opacity="0.0" d="m102.21916 219.07742l61.13385 0l0 28.881897l-61.13385 0z" fill-rule="evenodd"/><path stroke="#666666" stroke-width="1.0" stroke-linejoin="round" stroke-linecap="butt" d="m102.21916 219.07742l61.13385 0l0 28.881897l-61.13385 0z" fill-rule="evenodd"/><path fill="#434343" d="m131.60692 240.43837l-7.46875 0l0 -1.46875l3.0625 0l0 -8.703125l-2.859375 1.546875l-0.578125 -1.34375l3.78125 -1.984375l1.40625 0l0 10.484375l2.65625 0l0 1.46875zm10.304169 -6.625q0 1.75 -0.421875 3.0q-0.421875 1.25 -1.25 2.0625q-0.8125 0.796875 -2.03125 1.1875q-1.203125 0.375 -2.796875 0.375l-0.984375 0l0 -1.390625l1.09375 0q1.1875 0 2.03125 -0.234375q0.859375 -0.234375 1.421875 -0.6875q0.578125 -0.46875 0.875 -1.125q0.3125 -0.65625 0.375 -1.515625l0.046875 -0.359375q-0.578125 0.328125 -1.328125 0.53125q-0.75 0.203125 -1.625 0.203125q-0.890625 0 -1.578125 -0.25q-0.6875 -0.265625 -1.140625 -0.734375q-0.453125 -0.484375 -0.6875 -1.125q-0.21875 -0.65625 -0.21875 -1.421875q0 -0.84375 0.296875 -1.5625q0.3125 -0.71875 0.84375 -1.25q0.546875 -0.53125 1.296875 -0.828125q0.765625 -0.3125 1.671875 -0.3125q0.890625 0 1.640625 0.296875q0.75 0.28125 1.296875 0.9375q0.546875 0.640625 0.859375 1.6875q0.3125 1.03125 0.3125 2.515625zm-4.171875 -4.140625q-0.515625 0 -0.953125 0.171875q-0.421875 0.15625 -0.75 0.484375q-0.3125 0.328125 -0.5 0.796875q-0.171875 0.46875 -0.171875 1.09375q0 0.546875 0.125 0.984375q0.140625 0.4375 0.40625 0.75q0.28125 0.296875 0.71875 0.46875q0.4375 0.15625 1.046875 0.15625q0.328125 0 0.6875 -0.0625q0.375 -0.0625 0.703125 -0.171875q0.34375 -0.109375 0.65625 -0.25q0.3125 -0.15625 0.5625 -0.3125q0 -1.171875 -0.1875 -1.953125q-0.171875 -0.796875 -0.5 -1.265625q-0.3125 -0.484375 -0.796875 -0.6875q-0.46875 -0.203125 -1.046875 -0.203125z" fill-rule="nonzero"/><path fill="#000000" fill-opacity="0.0" d="m1.0853019 219.07742l61.13386 0l0 28.881897l-61.13386 0z" fill-rule="evenodd"/><path stroke="#666666" stroke-width="1.0" stroke-linejoin="round" stroke-linecap="butt" d="m1.0853019 219.07742l61.13386 0l0 28.881897l-61.13386 0z" fill-rule="evenodd"/><path fill="#434343" d="m35.976707 234.48524q0 1.375 -0.28125 2.5q-0.265625 1.125 -0.828125 1.9375q-0.546875 0.796875 -1.375 1.234375q-0.8125 0.4375 -1.9374981 0.4375q-0.953125 0 -1.734375 -0.359375q-0.78125 -0.359375 -1.34375 -1.09375q-0.546875 -0.75 -0.859375 -1.90625q-0.296875 -1.15625 -0.296875 -2.75q0 -1.359375 0.28125 -2.484375q0.28125 -1.140625 0.828125 -1.9375q0.546875 -0.8125 1.375 -1.25q0.84375 -0.4375 1.9375 -0.4375q0.9531231 0 1.7343731 0.359375q0.796875 0.359375 1.34375 1.109375q0.5625 0.75 0.859375 1.90625q0.296875 1.15625 0.296875 2.734375zm-1.59375 0.0625q0 -0.3125 -0.03125 -0.609375q-0.015625 -0.3125 -0.046875 -0.609375l-5.046873 3.75q0.140625 0.46875 0.34375 0.875q0.21875 0.390625 0.515625 0.6875q0.296875 0.28125 0.671875 0.453125q0.375 0.15625 0.859375 0.15625q0.6249981 0 1.1249981 -0.296875q0.515625 -0.3125 0.859375 -0.90625q0.359375 -0.59375 0.546875 -1.46875q0.203125 -0.875 0.203125 -2.03125zm-5.453123 -0.109375q0 0.28125 0 0.5625q0 0.28125 0.03125 0.546875l5.046873 -3.734375q-0.140625 -0.453125 -0.359375 -0.828125q-0.203125 -0.390625 -0.5 -0.671875q-0.28125 -0.28125 -0.65625 -0.4375q-0.375 -0.15625 -0.8437481 -0.15625q-0.609375 0 -1.125 0.3125q-0.5 0.296875 -0.859375 0.890625q-0.359375 0.59375 -0.546875 1.484375q-0.1875 0.875 -0.1875 2.03125z" fill-rule="nonzero"/><path fill="#000000" fill-opacity="0.0" d="m102.21916 247.95932l61.13385 0l0 28.881897l-61.13385 0z" fill-rule="evenodd"/><path stroke="#666666" stroke-width="1.0" stroke-linejoin="round" stroke-linecap="butt" d="m102.21916 247.95932l61.13385 0l0 28.881897l-61.13385 0z" fill-rule="evenodd"/><path fill="#434343" d="m126.58765 269.32025l-7.84375 0l0 -1.421875l3.078125 -3.0625q0.75 -0.75 1.21875 -1.296875q0.484375 -0.546875 0.75 -0.984375q0.265625 -0.453125 0.34375 -0.859375q0.09375 -0.40625 0.09375 -0.859375q0 -0.4375 -0.125 -0.828125q-0.109375 -0.40625 -0.359375 -0.703125q-0.234375 -0.3125 -0.640625 -0.484375q-0.390625 -0.171875 -0.9375 -0.171875q-0.75 0 -1.375 0.34375q-0.609375 0.328125 -1.125 0.875l-0.875 -1.046875q0.671875 -0.71875 1.546875 -1.140625q0.875 -0.421875 2.046875 -0.421875q0.796875 0 1.4375 0.234375q0.65625 0.234375 1.125 0.6875q0.484375 0.4375 0.734375 1.09375q0.265625 0.640625 0.265625 1.453125q0 0.671875 -0.1875 1.265625q-0.171875 0.578125 -0.546875 1.15625q-0.375 0.578125 -0.9375 1.203125q-0.546875 0.609375 -1.3125 1.359375l-2.171875 2.09375l5.796875 0l0 1.515625zm10.522919 -5.953125q0 1.375 -0.28125 2.5q-0.265625 1.125 -0.828125 1.9375q-0.546875 0.796875 -1.375 1.234375q-0.8125 0.4375 -1.9375 0.4375q-0.953125 0 -1.734375 -0.359375q-0.78125 -0.359375 -1.34375 -1.09375q-0.546875 -0.75 -0.859375 -1.90625q-0.296875 -1.15625 -0.296875 -2.75q0 -1.359375 0.28125 -2.484375q0.28125 -1.140625 0.828125 -1.9375q0.546875 -0.8125 1.375 -1.25q0.84375 -0.4375 1.9375 -0.4375q0.953125 0 1.734375 0.359375q0.796875 0.359375 1.34375 1.109375q0.5625 0.75 0.859375 1.90625q0.296875 1.15625 0.296875 2.734375zm-1.59375 0.0625q0 -0.3125 -0.03125 -0.609375q-0.015625 -0.3125 -0.046875 -0.609375l-5.046875 3.75q0.140625 0.46875 0.34375 0.875q0.21875 0.390625 0.515625 0.6875q0.296875 0.28125 0.671875 0.453125q0.375 0.15625 0.859375 0.15625q0.625 0 1.125 -0.296875q0.515625 -0.3125 0.859375 -0.90625q0.359375 -0.59375 0.546875 -1.46875q0.203125 -0.875 0.203125 -2.03125zm-5.453125 -0.109375q0 0.28125 0 0.5625q0 0.28125 0.03125 0.546875l5.046875 -3.734375q-0.140625 -0.453125 -0.359375 -0.828125q-0.203125 -0.390625 -0.5 -0.671875q-0.28125 -0.28125 -0.65625 -0.4375q-0.375 -0.15625 -0.84375 -0.15625q-0.609375 0 -1.125 0.3125q-0.5 0.296875 -0.859375 0.890625q-0.359375 0.59375 -0.546875 1.484375q-0.1875 0.875 -0.1875 2.03125zm17.179169 2.234375q0 0.8125 -0.296875 1.53125q-0.296875 0.71875 -0.84375 1.25q-0.546875 0.53125 -1.3125 0.84375q-0.765625 0.296875 -1.703125 0.296875q-0.984375 0 -1.75 -0.3125q-0.75 -0.3125 -1.265625 -0.953125q-0.5 -0.65625 -0.765625 -1.640625q-0.265625 -1.0 -0.265625 -2.359375q0 -0.90625 0.109375 -1.765625q0.125 -0.859375 0.390625 -1.609375q0.28125 -0.765625 0.734375 -1.390625q0.453125 -0.625 1.125 -1.078125q0.6875 -0.453125 1.609375 -0.703125q0.921875 -0.25 2.125 -0.25l1.1875 0l0 1.390625l-1.28125 0q-1.0625 0 -1.859375 0.25q-0.78125 0.25 -1.3125 0.71875q-0.515625 0.46875 -0.796875 1.125q-0.28125 0.65625 -0.359375 1.46875l-0.03125 0.359375q0.5625 -0.328125 1.3125 -0.53125q0.765625 -0.203125 1.640625 -0.203125q0.890625 0 1.5625 0.265625q0.6875 0.25 1.140625 0.734375q0.453125 0.46875 0.671875 1.125q0.234375 0.640625 0.234375 1.4375zm-1.65625 0.09375q0 -0.546875 -0.140625 -0.984375q-0.125 -0.4375 -0.40625 -0.75q-0.28125 -0.3125 -0.71875 -0.46875q-0.4375 -0.171875 -1.03125 -0.171875q-0.34375 0 -0.703125 0.0625q-0.359375 0.0625 -0.703125 0.1875q-0.328125 0.109375 -0.640625 0.25q-0.3125 0.140625 -0.5625 0.3125q0 1.171875 0.15625 1.96875q0.171875 0.78125 0.484375 1.25q0.328125 0.46875 0.796875 0.671875q0.484375 0.203125 1.09375 0.203125q0.53125 0 0.953125 -0.15625q0.4375 -0.171875 0.75 -0.5q0.3125 -0.328125 0.484375 -0.796875q0.1875 -0.46875 0.1875 -1.078125z" fill-rule="nonzero"/><path fill="#000000" fill-opacity="0.0" d="m1.0853019 247.95932l61.13386 0l0 28.881897l-61.13386 0z" fill-rule="evenodd"/><path stroke="#666666" stroke-width="1.0" stroke-linejoin="round" stroke-linecap="butt" d="m1.0853019 247.95932l61.13386 0l0 28.881897l-61.13386 0z" fill-rule="evenodd"/><path fill="#434343" d="m35.601707 269.32025l-7.468748 0l0 -1.46875l3.0625 0l0 -8.703125l-2.859375 1.546875l-0.578125 -1.34375l3.78125 -1.984375l1.4062481 0l0 10.484375l2.65625 0l0 1.46875z" fill-rule="nonzero"/><path fill="#000000" fill-opacity="0.0" d="m102.21916 276.84122l61.13385 0l0 28.881866l-61.13385 0z" fill-rule="evenodd"/><path stroke="#666666" stroke-width="1.0" stroke-linejoin="round" stroke-linecap="butt" d="m102.21916 276.84122l61.13385 0l0 28.881866l-61.13385 0z" fill-rule="evenodd"/><path fill="#434343" d="m131.7163 298.20215l-7.84375 0l0 -1.421875l3.078125 -3.0625q0.75 -0.75 1.21875 -1.296875q0.484375 -0.546875 0.75 -0.984375q0.265625 -0.453125 0.34375 -0.859375q0.09375 -0.40625 0.09375 -0.859375q0 -0.4375 -0.125 -0.828125q-0.109375 -0.40625 -0.359375 -0.703125q-0.234375 -0.3125 -0.640625 -0.484375q-0.390625 -0.171875 -0.9375 -0.171875q-0.75 0 -1.375 0.34375q-0.609375 0.328125 -1.125 0.875l-0.875 -1.046875q0.671875 -0.71875 1.546875 -1.140625q0.875 -0.421875 2.046875 -0.421875q0.796875 0 1.4375 0.234375q0.65625 0.234375 1.125 0.6875q0.484375 0.4375 0.734375 1.09375q0.265625 0.640625 0.265625 1.453125q0 0.671875 -0.1875 1.265625q-0.171875 0.578125 -0.546875 1.15625q-0.375 0.578125 -0.9375 1.203125q-0.546875 0.609375 -1.3125 1.359375l-2.171875 2.09375l5.796875 0l0 1.515625zm10.194794 -6.625q0 1.75 -0.421875 3.0q-0.421875 1.25 -1.25 2.0625q-0.8125 0.796875 -2.03125 1.1875q-1.203125 0.375 -2.796875 0.375l-0.984375 0l0 -1.390625l1.09375 0q1.1875 0 2.03125 -0.234375q0.859375 -0.234375 1.421875 -0.6875q0.578125 -0.46875 0.875 -1.125q0.3125 -0.65625 0.375 -1.515625l0.046875 -0.359375q-0.578125 0.328125 -1.328125 0.53125q-0.75 0.203125 -1.625 0.203125q-0.890625 0 -1.578125 -0.25q-0.6875 -0.265625 -1.140625 -0.734375q-0.453125 -0.484375 -0.6875 -1.125q-0.21875 -0.65625 -0.21875 -1.421875q0 -0.84375 0.296875 -1.5625q0.3125 -0.71875 0.84375 -1.25q0.546875 -0.53125 1.296875 -0.828125q0.765625 -0.3125 1.671875 -0.3125q0.890625 0 1.640625 0.296875q0.75 0.28125 1.296875 0.9375q0.546875 0.640625 0.859375 1.6875q0.3125 1.03125 0.3125 2.515625zm-4.171875 -4.140625q-0.515625 0 -0.953125 0.171875q-0.421875 0.15625 -0.75 0.484375q-0.3125 0.328125 -0.5 0.796875q-0.171875 0.46875 -0.171875 1.09375q0 0.546875 0.125 0.984375q0.140625 0.4375 0.40625 0.75q0.28125 0.296875 0.71875 0.46875q0.4375 0.15625 1.046875 0.15625q0.328125 0 0.6875 -0.0625q0.375 -0.0625 0.703125 -0.171875q0.34375 -0.109375 0.65625 -0.25q0.3125 -0.15625 0.5625 -0.3125q0 -1.171875 -0.1875 -1.953125q-0.171875 -0.796875 -0.5 -1.265625q-0.3125 -0.484375 -0.796875 -0.6875q-0.46875 -0.203125 -1.046875 -0.203125z" fill-rule="nonzero"/><path fill="#000000" fill-opacity="0.0" d="m1.0853019 276.84122l61.13386 0l0 28.881866l-61.13386 0z" fill-rule="evenodd"/><path stroke="#666666" stroke-width="1.0" stroke-linejoin="round" stroke-linecap="butt" d="m1.0853019 276.84122l61.13386 0l0 28.881866l-61.13386 0z" fill-rule="evenodd"/><path fill="#434343" d="m35.711082 298.20215l-7.843748 0l0 -1.421875l3.078125 -3.0625q0.75 -0.75 1.2187481 -1.296875q0.484375 -0.546875 0.75 -0.984375q0.265625 -0.453125 0.34375 -0.859375q0.09375 -0.40625 0.09375 -0.859375q0 -0.4375 -0.125 -0.828125q-0.109375 -0.40625 -0.359375 -0.703125q-0.234375 -0.3125 -0.640625 -0.484375q-0.3906231 -0.171875 -0.9374981 -0.171875q-0.75 0 -1.375 0.34375q-0.609375 0.328125 -1.125 0.875l-0.875 -1.046875q0.671875 -0.71875 1.546875 -1.140625q0.875 -0.421875 2.046875 -0.421875q0.7968731 0 1.4374981 0.234375q0.65625 0.234375 1.125 0.6875q0.484375 0.4375 0.734375 1.09375q0.265625 0.640625 0.265625 1.453125q0 0.671875 -0.1875 1.265625q-0.171875 0.578125 -0.546875 1.15625q-0.375 0.578125 -0.9375 1.203125q-0.546875 0.609375 -1.3125 1.359375l-2.171873 2.09375l5.796873 0l0 1.515625z" fill-rule="nonzero"/><path fill="#000000" fill-opacity="0.0" d="m102.21916 305.72308l61.13385 0l0 28.881897l-61.13385 0z" fill-rule="evenodd"/><path stroke="#666666" stroke-width="1.0" stroke-linejoin="round" stroke-linecap="butt" d="m102.21916 305.72308l61.13385 0l0 28.881897l-61.13385 0z" fill-rule="evenodd"/><path fill="#434343" d="m131.6538 320.45905q0 1.75 -0.421875 3.0q-0.421875 1.25 -1.25 2.0625q-0.8125 0.796875 -2.03125 1.1875q-1.203125 0.375 -2.796875 0.375l-0.984375 0l0 -1.390625l1.09375 0q1.1875 0 2.03125 -0.234375q0.859375 -0.234375 1.421875 -0.6875q0.578125 -0.46875 0.875 -1.125q0.3125 -0.65625 0.375 -1.515625l0.046875 -0.359375q-0.578125 0.328125 -1.328125 0.53125q-0.75 0.203125 -1.625 0.203125q-0.890625 0 -1.578125 -0.25q-0.6875 -0.265625 -1.140625 -0.734375q-0.453125 -0.484375 -0.6875 -1.125q-0.21875 -0.65625 -0.21875 -1.421875q0 -0.84375 0.296875 -1.5625q0.3125 -0.71875 0.84375 -1.25q0.546875 -0.53125 1.296875 -0.828125q0.765625 -0.3125 1.671875 -0.3125q0.890625 0 1.640625 0.296875q0.75 0.28125 1.296875 0.9375q0.546875 0.640625 0.859375 1.6875q0.3125 1.03125 0.3125 2.515625zm-4.171875 -4.140625q-0.515625 0 -0.953125 0.171875q-0.421875 0.15625 -0.75 0.484375q-0.3125 0.328125 -0.5 0.796875q-0.171875 0.46875 -0.171875 1.09375q0 0.546875 0.125 0.984375q0.140625 0.4375 0.40625 0.75q0.28125 0.296875 0.71875 0.46875q0.4375 0.15625 1.046875 0.15625q0.328125 0 0.6875 -0.0625q0.375 -0.0625 0.703125 -0.171875q0.34375 -0.109375 0.65625 -0.25q0.3125 -0.15625 0.5625 -0.3125q0 -1.171875 -0.1875 -1.953125q-0.171875 -0.796875 -0.5 -1.265625q-0.3125 -0.484375 -0.796875 -0.6875q-0.46875 -0.203125 -1.046875 -0.203125zm14.257294 7.15625q0 0.78125 -0.328125 1.46875q-0.3125 0.6875 -0.953125 1.203125q-0.625 0.515625 -1.59375 0.8125q-0.96875 0.28125 -2.25 0.28125q-0.71875 0 -1.28125 -0.046875q-0.5625 -0.03125 -1.046875 -0.109375l0 -1.421875q0.5625 0.09375 1.1875 0.15625q0.625 0.046875 1.28125 0.046875q0.890625 0 1.515625 -0.15625q0.640625 -0.15625 1.046875 -0.453125q0.40625 -0.296875 0.578125 -0.71875q0.1875 -0.4375 0.1875 -0.984375q0 -0.484375 -0.21875 -0.84375q-0.21875 -0.375 -0.625 -0.609375q-0.390625 -0.25 -0.9375 -0.375q-0.546875 -0.125 -1.203125 -0.125l-1.359375 0l0 -1.296875l1.375 0q0.53125 0 0.96875 -0.140625q0.453125 -0.140625 0.765625 -0.40625q0.3125 -0.265625 0.484375 -0.65625q0.171875 -0.390625 0.171875 -0.875q0 -0.953125 -0.59375 -1.390625q-0.578125 -0.4375 -1.703125 -0.4375q-0.609375 0 -1.25 0.125q-0.625 0.109375 -1.359375 0.34375l0 -1.390625q0.3125 -0.109375 0.65625 -0.1875q0.359375 -0.09375 0.703125 -0.140625q0.359375 -0.0625 0.703125 -0.09375q0.34375 -0.03125 0.65625 -0.03125q0.953125 0 1.671875 0.203125q0.71875 0.203125 1.203125 0.59375q0.484375 0.375 0.71875 0.921875q0.25 0.546875 0.25 1.21875q0 1.03125 -0.53125 1.71875q-0.515625 0.6875 -1.421875 1.109375q0.46875 0.0625 0.90625 0.28125q0.453125 0.21875 0.8125 0.5625q0.375 0.34375 0.59375 0.8125q0.21875 0.453125 0.21875 1.03125z" fill-rule="nonzero"/><path fill="#000000" fill-opacity="0.0" d="m1.0853019 305.72308l61.13386 0l0 28.881897l-61.13386 0z" fill-rule="evenodd"/><path stroke="#666666" stroke-width="1.0" stroke-linejoin="round" stroke-linecap="butt" d="m1.0853019 305.72308l61.13386 0l0 28.881897l-61.13386 0z" fill-rule="evenodd"/><path fill="#434343" d="m35.476707 323.47467q0 0.78125 -0.328125 1.46875q-0.3125 0.6875 -0.953125 1.203125q-0.625 0.515625 -1.59375 0.8125q-0.9687481 0.28125 -2.249998 0.28125q-0.71875 0 -1.28125 -0.046875q-0.5625 -0.03125 -1.046875 -0.109375l0 -1.421875q0.5625 0.09375 1.1875 0.15625q0.625 0.046875 1.28125 0.046875q0.890625 0 1.5156231 -0.15625q0.640625 -0.15625 1.046875 -0.453125q0.40625 -0.296875 0.578125 -0.71875q0.1875 -0.4375 0.1875 -0.984375q0 -0.484375 -0.21875 -0.84375q-0.21875 -0.375 -0.625 -0.609375q-0.390625 -0.25 -0.9375 -0.375q-0.5468731 -0.125 -1.2031231 -0.125l-1.359375 0l0 -1.296875l1.375 0q0.53125 0 0.96875 -0.140625q0.4531231 -0.140625 0.7656231 -0.40625q0.3125 -0.265625 0.484375 -0.65625q0.171875 -0.390625 0.171875 -0.875q0 -0.953125 -0.59375 -1.390625q-0.578125 -0.4375 -1.7031231 -0.4375q-0.609375 0 -1.25 0.125q-0.625 0.109375 -1.359375 0.34375l0 -1.390625q0.3125 -0.109375 0.65625 -0.1875q0.359375 -0.09375 0.703125 -0.140625q0.359375 -0.0625 0.703125 -0.09375q0.34375 -0.03125 0.65625 -0.03125q0.9531231 0 1.6718731 0.203125q0.71875 0.203125 1.203125 0.59375q0.484375 0.375 0.71875 0.921875q0.25 0.546875 0.25 1.21875q0 1.03125 -0.53125 1.71875q-0.515625 0.6875 -1.421875 1.109375q0.46875 0.0625 0.90625 0.28125q0.453125 0.21875 0.8125 0.5625q0.375 0.34375 0.59375 0.8125q0.21875 0.453125 0.21875 1.03125z" fill-rule="nonzero"/><path fill="#000000" fill-opacity="0.0" d="m102.21916 334.60498l61.13385 0l0 28.881897l-61.13385 0z" fill-rule="evenodd"/><path stroke="#666666" stroke-width="1.0" stroke-linejoin="round" stroke-linecap="butt" d="m102.21916 334.60498l61.13385 0l0 28.881897l-61.13385 0z" fill-rule="evenodd"/><path fill="#434343" d="m126.47827 355.96594l-7.46875 0l0 -1.46875l3.0625 0l0 -8.703125l-2.859375 1.546875l-0.578125 -1.34375l3.78125 -1.984375l1.40625 0l0 10.484375l2.65625 0l0 1.46875zm10.366669 0l-7.84375 0l0 -1.421875l3.078125 -3.0625q0.75 -0.75 1.21875 -1.296875q0.484375 -0.546875 0.75 -0.984375q0.265625 -0.453125 0.34375 -0.859375q0.09375 -0.40625 0.09375 -0.859375q0 -0.4375 -0.125 -0.828125q-0.109375 -0.40625 -0.359375 -0.703125q-0.234375 -0.3125 -0.640625 -0.484375q-0.390625 -0.171875 -0.9375 -0.171875q-0.75 0 -1.375 0.34375q-0.609375 0.328125 -1.125 0.875l-0.875 -1.046875q0.671875 -0.71875 1.546875 -1.140625q0.875 -0.421875 2.046875 -0.421875q0.796875 0 1.4375 0.234375q0.65625 0.234375 1.125 0.6875q0.484375 0.4375 0.734375 1.09375q0.265625 0.640625 0.265625 1.453125q0 0.671875 -0.1875 1.265625q-0.171875 0.578125 -0.546875 1.15625q-0.375 0.578125 -0.9375 1.203125q-0.546875 0.609375 -1.3125 1.359375l-2.171875 2.09375l5.796875 0l0 1.515625zm10.257294 0l-7.84375 0l0 -1.421875l3.078125 -3.0625q0.75 -0.75 1.21875 -1.296875q0.484375 -0.546875 0.75 -0.984375q0.265625 -0.453125 0.34375 -0.859375q0.09375 -0.40625 0.09375 -0.859375q0 -0.4375 -0.125 -0.828125q-0.109375 -0.40625 -0.359375 -0.703125q-0.234375 -0.3125 -0.640625 -0.484375q-0.390625 -0.171875 -0.9375 -0.171875q-0.75 0 -1.375 0.34375q-0.609375 0.328125 -1.125 0.875l-0.875 -1.046875q0.671875 -0.71875 1.546875 -1.140625q0.875 -0.421875 2.046875 -0.421875q0.796875 0 1.4375 0.234375q0.65625 0.234375 1.125 0.6875q0.484375 0.4375 0.734375 1.09375q0.265625 0.640625 0.265625 1.453125q0 0.671875 -0.1875 1.265625q-0.171875 0.578125 -0.546875 1.15625q-0.375 0.578125 -0.9375 1.203125q-0.546875 0.609375 -1.3125 1.359375l-2.171875 2.09375l5.796875 0l0 1.515625z" fill-rule="nonzero"/><path fill="#000000" fill-opacity="0.0" d="m1.0853019 334.60498l61.13386 0l0 28.881897l-61.13386 0z" fill-rule="evenodd"/><path stroke="#666666" stroke-width="1.0" stroke-linejoin="round" stroke-linecap="butt" d="m1.0853019 334.60498l61.13386 0l0 28.881897l-61.13386 0z" fill-rule="evenodd"/><path fill="#434343" d="m36.304832 353.34094l-2.03125 0l0 2.625l-1.625 0l0 -2.625l-5.734373 0l0 -1.40625l5.078125 -7.875l2.281248 0l0 7.875l2.03125 0l0 1.40625zm-3.65625 -7.75l-4.140623 6.34375l4.140623 0l0 -6.34375z" fill-rule="nonzero"/><path fill="#000000" fill-opacity="0.0" d="m330.3924 217.80446l61.13385 0l0 28.881897l-61.13385 0z" fill-rule="evenodd"/><path stroke="#666666" stroke-width="1.0" stroke-linejoin="round" stroke-linecap="butt" d="m330.3924 217.80446l61.13385 0l0 28.881897l-61.13385 0z" fill-rule="evenodd"/><path fill="#434343" d="m365.28378 233.21228q0 1.375 -0.28125 2.5q-0.265625 1.125 -0.828125 1.9375q-0.546875 0.796875 -1.375 1.234375q-0.8125 0.4375 -1.9375 0.4375q-0.953125 0 -1.734375 -0.359375q-0.78125 -0.359375 -1.34375 -1.09375q-0.546875 -0.75 -0.859375 -1.90625q-0.296875 -1.15625 -0.296875 -2.75q0 -1.359375 0.28125 -2.484375q0.28125 -1.140625 0.828125 -1.9375q0.546875 -0.8125 1.375 -1.25q0.84375 -0.4375 1.9375 -0.4375q0.953125 0 1.734375 0.359375q0.796875 0.359375 1.34375 1.109375q0.5625 0.75 0.859375 1.90625q0.296875 1.15625 0.296875 2.734375zm-1.59375 0.0625q0 -0.3125 -0.03125 -0.609375q-0.015625 -0.3125 -0.046875 -0.609375l-5.046875 3.75q0.140625 0.46875 0.34375 0.875q0.21875 0.390625 0.515625 0.6875q0.296875 0.28125 0.671875 0.453125q0.375 0.15625 0.859375 0.15625q0.625 0 1.125 -0.296875q0.515625 -0.3125 0.859375 -0.90625q0.359375 -0.59375 0.546875 -1.46875q0.203125 -0.875 0.203125 -2.03125zm-5.453125 -0.109375q0 0.28125 0 0.5625q0 0.28125 0.03125 0.546875l5.046875 -3.734375q-0.140625 -0.453125 -0.359375 -0.828125q-0.203125 -0.390625 -0.5 -0.671875q-0.28125 -0.28125 -0.65625 -0.4375q-0.375 -0.15625 -0.84375 -0.15625q-0.609375 0 -1.125 0.3125q-0.5 0.296875 -0.859375 0.890625q-0.359375 0.59375 -0.546875 1.484375q-0.1875 0.875 -0.1875 2.03125z" fill-rule="nonzero"/><path fill="#000000" fill-opacity="0.0" d="m391.52625 217.80446l61.13385 0l0 28.881897l-61.13385 0z" fill-rule="evenodd"/><path stroke="#666666" stroke-width="1.0" stroke-linejoin="round" stroke-linecap="butt" d="m391.52625 217.80446l61.13385 0l0 28.881897l-61.13385 0z" fill-rule="evenodd"/><path fill="#434343" d="m421.414 227.77478q-1.25 -0.265625 -2.15625 -0.265625q-2.140625 0 -2.140625 2.234375l0 1.609375l4.015625 0l0 1.3125l-4.015625 0l0 6.5l-1.609375 0l0 -6.5l-2.9375 0l0 -1.3125l2.9375 0l0 -1.515625q0 -3.65625 3.8125 -3.65625q0.9375 0 2.09375 0.21875l0 1.375zm-9.578125 2.25l0 0zm11.257294 4.765625q0 -1.171875 0.3125 -2.078125q0.3125 -0.90625 0.90625 -1.53125q0.59375 -0.625 1.40625 -0.9375q0.828125 -0.328125 1.84375 -0.328125q0.4375 0 0.859375 0.0625q0.421875 0.046875 0.828125 0.15625l0 -3.84375l1.59375 0l0 12.875l-1.421875 0l-0.046875 -1.734375q-0.671875 0.96875 -1.453125 1.4375q-0.765625 0.453125 -1.671875 0.453125q-0.78125 0 -1.375 -0.3125q-0.59375 -0.328125 -1.0 -0.921875q-0.390625 -0.609375 -0.59375 -1.4375q-0.1875 -0.84375 -0.1875 -1.859375zm1.609375 -0.109375q0 1.65625 0.484375 2.484375q0.5 0.8125 1.390625 0.8125q0.59375 0 1.265625 -0.53125q0.671875 -0.546875 1.40625 -1.609375l0 -4.234375q-0.390625 -0.1875 -0.859375 -0.28125q-0.46875 -0.09375 -0.9375 -0.09375q-1.296875 0 -2.03125 0.84375q-0.71875 0.828125 -0.71875 2.609375z" fill-rule="nonzero"/><path fill="#000000" fill-opacity="0.0" d="m330.3924 246.68636l61.13385 0l0 28.881882l-61.13385 0z" fill-rule="evenodd"/><path stroke="#666666" stroke-width="1.0" stroke-linejoin="round" stroke-linecap="butt" d="m330.3924 246.68636l61.13385 0l0 28.881882l-61.13385 0z" fill-rule="evenodd"/><path fill="#434343" d="m364.90878 268.0473l-7.46875 0l0 -1.46875l3.0625 0l0 -8.703125l-2.859375 1.546875l-0.578125 -1.34375l3.78125 -1.984375l1.40625 0l0 10.484375l2.65625 0l0 1.46875z" fill-rule="nonzero"/><path fill="#000000" fill-opacity="0.0" d="m391.52625 246.68636l61.13385 0l0 28.881882l-61.13385 0z" fill-rule="evenodd"/><path stroke="#666666" stroke-width="1.0" stroke-linejoin="round" stroke-linecap="butt" d="m391.52625 246.68636l61.13385 0l0 28.881882l-61.13385 0z" fill-rule="evenodd"/><path fill="#434343" d="m420.39838 267.70355q-0.625 0.25 -1.28125 0.359375q-0.640625 0.109375 -1.328125 0.109375q-2.171875 0 -3.34375 -1.171875q-1.171875 -1.171875 -1.171875 -3.4375q0 -1.078125 0.328125 -1.953125q0.34375 -0.890625 0.953125 -1.515625q0.609375 -0.640625 1.453125 -0.984375q0.859375 -0.34375 1.875 -0.34375q0.71875 0 1.328125 0.109375q0.625 0.09375 1.1875 0.328125l0 1.515625q-0.59375 -0.3125 -1.21875 -0.453125q-0.609375 -0.140625 -1.265625 -0.140625q-0.609375 0 -1.15625 0.234375q-0.53125 0.234375 -0.9375 0.671875q-0.40625 0.421875 -0.65625 1.0625q-0.234375 0.625 -0.234375 1.421875q0 1.65625 0.796875 2.484375q0.8125 0.8125 2.25 0.8125q0.640625 0 1.25 -0.140625q0.609375 -0.140625 1.171875 -0.4375l0 1.46875zm2.6947937 -4.03125q0 -1.171875 0.3125 -2.078125q0.3125 -0.90625 0.90625 -1.53125q0.59375 -0.625 1.40625 -0.9375q0.828125 -0.328125 1.84375 -0.328125q0.4375 0 0.859375 0.0625q0.421875 0.046875 0.828125 0.15625l0 -3.8437653l1.59375 0l0 12.875015l-1.421875 0l-0.046875 -1.734375q-0.671875 0.96875 -1.453125 1.4375q-0.765625 0.453125 -1.671875 0.453125q-0.78125 0 -1.375 -0.3125q-0.59375 -0.328125 -1.0 -0.921875q-0.390625 -0.609375 -0.59375 -1.4375q-0.1875 -0.84375 -0.1875 -1.859375zm1.609375 -0.109375q0 1.65625 0.484375 2.484375q0.5 0.8125 1.390625 0.8125q0.59375 0 1.265625 -0.53125q0.671875 -0.546875 1.40625 -1.609375l0 -4.234375q-0.390625 -0.1875 -0.859375 -0.28125q-0.46875 -0.09375 -0.9375 -0.09375q-1.296875 0 -2.03125 0.84375q-0.71875 0.828125 -0.71875 2.609375z" fill-rule="nonzero"/><path fill="#000000" fill-opacity="0.0" d="m330.3924 275.56824l61.13385 0l0 28.881897l-61.13385 0z" fill-rule="evenodd"/><path stroke="#666666" stroke-width="1.0" stroke-linejoin="round" stroke-linecap="butt" d="m330.3924 275.56824l61.13385 0l0 28.881897l-61.13385 0z" fill-rule="evenodd"/><path fill="#434343" d="m365.01816 296.9292l-7.84375 0l0 -1.421875l3.078125 -3.0625q0.75 -0.75 1.21875 -1.296875q0.484375 -0.546875 0.75 -0.984375q0.265625 -0.453125 0.34375 -0.859375q0.09375 -0.40625 0.09375 -0.859375q0 -0.4375 -0.125 -0.828125q-0.109375 -0.40625 -0.359375 -0.703125q-0.234375 -0.3125 -0.640625 -0.484375q-0.390625 -0.171875 -0.9375 -0.171875q-0.75 0 -1.375 0.34375q-0.609375 0.328125 -1.125 0.875l-0.875 -1.046875q0.671875 -0.71875 1.546875 -1.140625q0.875 -0.421875 2.046875 -0.421875q0.796875 0 1.4375 0.234375q0.65625 0.234375 1.125 0.6875q0.484375 0.4375 0.734375 1.09375q0.265625 0.640625 0.265625 1.453125q0 0.671875 -0.1875 1.265625q-0.171875 0.578125 -0.546875 1.15625q-0.375 0.578125 -0.9375 1.203125q-0.546875 0.609375 -1.3125 1.359375l-2.171875 2.09375l5.796875 0l0 1.515625z" fill-rule="nonzero"/><path fill="#000000" fill-opacity="0.0" d="m391.52625 275.56824l61.13385 0l0 28.881897l-61.13385 0z" fill-rule="evenodd"/><path stroke="#666666" stroke-width="1.0" stroke-linejoin="round" stroke-linecap="butt" d="m391.52625 275.56824l61.13385 0l0 28.881897l-61.13385 0z" fill-rule="evenodd"/><path fill="#434343" d="m421.289 290.97607q0 1.375 -0.28125 2.5q-0.265625 1.125 -0.828125 1.9375q-0.546875 0.796875 -1.375 1.234375q-0.8125 0.4375 -1.9375 0.4375q-0.953125 0 -1.734375 -0.359375q-0.78125 -0.359375 -1.34375 -1.09375q-0.546875 -0.75 -0.859375 -1.90625q-0.296875 -1.15625 -0.296875 -2.75q0 -1.359375 0.28125 -2.484375q0.28125 -1.140625 0.828125 -1.9375q0.546875 -0.8125 1.375 -1.25q0.84375 -0.4375 1.9375 -0.4375q0.953125 0 1.734375 0.359375q0.796875 0.359375 1.34375 1.109375q0.5625 0.75 0.859375 1.90625q0.296875 1.15625 0.296875 2.734375zm-1.59375 0.0625q0 -0.3125 -0.03125 -0.609375q-0.015625 -0.3125 -0.046875 -0.609375l-5.046875 3.75q0.140625 0.46875 0.34375 0.875q0.21875 0.390625 0.515625 0.6875q0.296875 0.28125 0.671875 0.453125q0.375 0.15625 0.859375 0.15625q0.625 0 1.125 -0.296875q0.515625 -0.3125 0.859375 -0.90625q0.359375 -0.59375 0.546875 -1.46875q0.203125 -0.875 0.203125 -2.03125zm-5.453125 -0.109375q0 0.28125 0 0.5625q0 0.28125 0.03125 0.546875l5.046875 -3.734375q-0.140625 -0.453125 -0.359375 -0.828125q-0.203125 -0.390625 -0.5 -0.671875q-0.28125 -0.28125 -0.65625 -0.4375q-0.375 -0.15625 -0.84375 -0.15625q-0.609375 0 -1.125 0.3125q-0.5 0.296875 -0.859375 0.890625q-0.359375 0.59375 -0.546875 1.484375q-0.1875 0.875 -0.1875 2.03125zm17.038544 3.015625q0 0.75 -0.3125 1.34375q-0.3125 0.578125 -0.875 0.984375q-0.546875 0.40625 -1.3125 0.609375q-0.75 0.203125 -1.625 0.203125q-0.984375 0 -1.734375 -0.203125q-0.734375 -0.21875 -1.234375 -0.609375q-0.5 -0.40625 -0.765625 -0.9375q-0.25 -0.53125 -0.25 -1.1875q0 -1.09375 0.609375 -1.875q0.625 -0.796875 1.890625 -1.453125q-1.171875 -0.59375 -1.703125 -1.3125q-0.53125 -0.71875 -0.53125 -1.65625q0 -0.578125 0.234375 -1.109375q0.234375 -0.546875 0.703125 -0.953125q0.484375 -0.421875 1.203125 -0.671875q0.71875 -0.25 1.703125 -0.25q0.921875 0 1.609375 0.203125q0.703125 0.1875 1.171875 0.546875q0.46875 0.359375 0.703125 0.890625q0.25 0.515625 0.25 1.140625q0 1.046875 -0.578125 1.78125q-0.578125 0.71875 -1.640625 1.265625q0.515625 0.265625 0.96875 0.59375q0.46875 0.3125 0.796875 0.703125q0.34375 0.390625 0.53125 0.875q0.1875 0.484375 0.1875 1.078125zm-1.890625 -6.15625q0 -0.8125 -0.578125 -1.203125q-0.5625 -0.40625 -1.59375 -0.40625q-1.015625 0 -1.59375 0.390625q-0.5625 0.390625 -0.5625 1.171875q0 0.359375 0.140625 0.671875q0.140625 0.296875 0.421875 0.5625q0.28125 0.25 0.703125 0.515625q0.4375 0.25 1.03125 0.515625q1.03125 -0.484375 1.53125 -1.0q0.5 -0.53125 0.5 -1.21875zm0.15625 6.265625q0 -0.328125 -0.109375 -0.640625q-0.109375 -0.328125 -0.390625 -0.640625q-0.28125 -0.3125 -0.75 -0.609375q-0.46875 -0.3125 -1.203125 -0.640625q-0.625 0.296875 -1.046875 0.59375q-0.421875 0.296875 -0.6875 0.609375q-0.25 0.296875 -0.359375 0.625q-0.109375 0.328125 -0.109375 0.6875q0 0.40625 0.171875 0.734375q0.1875 0.3125 0.484375 0.53125q0.3125 0.21875 0.734375 0.328125q0.4375 0.109375 0.9375 0.109375q0.484375 0 0.90625 -0.09375q0.4375 -0.109375 0.75 -0.3125q0.3125 -0.203125 0.484375 -0.515625q0.1875 -0.328125 0.1875 -0.765625z" fill-rule="nonzero"/><path fill="#000000" fill-opacity="0.0" d="m330.3924 304.45013l61.13385 0l0 28.881897l-61.13385 0z" fill-rule="evenodd"/><path stroke="#666666" stroke-width="1.0" stroke-linejoin="round" stroke-linecap="butt" d="m330.3924 304.45013l61.13385 0l0 28.881897l-61.13385 0z" fill-rule="evenodd"/><path fill="#434343" d="m364.78378 322.2017q0 0.78125 -0.328125 1.46875q-0.3125 0.6875 -0.953125 1.203125q-0.625 0.515625 -1.59375 0.8125q-0.96875 0.28125 -2.25 0.28125q-0.71875 0 -1.28125 -0.046875q-0.5625 -0.03125 -1.046875 -0.109375l0 -1.421875q0.5625 0.09375 1.1875 0.15625q0.625 0.046875 1.28125 0.046875q0.890625 0 1.515625 -0.15625q0.640625 -0.15625 1.046875 -0.453125q0.40625 -0.296875 0.578125 -0.71875q0.1875 -0.4375 0.1875 -0.984375q0 -0.484375 -0.21875 -0.84375q-0.21875 -0.375 -0.625 -0.609375q-0.390625 -0.25 -0.9375 -0.375q-0.546875 -0.125 -1.203125 -0.125l-1.359375 0l0 -1.296875l1.375 0q0.53125 0 0.96875 -0.140625q0.453125 -0.140625 0.765625 -0.40625q0.3125 -0.265625 0.484375 -0.65625q0.171875 -0.390625 0.171875 -0.875q0 -0.953125 -0.59375 -1.390625q-0.578125 -0.4375 -1.703125 -0.4375q-0.609375 0 -1.25 0.125q-0.625 0.109375 -1.359375 0.34375l0 -1.390625q0.3125 -0.109375 0.65625 -0.1875q0.359375 -0.09375 0.703125 -0.140625q0.359375 -0.0625 0.703125 -0.09375q0.34375 -0.03125 0.65625 -0.03125q0.953125 0 1.671875 0.203125q0.71875 0.203125 1.203125 0.59375q0.484375 0.375 0.71875 0.921875q0.25 0.546875 0.25 1.21875q0 1.03125 -0.53125 1.71875q-0.515625 0.6875 -1.421875 1.109375q0.46875 0.0625 0.90625 0.28125q0.453125 0.21875 0.8125 0.5625q0.375 0.34375 0.59375 0.8125q0.21875 0.453125 0.21875 1.03125z" fill-rule="nonzero"/><path fill="#000000" fill-opacity="0.0" d="m391.52625 304.45013l61.13385 0l0 28.881897l-61.13385 0z" fill-rule="evenodd"/><path stroke="#666666" stroke-width="1.0" stroke-linejoin="round" stroke-linecap="butt" d="m391.52625 304.45013l61.13385 0l0 28.881897l-61.13385 0z" fill-rule="evenodd"/><path fill="#434343" d="m421.02338 322.8267q0 0.75 -0.3125 1.34375q-0.3125 0.578125 -0.875 0.984375q-0.546875 0.40625 -1.3125 0.609375q-0.75 0.203125 -1.625 0.203125q-0.984375 0 -1.734375 -0.203125q-0.734375 -0.21875 -1.234375 -0.609375q-0.5 -0.40625 -0.765625 -0.9375q-0.25 -0.53125 -0.25 -1.1875q0 -1.09375 0.609375 -1.875q0.625 -0.796875 1.890625 -1.453125q-1.171875 -0.59375 -1.703125 -1.3125q-0.53125 -0.71875 -0.53125 -1.65625q0 -0.578125 0.234375 -1.109375q0.234375 -0.546875 0.703125 -0.953125q0.484375 -0.421875 1.203125 -0.671875q0.71875 -0.25 1.703125 -0.25q0.921875 0 1.609375 0.203125q0.703125 0.1875 1.171875 0.546875q0.46875 0.359375 0.703125 0.890625q0.25 0.515625 0.25 1.140625q0 1.046875 -0.578125 1.78125q-0.578125 0.71875 -1.640625 1.265625q0.515625 0.265625 0.96875 0.59375q0.46875 0.3125 0.796875 0.703125q0.34375 0.390625 0.53125 0.875q0.1875 0.484375 0.1875 1.078125zm-1.890625 -6.15625q0 -0.8125 -0.578125 -1.203125q-0.5625 -0.40625 -1.59375 -0.40625q-1.015625 0 -1.59375 0.390625q-0.5625 0.390625 -0.5625 1.171875q0 0.359375 0.140625 0.671875q0.140625 0.296875 0.421875 0.5625q0.28125 0.25 0.703125 0.515625q0.4375 0.25 1.03125 0.515625q1.03125 -0.484375 1.53125 -1.0q0.5 -0.53125 0.5 -1.21875zm0.15625 6.265625q0 -0.328125 -0.109375 -0.640625q-0.109375 -0.328125 -0.390625 -0.640625q-0.28125 -0.3125 -0.75 -0.609375q-0.46875 -0.3125 -1.203125 -0.640625q-0.625 0.296875 -1.046875 0.59375q-0.421875 0.296875 -0.6875 0.609375q-0.25 0.296875 -0.359375 0.625q-0.109375 0.328125 -0.109375 0.6875q0 0.40625 0.171875 0.734375q0.1875 0.3125 0.484375 0.53125q0.3125 0.21875 0.734375 0.328125q0.4375 0.109375 0.9375 0.109375q0.484375 0 0.90625 -0.09375q0.4375 -0.109375 0.75 -0.3125q0.3125 -0.203125 0.484375 -0.515625q0.1875 -0.328125 0.1875 -0.765625zm3.8041687 -1.5q0 -1.171875 0.3125 -2.078125q0.3125 -0.90625 0.90625 -1.53125q0.59375 -0.625 1.40625 -0.9375q0.828125 -0.328125 1.84375 -0.328125q0.4375 0 0.859375 0.0625q0.421875 0.046875 0.828125 0.15625l0 -3.84375l1.59375 0l0 12.875l-1.421875 0l-0.046875 -1.734375q-0.671875 0.96875 -1.453125 1.4375q-0.765625 0.453125 -1.671875 0.453125q-0.78125 0 -1.375 -0.3125q-0.59375 -0.328125 -1.0 -0.921875q-0.390625 -0.609375 -0.59375 -1.4375q-0.1875 -0.84375 -0.1875 -1.859375zm1.609375 -0.109375q0 1.65625 0.484375 2.484375q0.5 0.8125 1.390625 0.8125q0.59375 0 1.265625 -0.53125q0.671875 -0.546875 1.40625 -1.609375l0 -4.234375q-0.390625 -0.1875 -0.859375 -0.28125q-0.46875 -0.09375 -0.9375 -0.09375q-1.296875 0 -2.03125 0.84375q-0.71875 0.828125 -0.71875 2.609375z" fill-rule="nonzero"/><path fill="#000000" fill-opacity="0.0" d="m330.3924 333.33203l61.13385 0l0 28.881866l-61.13385 0z" fill-rule="evenodd"/><path stroke="#666666" stroke-width="1.0" stroke-linejoin="round" stroke-linecap="butt" d="m330.3924 333.33203l61.13385 0l0 28.881866l-61.13385 0z" fill-rule="evenodd"/><path fill="#434343" d="m365.6119 352.06796l-2.03125 0l0 2.625l-1.625 0l0 -2.625l-5.734375 0l0 -1.40625l5.078125 -7.875l2.28125 0l0 7.875l2.03125 0l0 1.40625zm-3.65625 -7.75l-4.140625 6.34375l4.140625 0l0 -6.34375z" fill-rule="nonzero"/><path fill="#000000" fill-opacity="0.0" d="m391.52625 333.33203l61.13385 0l0 28.881866l-61.13385 0z" fill-rule="evenodd"/><path stroke="#666666" stroke-width="1.0" stroke-linejoin="round" stroke-linecap="butt" d="m391.52625 333.33203l61.13385 0l0 28.881866l-61.13385 0z" fill-rule="evenodd"/><path fill="#434343" d="m421.11713 349.9586q0 1.140625 -0.328125 2.046875q-0.3125 0.890625 -0.890625 1.515625q-0.578125 0.609375 -1.40625 0.953125q-0.828125 0.328125 -1.859375 0.328125q-0.8125 0 -1.671875 -0.15625q-0.84375 -0.15625 -1.671875 -0.484375l0 -12.34375l1.59375 0l0 3.546875l-0.078125 1.6875q0.6875 -0.90625 1.453125 -1.28125q0.78125 -0.390625 1.6875 -0.390625q0.78125 0 1.375 0.328125q0.59375 0.328125 0.984375 0.9375q0.40625 0.59375 0.609375 1.4375q0.203125 0.828125 0.203125 1.875zm-1.625 0.0625q0 -0.71875 -0.109375 -1.3125q-0.109375 -0.609375 -0.34375 -1.03125q-0.21875 -0.421875 -0.578125 -0.65625q-0.34375 -0.25 -0.84375 -0.25q-0.296875 0 -0.609375 0.09375q-0.3125 0.09375 -0.640625 0.328125q-0.328125 0.21875 -0.703125 0.59375q-0.359375 0.359375 -0.78125 0.90625l0 4.4375q0.453125 0.171875 0.9375 0.28125q0.484375 0.109375 0.921875 0.109375q0.546875 0 1.046875 -0.171875q0.5 -0.171875 0.875 -0.578125q0.375 -0.40625 0.59375 -1.078125q0.234375 -0.671875 0.234375 -1.671875zm9.929169 4.671875l-0.03125 -1.234375q-0.75 0.75 -1.515625 1.078125q-0.765625 0.3125 -1.625 0.3125q-0.78125 0 -1.34375 -0.1875q-0.546875 -0.203125 -0.90625 -0.546875q-0.359375 -0.359375 -0.53125 -0.828125q-0.15625 -0.484375 -0.15625 -1.03125q0 -1.375 1.015625 -2.15625q1.03125 -0.78125 3.03125 -0.78125l1.890625 0l0 -0.796875q0 -0.8125 -0.515625 -1.296875q-0.515625 -0.5 -1.578125 -0.5q-0.78125 0 -1.53125 0.1875q-0.75 0.171875 -1.546875 0.484375l0 -1.4375q0.296875 -0.109375 0.65625 -0.203125q0.375 -0.109375 0.78125 -0.1875q0.40625 -0.078125 0.859375 -0.125q0.453125 -0.0625 0.90625 -0.0625q0.828125 0 1.484375 0.1875q0.671875 0.171875 1.125 0.546875q0.46875 0.375 0.703125 0.953125q0.25 0.5625 0.25 1.328125l0 6.296875l-1.421875 0zm-0.171875 -4.15625l-2.015625 0q-0.578125 0 -1.015625 0.125q-0.421875 0.109375 -0.703125 0.328125q-0.265625 0.21875 -0.40625 0.53125q-0.125 0.296875 -0.125 0.671875q0 0.265625 0.078125 0.515625q0.078125 0.234375 0.265625 0.421875q0.1875 0.1875 0.46875 0.296875q0.296875 0.109375 0.71875 0.109375q0.546875 0 1.25 -0.328125q0.703125 -0.34375 1.484375 -1.0625l0 -1.609375z" fill-rule="nonzero"/><path fill="#000000" fill-opacity="0.0" d="m46.93307 369.78873l61.13386 0l0 38.771637l-61.13386 0z" fill-rule="evenodd"/><path fill="#000000" d="m64.70703 388.85184l-1.390625 1.453125l0 3.84375l-1.5 0l0 -11.375l1.5 0l0 5.625l5.046875 -5.625l1.8125 0l-4.46875 5.015625l4.828125 6.359375l-1.796875 0l-4.03125 -5.296875zm10.21875 5.453125q-1.71875 0 -2.796875 -1.125q-1.078125 -1.140625 -1.078125 -3.03125l0 -0.265625q0 -1.25 0.46875 -2.234375q0.484375 -1.0 1.34375 -1.546875q0.875 -0.5625 1.875 -0.5625q1.65625 0 2.5625 1.09375q0.921875 1.078125 0.921875 3.09375l0 0.609375l-5.734375 0q0.03125 1.25 0.734375 2.015625q0.703125 0.765625 1.78125 0.765625q0.765625 0 1.296875 -0.3125q0.53125 -0.3125 0.921875 -0.828125l0.890625 0.6875q-1.0625 1.640625 -3.1875 1.640625zm-0.1875 -7.578125q-0.875 0 -1.46875 0.640625q-0.59375 0.625 -0.734375 1.78125l4.234375 0l0 -0.109375q-0.0625 -1.109375 -0.59375 -1.703125q-0.53125 -0.609375 -1.4375 -0.609375zm7.8125 5.296875l1.96875 -6.328125l1.546875 0l-3.390625 9.765625q-0.796875 2.109375 -2.515625 2.109375l-0.265625 -0.03125l-0.546875 -0.09375l0 -1.171875l0.390625 0.03125q0.734375 0 1.140625 -0.296875q0.421875 -0.296875 0.6875 -1.09375l0.3125 -0.859375l-3.015625 -8.359375l1.578125 0l2.109375 6.328125zm9.7265625 -0.125q0 -0.578125 -0.4375 -0.90625q-0.4375 -0.328125 -1.546875 -0.5625q-1.09375 -0.234375 -1.734375 -0.5625q-0.640625 -0.328125 -0.953125 -0.78125q-0.3125 -0.453125 -0.3125 -1.078125q0 -1.03125 0.875 -1.75q0.890625 -0.71875 2.25 -0.71875q1.4375 0 2.328125 0.75q0.90625 0.734375 0.90625 1.890625l-1.453125 0q0 -0.59375 -0.515625 -1.015625q-0.5 -0.4375 -1.265625 -0.4375q-0.78125 0 -1.234375 0.34375q-0.4375 0.34375 -0.4375 0.890625q0 0.53125 0.40625 0.796875q0.421875 0.265625 1.5 0.515625q1.078125 0.234375 1.75 0.578125q0.671875 0.328125 1.0 0.796875q0.328125 0.46875 0.328125 1.15625q0 1.125 -0.90625 1.8125q-0.90625 0.6875 -2.359375 0.6875q-1.015625 0 -1.796875 -0.359375q-0.78125 -0.359375 -1.21875 -1.0q-0.4375 -0.65625 -0.4375 -1.40625l1.4375 0q0.046875 0.734375 0.578125 1.15625q0.546875 0.421875 1.4375 0.421875q0.828125 0 1.3125 -0.328125q0.5 -0.328125 0.5 -0.890625z" fill-rule="nonzero"/><path fill="#000000" fill-opacity="0.0" d="m280.52362 369.78873l76.53543 0l0 38.771637l-76.53543 0z" fill-rule="evenodd"/><path fill="#000000" d="m299.90854 392.1487l3.25 -9.375l1.640625 0l-4.21875 11.375l-1.328125 0l-4.21875 -11.375l1.640625 0l3.234375 9.375zm11.0390625 2.0q-0.125 -0.25 -0.203125 -0.890625q-1.0 1.046875 -2.40625 1.046875q-1.25 0 -2.046875 -0.703125q-0.796875 -0.71875 -0.796875 -1.796875q0 -1.328125 1.0 -2.046875q1.0 -0.734375 2.828125 -0.734375l1.40625 0l0 -0.671875q0 -0.75 -0.453125 -1.203125q-0.453125 -0.453125 -1.34375 -0.453125q-0.765625 0 -1.296875 0.390625q-0.515625 0.390625 -0.515625 0.953125l-1.453125 0q0 -0.640625 0.4375 -1.21875q0.453125 -0.59375 1.21875 -0.9375q0.78125 -0.34375 1.703125 -0.34375q1.453125 0 2.28125 0.734375q0.828125 0.71875 0.859375 2.0l0 3.890625q0 1.171875 0.296875 1.859375l0 0.125l-1.515625 0zm-2.390625 -1.109375q0.671875 0 1.28125 -0.34375q0.609375 -0.359375 0.890625 -0.921875l0 -1.734375l-1.140625 0q-2.65625 0 -2.65625 1.5625q0 0.671875 0.453125 1.0625q0.453125 0.375 1.171875 0.375zm7.453125 1.109375l-1.453125 0l0 -12.0l1.453125 0l0 12.0zm7.5234375 -0.84375q-0.84375 1.0 -2.46875 1.0q-1.359375 0 -2.0625 -0.78125q-0.703125 -0.796875 -0.71875 -2.328125l0 -5.5l1.453125 0l0 5.453125q0 1.921875 1.5625 1.921875q1.65625 0 2.203125 -1.234375l0 -6.140625l1.4375 0l0 8.453125l-1.375 0l-0.03125 -0.84375zm7.1171875 1.0q-1.71875 0 -2.796875 -1.125q-1.078125 -1.140625 -1.078125 -3.03125l0 -0.265625q0 -1.25 0.46875 -2.234375q0.484375 -1.0 1.34375 -1.546875q0.875 -0.5625 1.875 -0.5625q1.65625 0 2.5625 1.09375q0.921875 1.078125 0.921875 3.09375l0 0.609375l-5.734375 0q0.03125 1.25 0.734375 2.015625q0.703125 0.765625 1.78125 0.765625q0.765625 0 1.296875 -0.3125q0.53125 -0.3125 0.921875 -0.828125l0.890625 0.6875q-1.0625 1.640625 -3.1875 1.640625zm-0.1875 -7.578125q-0.875 0 -1.46875 0.640625q-0.59375 0.625 -0.734375 1.78125l4.234375 0l0 -0.109375q-0.0625 -1.109375 -0.59375 -1.703125q-0.53125 -0.609375 -1.4375 -0.609375zm10.0703125 5.171875q0 -0.578125 -0.4375 -0.90625q-0.4375 -0.328125 -1.546875 -0.5625q-1.09375 -0.234375 -1.734375 -0.5625q-0.640625 -0.328125 -0.953125 -0.78125q-0.3125 -0.453125 -0.3125 -1.078125q0 -1.03125 0.875 -1.75q0.890625 -0.71875 2.25 -0.71875q1.4375 0 2.328125 0.75q0.90625 0.734375 0.90625 1.890625l-1.453125 0q0 -0.59375 -0.515625 -1.015625q-0.5 -0.4375 -1.265625 -0.4375q-0.78125 0 -1.234375 0.34375q-0.4375 0.34375 -0.4375 0.890625q0 0.53125 0.40625 0.796875q0.421875 0.265625 1.5 0.515625q1.078125 0.234375 1.75 0.578125q0.671875 0.328125 1.0 0.796875q0.328125 0.46875 0.328125 1.15625q0 1.125 -0.90625 1.8125q-0.90625 0.6875 -2.359375 0.6875q-1.015625 0 -1.796875 -0.359375q-0.78125 -0.359375 -1.21875 -1.0q-0.4375 -0.65625 -0.4375 -1.40625l1.4375 0q0.046875 0.734375 0.578125 1.15625q0.546875 0.421875 1.4375 0.421875q0.828125 0 1.3125 -0.328125q0.5 -0.328125 0.5 -0.890625z" fill-rule="nonzero"/><path fill="#000000" fill-opacity="0.0" d="m203.5 16.29265l23.779526 0" fill-rule="evenodd"/><path stroke="#000000" stroke-width="1.0" stroke-linejoin="round" stroke-linecap="butt" d="m203.5 16.29265l17.779526 0" fill-rule="evenodd"/><path fill="#000000" stroke="#000000" stroke-width="1.0" stroke-linecap="butt" d="m221.27953 17.944384l4.538101 -1.6517334l-4.538101 -1.6517315z" fill-rule="evenodd"/><path fill="#000000" fill-opacity="0.0" d="m203.5 45.17454l23.779526 0" fill-rule="evenodd"/><path stroke="#000000" stroke-width="1.0" stroke-linejoin="round" stroke-linecap="butt" d="m203.5 45.17454l17.779526 0" fill-rule="evenodd"/><path fill="#000000" stroke="#000000" stroke-width="1.0" stroke-linecap="butt" d="m221.27953 46.826275l4.538101 -1.6517334l-4.538101 -1.6517334z" fill-rule="evenodd"/><path fill="#000000" fill-opacity="0.0" d="m203.5 74.05643l23.779526 0" fill-rule="evenodd"/><path stroke="#000000" stroke-width="1.0" stroke-linejoin="round" stroke-linecap="butt" d="m203.5 74.05643l17.779526 0" fill-rule="evenodd"/><path fill="#000000" stroke="#000000" stroke-width="1.0" stroke-linecap="butt" d="m221.27953 75.70816l4.538101 -1.6517334l-4.538101 -1.6517258z" fill-rule="evenodd"/><path fill="#000000" fill-opacity="0.0" d="m203.5 102.938324l23.779526 0" fill-rule="evenodd"/><path stroke="#000000" stroke-width="1.0" stroke-linejoin="round" stroke-linecap="butt" d="m203.5 102.938324l17.779526 0" fill-rule="evenodd"/><path fill="#000000" stroke="#000000" stroke-width="1.0" stroke-linecap="butt" d="m221.27953 104.59005l4.538101 -1.6517258l-4.538101 -1.6517334z" fill-rule="evenodd"/><path fill="#000000" fill-opacity="0.0" d="m203.5 131.8202l23.779526 0" fill-rule="evenodd"/><path stroke="#000000" stroke-width="1.0" stroke-linejoin="round" stroke-linecap="butt" d="m203.5 131.8202l17.779526 0" fill-rule="evenodd"/><path fill="#000000" stroke="#000000" stroke-width="1.0" stroke-linecap="butt" d="m221.27953 133.47194l4.538101 -1.6517334l-4.538101 -1.6517334z" fill-rule="evenodd"/><path fill="#000000" fill-opacity="0.0" d="m228.63387 217.80315l61.133865 0l0 28.881897l-61.133865 0z" fill-rule="evenodd"/><path stroke="#666666" stroke-width="1.0" stroke-linejoin="round" stroke-linecap="butt" d="m228.63387 217.80315l61.133865 0l0 28.881897l-61.133865 0z" fill-rule="evenodd"/><path fill="#434343" d="m258.0216 239.1641l-7.4687347 0l0 -1.46875l3.0625 0l0 -8.703125l-2.859375 1.546875l-0.578125 -1.34375l3.78125 -1.984375l1.40625 0l0 10.484375l2.6562347 0l0 1.46875zm10.304169 -6.625q0 1.75 -0.421875 3.0q-0.421875 1.25 -1.25 2.0625q-0.8125 0.796875 -2.03125 1.1875q-1.203125 0.375 -2.796875 0.375l-0.984375 0l0 -1.390625l1.09375 0q1.1875 0 2.03125 -0.234375q0.859375 -0.234375 1.421875 -0.6875q0.578125 -0.46875 0.875 -1.125q0.3125 -0.65625 0.375 -1.515625l0.046875 -0.359375q-0.578125 0.328125 -1.328125 0.53125q-0.75 0.203125 -1.625 0.203125q-0.890625 0 -1.578125 -0.25q-0.6875 -0.265625 -1.140625 -0.734375q-0.453125 -0.484375 -0.6875 -1.125q-0.21875 -0.65625 -0.21875 -1.421875q0 -0.84375 0.296875 -1.5625q0.3125 -0.71875 0.84375 -1.25q0.546875 -0.53125 1.296875 -0.828125q0.765625 -0.3125 1.671875 -0.3125q0.890625 0 1.640625 0.296875q0.75 0.28125 1.296875 0.9375q0.546875 0.640625 0.859375 1.6875q0.3125 1.03125 0.3125 2.515625zm-4.171875 -4.140625q-0.515625 0 -0.953125 0.171875q-0.421875 0.15625 -0.75 0.484375q-0.3125 0.328125 -0.5 0.796875q-0.171875 0.46875 -0.171875 1.09375q0 0.546875 0.125 0.984375q0.140625 0.4375 0.40625 0.75q0.28125 0.296875 0.71875 0.46875q0.4375 0.15625 1.046875 0.15625q0.328125 0 0.6875 -0.0625q0.375 -0.0625 0.703125 -0.171875q0.34375 -0.109375 0.65625 -0.25q0.3125 -0.15625 0.5625 -0.3125q0 -1.171875 -0.1875 -1.953125q-0.171875 -0.796875 -0.5 -1.265625q-0.3125 -0.484375 -0.796875 -0.6875q-0.46875 -0.203125 -1.046875 -0.203125z" fill-rule="nonzero"/><path fill="#000000" fill-opacity="0.0" d="m228.63387 246.68504l61.133865 0l0 28.881882l-61.133865 0z" fill-rule="evenodd"/><path stroke="#666666" stroke-width="1.0" stroke-linejoin="round" stroke-linecap="butt" d="m228.63387 246.68504l61.133865 0l0 28.881882l-61.133865 0z" fill-rule="evenodd"/><path fill="#434343" d="m253.00235 268.046l-7.84375 0l0 -1.421875l3.078125 -3.0625q0.75 -0.75 1.21875 -1.296875q0.484375 -0.546875 0.75 -0.984375q0.265625 -0.453125 0.34375 -0.859375q0.09375 -0.40625 0.09375 -0.859375q0 -0.4375 -0.125 -0.828125q-0.109375 -0.40625 -0.359375 -0.703125q-0.234375 -0.3125 -0.640625 -0.484375q-0.390625 -0.171875 -0.9375 -0.171875q-0.75 0 -1.375 0.34375q-0.609375 0.328125 -1.125 0.875l-0.875 -1.046875q0.671875 -0.71875 1.546875 -1.140625q0.875 -0.42189026 2.046875 -0.42189026q0.796875 0 1.4375 0.23439026q0.65625 0.234375 1.125 0.6875q0.484375 0.4375 0.734375 1.09375q0.265625 0.640625 0.265625 1.453125q0 0.671875 -0.1875 1.265625q-0.171875 0.578125 -0.546875 1.15625q-0.375 0.578125 -0.9375 1.203125q-0.546875 0.609375 -1.3125 1.359375l-2.171875 2.09375l5.796875 0l0 1.515625zm10.522919 -5.953125q0 1.375 -0.28125 2.5q-0.265625 1.125 -0.828125 1.9375q-0.546875 0.796875 -1.375 1.234375q-0.8125 0.4375 -1.9375 0.4375q-0.953125 0 -1.734375 -0.359375q-0.78125 -0.359375 -1.34375 -1.09375q-0.546875 -0.75 -0.859375 -1.90625q-0.296875 -1.15625 -0.296875 -2.75q0 -1.359375 0.28125 -2.484375q0.28125 -1.140625 0.828125 -1.9375q0.546875 -0.8125 1.375 -1.25q0.84375 -0.43751526 1.9375 -0.43751526q0.953125 0 1.734375 0.35939026q0.796875 0.359375 1.34375 1.109375q0.5625 0.75 0.859375 1.90625q0.296875 1.15625 0.296875 2.734375zm-1.59375 0.0625q0 -0.3125 -0.03125 -0.609375q-0.015625 -0.3125 -0.046875 -0.609375l-5.046875 3.75q0.140625 0.46875 0.34375 0.875q0.21875 0.390625 0.515625 0.6875q0.296875 0.28125 0.671875 0.453125q0.375 0.15625 0.859375 0.15625q0.625 0 1.125 -0.296875q0.515625 -0.3125 0.859375 -0.90625q0.359375 -0.59375 0.546875 -1.46875q0.203125 -0.875 0.203125 -2.03125zm-5.453125 -0.109375q0 0.28125 0 0.5625q0 0.28125 0.03125 0.546875l5.046875 -3.734375q-0.140625 -0.453125 -0.359375 -0.828125q-0.203125 -0.390625 -0.5 -0.671875q-0.28125 -0.28125 -0.65625 -0.4375q-0.375 -0.15625 -0.84375 -0.15625q-0.609375 0 -1.125 0.3125q-0.5 0.296875 -0.859375 0.890625q-0.359375 0.59375 -0.546875 1.484375q-0.1875 0.875 -0.1875 2.03125zm17.179169 2.234375q0 0.8125 -0.296875 1.53125q-0.296875 0.71875 -0.84375 1.25q-0.546875 0.53125 -1.3125 0.84375q-0.765625 0.296875 -1.703125 0.296875q-0.984375 0 -1.75 -0.3125q-0.75 -0.3125 -1.265625 -0.953125q-0.5 -0.65625 -0.765625 -1.640625q-0.265625 -1.0 -0.265625 -2.359375q0 -0.90625 0.109375 -1.765625q0.125 -0.859375 0.390625 -1.609375q0.28125 -0.765625 0.734375 -1.390625q0.453125 -0.625 1.125 -1.078125q0.6875 -0.453125 1.609375 -0.703125q0.921875 -0.25 2.125 -0.25l1.1875 0l0 1.390625l-1.28125 0q-1.0625 0 -1.859375 0.25q-0.78125 0.25 -1.3125 0.71875q-0.515625 0.46875 -0.796875 1.125q-0.28125 0.65625 -0.359375 1.46875l-0.03125 0.359375q0.5625 -0.328125 1.3125 -0.53125q0.765625 -0.203125 1.640625 -0.203125q0.890625 0 1.5625 0.265625q0.6875 0.25 1.140625 0.734375q0.453125 0.46875 0.671875 1.125q0.234375 0.640625 0.234375 1.4375zm-1.65625 0.09375q0 -0.546875 -0.140625 -0.984375q-0.125 -0.4375 -0.40625 -0.75q-0.28125 -0.3125 -0.71875 -0.46875q-0.4375 -0.171875 -1.03125 -0.171875q-0.34375 0 -0.703125 0.0625q-0.359375 0.0625 -0.703125 0.1875q-0.328125 0.109375 -0.640625 0.25q-0.3125 0.140625 -0.5625 0.3125q0 1.171875 0.15625 1.96875q0.171875 0.78125 0.484375 1.25q0.328125 0.46875 0.796875 0.671875q0.484375 0.203125 1.09375 0.203125q0.53125 0 0.953125 -0.15625q0.4375 -0.171875 0.75 -0.5q0.3125 -0.328125 0.484375 -0.796875q0.1875 -0.46875 0.1875 -1.078125z" fill-rule="nonzero"/><path fill="#000000" fill-opacity="0.0" d="m228.63387 275.56693l61.133865 0l0 28.881897l-61.133865 0z" fill-rule="evenodd"/><path stroke="#666666" stroke-width="1.0" stroke-linejoin="round" stroke-linecap="butt" d="m228.63387 275.56693l61.133865 0l0 28.881897l-61.133865 0z" fill-rule="evenodd"/><path fill="#434343" d="m258.13098 296.9279l-7.8437347 0l0 -1.421875l3.078125 -3.0625q0.75 -0.75 1.21875 -1.296875q0.484375 -0.546875 0.75 -0.984375q0.265625 -0.453125 0.34375 -0.859375q0.09375 -0.40625 0.09375 -0.859375q0 -0.4375 -0.125 -0.828125q-0.109375 -0.40625 -0.359375 -0.703125q-0.234375 -0.3125 -0.640625 -0.484375q-0.390625 -0.171875 -0.9375 -0.171875q-0.75 0 -1.375 0.34375q-0.609375 0.328125 -1.125 0.875l-0.875 -1.046875q0.671875 -0.71875 1.546875 -1.140625q0.875 -0.421875 2.046875 -0.421875q0.796875 0 1.4375 0.234375q0.65623474 0.234375 1.1249847 0.6875q0.484375 0.4375 0.734375 1.09375q0.265625 0.640625 0.265625 1.453125q0 0.671875 -0.1875 1.265625q-0.171875 0.578125 -0.546875 1.15625q-0.375 0.578125 -0.93748474 1.203125q-0.546875 0.609375 -1.3125 1.359375l-2.171875 2.09375l5.7968597 0l0 1.515625zm10.194794 -6.625q0 1.75 -0.421875 3.0q-0.421875 1.25 -1.25 2.0625q-0.8125 0.796875 -2.03125 1.1875q-1.203125 0.375 -2.796875 0.375l-0.984375 0l0 -1.390625l1.09375 0q1.1875 0 2.03125 -0.234375q0.859375 -0.234375 1.421875 -0.6875q0.578125 -0.46875 0.875 -1.125q0.3125 -0.65625 0.375 -1.515625l0.046875 -0.359375q-0.578125 0.328125 -1.328125 0.53125q-0.75 0.203125 -1.625 0.203125q-0.890625 0 -1.578125 -0.25q-0.6875 -0.265625 -1.140625 -0.734375q-0.453125 -0.484375 -0.6875 -1.125q-0.21875 -0.65625 -0.21875 -1.421875q0 -0.84375 0.296875 -1.5625q0.3125 -0.71875 0.84375 -1.25q0.546875 -0.53125 1.296875 -0.828125q0.765625 -0.3125 1.671875 -0.3125q0.890625 0 1.640625 0.296875q0.75 0.28125 1.296875 0.9375q0.546875 0.640625 0.859375 1.6875q0.3125 1.03125 0.3125 2.515625zm-4.171875 -4.140625q-0.515625 0 -0.953125 0.171875q-0.421875 0.15625 -0.75 0.484375q-0.3125 0.328125 -0.5 0.796875q-0.171875 0.46875 -0.171875 1.09375q0 0.546875 0.125 0.984375q0.140625 0.4375 0.40625 0.75q0.28125 0.296875 0.71875 0.46875q0.4375 0.15625 1.046875 0.15625q0.328125 0 0.6875 -0.0625q0.375 -0.0625 0.703125 -0.171875q0.34375 -0.109375 0.65625 -0.25q0.3125 -0.15625 0.5625 -0.3125q0 -1.171875 -0.1875 -1.953125q-0.171875 -0.796875 -0.5 -1.265625q-0.3125 -0.484375 -0.796875 -0.6875q-0.46875 -0.203125 -1.046875 -0.203125z" fill-rule="nonzero"/><path fill="#000000" fill-opacity="0.0" d="m228.63387 304.44882l61.133865 0l0 28.881897l-61.133865 0z" fill-rule="evenodd"/><path stroke="#666666" stroke-width="1.0" stroke-linejoin="round" stroke-linecap="butt" d="m228.63387 304.44882l61.133865 0l0 28.881897l-61.133865 0z" fill-rule="evenodd"/><path fill="#434343" d="m258.06848 319.18475q0 1.75 -0.421875 3.0q-0.421875 1.25 -1.25 2.0625q-0.81248474 0.796875 -2.0312347 1.1875q-1.203125 0.375 -2.796875 0.375l-0.984375 0l0 -1.390625l1.09375 0q1.1875 0 2.03125 -0.234375q0.859375 -0.234375 1.421875 -0.6875q0.578125 -0.46875 0.87498474 -1.125q0.3125 -0.65625 0.375 -1.515625l0.046875 -0.359375q-0.57810974 0.328125 -1.3281097 0.53125q-0.75 0.203125 -1.625 0.203125q-0.890625 0 -1.578125 -0.25q-0.6875 -0.265625 -1.140625 -0.734375q-0.453125 -0.484375 -0.6875 -1.125q-0.21875 -0.65625 -0.21875 -1.421875q0 -0.84375 0.296875 -1.5625q0.3125 -0.71875 0.84375 -1.25q0.546875 -0.53125 1.296875 -0.828125q0.765625 -0.3125 1.671875 -0.3125q0.890625 0 1.640625 0.296875q0.74998474 0.28125 1.2968597 0.9375q0.546875 0.640625 0.859375 1.6875q0.3125 1.03125 0.3125 2.515625zm-4.1718597 -4.140625q-0.515625 0 -0.953125 0.171875q-0.421875 0.15625 -0.75 0.484375q-0.3125 0.328125 -0.5 0.796875q-0.171875 0.46875 -0.171875 1.09375q0 0.546875 0.125 0.984375q0.140625 0.4375 0.40625 0.75q0.28125 0.296875 0.71875 0.46875q0.4375 0.15625 1.046875 0.15625q0.328125 0 0.6875 -0.0625q0.375 -0.0625 0.703125 -0.171875q0.34375 -0.109375 0.65625 -0.25q0.31248474 -0.15625 0.56248474 -0.3125q0 -1.171875 -0.1875 -1.953125q-0.171875 -0.796875 -0.49998474 -1.265625q-0.3125 -0.484375 -0.796875 -0.6875q-0.46875 -0.203125 -1.046875 -0.203125zm14.257278 7.15625q0 0.78125 -0.328125 1.46875q-0.3125 0.6875 -0.953125 1.203125q-0.625 0.515625 -1.59375 0.8125q-0.96875 0.28125 -2.25 0.28125q-0.71875 0 -1.28125 -0.046875q-0.5625 -0.03125 -1.046875 -0.109375l0 -1.421875q0.5625 0.09375 1.1875 0.15625q0.625 0.046875 1.28125 0.046875q0.890625 0 1.515625 -0.15625q0.640625 -0.15625 1.046875 -0.453125q0.40625 -0.296875 0.578125 -0.71875q0.1875 -0.4375 0.1875 -0.984375q0 -0.484375 -0.21875 -0.84375q-0.21875 -0.375 -0.625 -0.609375q-0.390625 -0.25 -0.9375 -0.375q-0.546875 -0.125 -1.203125 -0.125l-1.359375 0l0 -1.296875l1.375 0q0.53125 0 0.96875 -0.140625q0.453125 -0.140625 0.765625 -0.40625q0.3125 -0.265625 0.484375 -0.65625q0.171875 -0.390625 0.171875 -0.875q0 -0.953125 -0.59375 -1.390625q-0.578125 -0.4375 -1.703125 -0.4375q-0.609375 0 -1.25 0.125q-0.625 0.109375 -1.359375 0.34375l0 -1.390625q0.3125 -0.109375 0.65625 -0.1875q0.359375 -0.09375 0.703125 -0.140625q0.359375 -0.0625 0.703125 -0.09375q0.34375 -0.03125 0.65625 -0.03125q0.953125 0 1.671875 0.203125q0.71875 0.203125 1.203125 0.59375q0.484375 0.375 0.71875 0.921875q0.25 0.546875 0.25 1.21875q0 1.03125 -0.53125 1.71875q-0.515625 0.6875 -1.421875 1.109375q0.46875 0.0625 0.90625 0.28125q0.453125 0.21875 0.8125 0.5625q0.375 0.34375 0.59375 0.8125q0.21875 0.453125 0.21875 1.03125z" fill-rule="nonzero"/><path fill="#000000" fill-opacity="0.0" d="m228.63387 333.33072l61.133865 0l0 28.881866l-61.133865 0z" fill-rule="evenodd"/><path stroke="#666666" stroke-width="1.0" stroke-linejoin="round" stroke-linecap="butt" d="m228.63387 333.33072l61.133865 0l0 28.881866l-61.133865 0z" fill-rule="evenodd"/><path fill="#434343" d="m252.89297 354.69165l-7.46875 0l0 -1.46875l3.0625 0l0 -8.703125l-2.859375 1.546875l-0.578125 -1.34375l3.78125 -1.984375l1.40625 0l0 10.484375l2.65625 0l0 1.46875zm10.366669 0l-7.84375 0l0 -1.421875l3.078125 -3.0625q0.75 -0.75 1.21875 -1.296875q0.484375 -0.546875 0.75 -0.984375q0.265625 -0.453125 0.34375 -0.859375q0.09375 -0.40625 0.09375 -0.859375q0 -0.4375 -0.125 -0.828125q-0.109375 -0.40625 -0.359375 -0.703125q-0.234375 -0.3125 -0.640625 -0.484375q-0.390625 -0.171875 -0.9375 -0.171875q-0.75 0 -1.375 0.34375q-0.609375 0.328125 -1.125 0.875l-0.875 -1.046875q0.671875 -0.71875 1.546875 -1.140625q0.875 -0.421875 2.046875 -0.421875q0.796875 0 1.4375 0.234375q0.65625 0.234375 1.125 0.6875q0.484375 0.4375 0.734375 1.09375q0.265625 0.640625 0.265625 1.453125q0 0.671875 -0.1875 1.265625q-0.171875 0.578125 -0.546875 1.15625q-0.375 0.578125 -0.9375 1.203125q-0.546875 0.609375 -1.3125 1.359375l-2.171875 2.09375l5.796875 0l0 1.515625zm10.257294 0l-7.84375 0l0 -1.421875l3.078125 -3.0625q0.75 -0.75 1.21875 -1.296875q0.484375 -0.546875 0.75 -0.984375q0.265625 -0.453125 0.34375 -0.859375q0.09375 -0.40625 0.09375 -0.859375q0 -0.4375 -0.125 -0.828125q-0.109375 -0.40625 -0.359375 -0.703125q-0.234375 -0.3125 -0.640625 -0.484375q-0.390625 -0.171875 -0.9375 -0.171875q-0.75 0 -1.375 0.34375q-0.609375 0.328125 -1.125 0.875l-0.875 -1.046875q0.671875 -0.71875 1.546875 -1.140625q0.875 -0.421875 2.046875 -0.421875q0.796875 0 1.4375 0.234375q0.65625 0.234375 1.125 0.6875q0.484375 0.4375 0.734375 1.09375q0.265625 0.640625 0.265625 1.453125q0 0.671875 -0.1875 1.265625q-0.171875 0.578125 -0.546875 1.15625q-0.375 0.578125 -0.9375 1.203125q-0.546875 0.609375 -1.3125 1.359375l-2.171875 2.09375l5.796875 0l0 1.515625z" fill-rule="nonzero"/><path fill="#000000" fill-opacity="0.0" d="m298.19028 232.2454l23.779541 0" fill-rule="evenodd"/><path stroke="#000000" stroke-width="1.0" stroke-linejoin="round" stroke-linecap="butt" d="m298.19028 232.2454l17.779541 0" fill-rule="evenodd"/><path fill="#000000" stroke="#000000" stroke-width="1.0" stroke-linecap="butt" d="m315.96982 233.89714l4.538086 -1.6517334l-4.538086 -1.6517334z" fill-rule="evenodd"/><path fill="#000000" fill-opacity="0.0" d="m298.19028 261.1273l23.779541 0" fill-rule="evenodd"/><path stroke="#000000" stroke-width="1.0" stroke-linejoin="round" stroke-linecap="butt" d="m298.19028 261.1273l17.779541 0" fill-rule="evenodd"/><path fill="#000000" stroke="#000000" stroke-width="1.0" stroke-linecap="butt" d="m315.96982 262.77902l4.538086 -1.6517334l-4.538086 -1.6517334z" fill-rule="evenodd"/><path fill="#000000" fill-opacity="0.0" d="m298.19028 290.0092l23.779541 0" fill-rule="evenodd"/><path stroke="#000000" stroke-width="1.0" stroke-linejoin="round" stroke-linecap="butt" d="m298.19028 290.0092l17.779541 0" fill-rule="evenodd"/><path fill="#000000" stroke="#000000" stroke-width="1.0" stroke-linecap="butt" d="m315.96982 291.66092l4.538086 -1.6517334l-4.538086 -1.6517334z" fill-rule="evenodd"/><path fill="#000000" fill-opacity="0.0" d="m298.19028 318.89108l23.779541 0" fill-rule="evenodd"/><path stroke="#000000" stroke-width="1.0" stroke-linejoin="round" stroke-linecap="butt" d="m298.19028 318.89108l17.779541 0" fill-rule="evenodd"/><path fill="#000000" stroke="#000000" stroke-width="1.0" stroke-linecap="butt" d="m315.96982 320.54282l4.538086 -1.6517334l-4.538086 -1.6517334z" fill-rule="evenodd"/><path fill="#000000" fill-opacity="0.0" d="m298.19028 347.77298l23.779541 0" fill-rule="evenodd"/><path stroke="#000000" stroke-width="1.0" stroke-linejoin="round" stroke-linecap="butt" d="m298.19028 347.77298l17.779541 0" fill-rule="evenodd"/><path fill="#000000" stroke="#000000" stroke-width="1.0" stroke-linecap="butt" d="m315.96982 349.4247l4.538086 -1.6517334l-4.538086 -1.6517334z" fill-rule="evenodd"/><path fill="#000000" fill-opacity="0.0" d="m70.3294 231.8202l23.779526 0" fill-rule="evenodd"/><path stroke="#000000" stroke-width="1.0" stroke-linejoin="round" stroke-linecap="butt" d="m70.3294 231.8202l17.779526 0" fill-rule="evenodd"/><path fill="#000000" stroke="#000000" stroke-width="1.0" stroke-linecap="butt" d="m88.108925 233.47194l4.5380936 -1.6517334l-4.5380936 -1.6517334z" fill-rule="evenodd"/><path fill="#000000" fill-opacity="0.0" d="m70.3294 260.7021l23.779526 0" fill-rule="evenodd"/><path stroke="#000000" stroke-width="1.0" stroke-linejoin="round" stroke-linecap="butt" d="m70.3294 260.7021l17.779526 0" fill-rule="evenodd"/><path fill="#000000" stroke="#000000" stroke-width="1.0" stroke-linecap="butt" d="m88.108925 262.35382l4.5380936 -1.6517334l-4.5380936 -1.6517334z" fill-rule="evenodd"/><path fill="#000000" fill-opacity="0.0" d="m70.3294 289.58398l23.779526 0" fill-rule="evenodd"/><path stroke="#000000" stroke-width="1.0" stroke-linejoin="round" stroke-linecap="butt" d="m70.3294 289.58398l17.779526 0" fill-rule="evenodd"/><path fill="#000000" stroke="#000000" stroke-width="1.0" stroke-linecap="butt" d="m88.108925 291.23572l4.5380936 -1.6517334l-4.5380936 -1.6517334z" fill-rule="evenodd"/><path fill="#000000" fill-opacity="0.0" d="m70.3294 318.46588l23.779526 0" fill-rule="evenodd"/><path stroke="#000000" stroke-width="1.0" stroke-linejoin="round" stroke-linecap="butt" d="m70.3294 318.46588l17.779526 0" fill-rule="evenodd"/><path fill="#000000" stroke="#000000" stroke-width="1.0" stroke-linecap="butt" d="m88.108925 320.1176l4.5380936 -1.6517334l-4.5380936 -1.6517334z" fill-rule="evenodd"/><path fill="#000000" fill-opacity="0.0" d="m70.3294 347.34778l23.779526 0" fill-rule="evenodd"/><path stroke="#000000" stroke-width="1.0" stroke-linejoin="round" stroke-linecap="butt" d="m70.3294 347.34778l17.779526 0" fill-rule="evenodd"/><path fill="#000000" stroke="#000000" stroke-width="1.0" stroke-linecap="butt" d="m88.108925 348.9995l4.5380936 -1.6517334l-4.5380936 -1.6517334z" fill-rule="evenodd"/><path fill="#000000" fill-opacity="0.0" d="m154.22441 397.25067l90.3307 0l0 38.771637l-90.3307 0z" fill-rule="evenodd"/><path fill="#000000" d="m178.8429 416.53253q-1.921875 -0.546875 -2.8125 -1.359375q-0.875 -0.8125 -0.875 -2.0q0 -1.34375 1.078125 -2.21875q1.078125 -0.875 2.796875 -0.875q1.171875 0 2.078125 0.453125q0.921875 0.453125 1.421875 1.25q0.515625 0.796875 0.515625 1.734375l-1.515625 0q0 -1.03125 -0.65625 -1.609375q-0.65625 -0.59375 -1.84375 -0.59375q-1.109375 0 -1.734375 0.484375q-0.625 0.484375 -0.625 1.359375q0 0.6875 0.59375 1.171875q0.59375 0.484375 2.0 0.890625q1.421875 0.390625 2.21875 0.875q0.8125 0.46875 1.1875 1.109375q0.390625 0.640625 0.390625 1.515625q0 1.375 -1.078125 2.21875q-1.078125 0.828125 -2.875 0.828125q-1.171875 0 -2.1875 -0.453125q-1.015625 -0.453125 -1.578125 -1.234375q-0.546875 -0.78125 -0.546875 -1.765625l1.515625 0q0 1.03125 0.75 1.625q0.765625 0.59375 2.046875 0.59375q1.1875 0 1.8125 -0.484375q0.640625 -0.484375 0.640625 -1.3125q0 -0.84375 -0.59375 -1.296875q-0.578125 -0.453125 -2.125 -0.90625zm7.4921875 5.078125l-1.453125 0l0 -8.453125l1.453125 0l0 8.453125zm-1.5625 -10.703125q0 -0.34375 0.203125 -0.578125q0.21875 -0.25 0.640625 -0.25q0.421875 0 0.640625 0.25q0.21875 0.234375 0.21875 0.59375q0 0.34375 -0.21875 0.578125q-0.21875 0.234375 -0.640625 0.234375q-0.421875 0 -0.640625 -0.234375q-0.203125 -0.234375 -0.203125 -0.59375zm5.2265625 9.515625l4.953125 0l0 1.1875l-6.71875 0l0 -1.0625l4.671875 -6.203125l-4.59375 0l0 -1.1875l6.40625 0l0 1.015625l-4.71875 6.25zm9.9609375 1.34375q-1.71875 0 -2.796875 -1.125q-1.078125 -1.140625 -1.078125 -3.03125l0 -0.265625q0 -1.25 0.46875 -2.234375q0.484375 -1.0 1.34375 -1.546875q0.875 -0.5625 1.875 -0.5625q1.65625 0 2.5625 1.09375q0.921875 1.078125 0.921875 3.09375l0 0.609375l-5.734375 0q0.03125 1.25 0.734375 2.015625q0.703125 0.765625 1.78125 0.765625q0.765625 0 1.296875 -0.3125q0.53125 -0.3125 0.921875 -0.828125l0.890625 0.6875q-1.0625 1.640625 -3.1875 1.640625zm-0.1875 -7.578125q-0.875 0 -1.46875 0.640625q-0.59375 0.625 -0.734375 1.78125l4.234375 0l0 -0.109375q-0.0625 -1.109375 -0.59375 -1.703125q-0.53125 -0.609375 -1.4375 -0.609375zm9.0625 6.65625q0 -0.375 0.21875 -0.625q0.234375 -0.25 0.671875 -0.25q0.453125 0 0.671875 0.25q0.234375 0.25 0.234375 0.625q0 0.359375 -0.234375 0.609375q-0.21875 0.25 -0.671875 0.25q-0.4375 0 -0.671875 -0.25q-0.21875 -0.25 -0.21875 -0.609375zm0 -6.90625q0 -0.375 0.21875 -0.625q0.234375 -0.25 0.671875 -0.25q0.453125 0 0.671875 0.25q0.234375 0.25 0.234375 0.625q0 0.359375 -0.234375 0.609375q-0.21875 0.25 -0.671875 0.25q-0.4375 0 -0.671875 -0.25q-0.21875 -0.25 -0.21875 -0.609375zm8.3984375 1.96875l0.578125 -5.671875l5.828125 0l0 1.328125l-4.59375 0l-0.34375 3.109375q0.828125 -0.5 1.890625 -0.5q1.5625 0 2.46875 1.03125q0.921875 1.03125 0.921875 2.78125q0 1.75 -0.953125 2.765625q-0.953125 1.015625 -2.65625 1.015625q-1.5 0 -2.453125 -0.828125q-0.953125 -0.84375 -1.09375 -2.328125l1.375 0q0.125 0.984375 0.6875 1.484375q0.5625 0.484375 1.484375 0.484375q1.015625 0 1.578125 -0.6875q0.578125 -0.6875 0.578125 -1.890625q0 -1.140625 -0.625 -1.828125q-0.609375 -0.703125 -1.640625 -0.703125q-0.953125 0 -1.484375 0.421875l-0.390625 0.3125l-1.15625 -0.296875z" fill-rule="nonzero"/><path fill="#000000" fill-opacity="0.0" d="m85.143 182.69968l228.40942 0" fill-rule="evenodd"/><path stroke="#000000" stroke-width="1.0" stroke-linejoin="round" stroke-linecap="butt" d="m85.143 182.69968l228.40942 0" fill-rule="evenodd"/><path fill="#000000" fill-opacity="0.0" d="m213.35034 182.69968l0 -19.527557" fill-rule="evenodd"/><path stroke="#000000" stroke-width="1.0" stroke-linejoin="round" stroke-linecap="butt" d="m213.35034 182.69968l0 -19.527557" fill-rule="evenodd"/><path fill="#000000" fill-opacity="0.0" d="m85.143 182.701l0 22.929138" fill-rule="evenodd"/><path stroke="#000000" stroke-width="1.0" stroke-linejoin="round" stroke-linecap="butt" d="m85.14299 182.70102l0 16.929123" fill-rule="evenodd"/><path fill="#000000" stroke="#000000" stroke-width="1.0" stroke-linecap="butt" d="m83.491264 199.63014l1.6517258 4.538101l1.6517334 -4.538101z" fill-rule="evenodd"/><path fill="#000000" fill-opacity="0.0" d="m313.53937 182.69968l0 21.228348" fill-rule="evenodd"/><path stroke="#000000" stroke-width="1.0" stroke-linejoin="round" stroke-linecap="butt" d="m313.53937 182.69968l0 15.228348" fill-rule="evenodd"/><path fill="#000000" stroke="#000000" stroke-width="1.0" stroke-linecap="butt" d="m311.88763 197.92802l1.6517334 4.538101l1.6517334 -4.538101z" fill-rule="evenodd"/></g></svg>