<svg version="1.1" viewBox="0.0 0.0 456.13385826771656 438.4409448818898" fill="none" stroke="none" stroke-linecap="square" stroke-miterlimit="10" xmlns:xlink="http://www.w3.org/1999/xlink" xmlns="http://www.w3.org/2000/svg"><clipPath id="p.0"><path d="m0 0l456.13385 0l0 438.44095l-456.13385 0l0 -438.44095z" clip-rule="nonzero"/></clipPath><g clip-path="url(#p.0)"><path fill="#000000" fill-opacity="0.0" d="m0 0l456.13385 0l0 438.44095l-456.13385 0z" fill-rule="evenodd"/><path fill="#000000" fill-opacity="0.0" d="m135.13916 2.136964l61.13385 0l0 28.88189l-61.13385 0z" fill-rule="evenodd"/><path stroke="#efefef" stroke-width="1.0" stroke-linejoin="round" stroke-linecap="butt" d="m135.13916 2.136964l61.13385 0l0 28.88189l-61.13385 0z" fill-rule="evenodd"/><path fill="#efefef" d="m164.52692 23.497908l-7.46875 0l0 -1.46875l3.0625 0l0 -8.703126l-2.859375 1.546875l-0.578125 -1.34375l3.78125 -1.984375l1.40625 0l0 10.484376l2.65625 0l0 1.46875zm10.304169 -6.625q0 1.75 -0.421875 3.0q-0.421875 1.25 -1.25 2.0625q-0.8125 0.796875 -2.03125 1.1875q-1.203125 0.375 -2.796875 0.375l-0.984375 0l0 -1.390625l1.09375 0q1.1875 0 2.03125 -0.234375q0.859375 -0.234375 1.421875 -0.6875q0.578125 -0.46875 0.875 -1.125q0.3125 -0.65625 0.375 -1.515625l0.046875 -0.359375q-0.578125 0.328125 -1.328125 0.53125q-0.75 0.203125 -1.625 0.203125q-0.890625 0 -1.578125 -0.25q-0.6875 -0.265625 -1.140625 -0.734375q-0.453125 -0.484375 -0.6875 -1.125q-0.21875 -0.65625 -0.21875 -1.421876q0 -0.84375 0.296875 -1.5625q0.3125 -0.71875 0.84375 -1.25q0.546875 -0.53125 1.296875 -0.828125q0.765625 -0.3125 1.671875 -0.3125q0.890625 0 1.640625 0.296875q0.75 0.28125 1.296875 0.9375q0.546875 0.640625 0.859375 1.6875q0.3125 1.03125 0.3125 2.515626zm-4.171875 -4.140626q-0.515625 0 -0.953125 0.171875q-0.421875 0.15625 -0.75 0.484375q-0.3125 0.328125 -0.5 0.796875q-0.171875 0.46875 -0.171875 1.09375q0 0.546875 0.125 0.98437595q0.140625 0.4375 0.40625 0.75q0.28125 0.296875 0.71875 0.46875q0.4375 0.15625 1.046875 0.15625q0.328125 0 0.6875 -0.0625q0.375 -0.0625 0.703125 -0.171875q0.34375 -0.109375 0.65625 -0.25q0.3125 -0.15625 0.5625 -0.3125q0 -1.171876 -0.1875 -1.953126q-0.171875 -0.796875 -0.5 -1.265625q-0.3125 -0.484375 -0.796875 -0.6875q-0.46875 -0.203125 -1.046875 -0.203125z" fill-rule="nonzero"/><path fill="#000000" fill-opacity="0.0" d="m236.27301 2.136964l61.13385 0l0 28.88189l-61.13385 0z" fill-rule="evenodd"/><path stroke="#efefef" stroke-width="1.0" stroke-linejoin="round" stroke-linecap="butt" d="m236.27301 2.136964l61.13385 0l0 28.88189l-61.13385 0z" fill-rule="evenodd"/><path fill="#efefef" d="m266.16077 12.107282q-1.25 -0.265625 -2.15625 -0.265625q-2.140625 0 -2.140625 2.234375l0 1.609375l4.015625 0l0 1.312501l-4.015625 0l0 6.5l-1.609375 0l0 -6.5l-2.9375 0l0 -1.312501l2.9375 0l0 -1.515625q0 -3.65625 3.8125 -3.65625q0.9375 0 2.09375 0.21875l0 1.375zm-9.578125 2.25l0 0zm11.257294 4.765626q0 -1.171875 0.3125 -2.078125q0.3125 -0.90625 0.90625 -1.531251q0.59375 -0.625 1.40625 -0.9375q0.828125 -0.328125 1.84375 -0.328125q0.4375 0 0.859375 0.0625q0.421875 0.046875 0.828125 0.15625l0 -3.84375l1.59375 0l0 12.875001l-1.421875 0l-0.046875 -1.734375q-0.671875 0.96875 -1.453125 1.4375q-0.765625 0.453125 -1.671875 0.453125q-0.78125 0 -1.375 -0.3125q-0.59375 -0.328125 -1.0 -0.921875q-0.390625 -0.609375 -0.59375 -1.4375q-0.1875 -0.84375 -0.1875 -1.859375zm1.609375 -0.109375q0 1.65625 0.484375 2.484375q0.5 0.8125 1.390625 0.8125q0.59375 0 1.265625 -0.53125q0.671875 -0.546875 1.40625 -1.609375l0 -4.234376q-0.390625 -0.1875 -0.859375 -0.28125q-0.46875 -0.09375 -0.9375 -0.09375q-1.296875 0 -2.03125 0.84375095q-0.71875 0.828125 -0.71875 2.609375z" fill-rule="nonzero"/><path fill="#000000" fill-opacity="0.0" d="m135.13916 31.018854l61.13385 0l0 28.881891l-61.13385 0z" fill-rule="evenodd"/><path stroke="#efefef" stroke-width="1.0" stroke-linejoin="round" stroke-linecap="butt" d="m135.13916 31.018854l61.13385 0l0 28.881891l-61.13385 0z" fill-rule="evenodd"/><path fill="#efefef" d="m159.50764 52.379795l-7.84375 0l0 -1.421875l3.078125 -3.0625q0.75 -0.75 1.21875 -1.296875q0.484375 -0.546875 0.75 -0.984375q0.265625 -0.453125 0.34375 -0.859375q0.09375 -0.40625 0.09375 -0.859375q0 -0.4375 -0.125 -0.828125q-0.109375 -0.40625 -0.359375 -0.703125q-0.234375 -0.3125 -0.640625 -0.484375q-0.390625 -0.171875 -0.9375 -0.171875q-0.75 0 -1.375 0.34375q-0.609375 0.328125 -1.125 0.875l-0.875 -1.046875q0.671875 -0.71875 1.546875 -1.140625q0.875 -0.421875 2.046875 -0.421875q0.796875 0 1.4375 0.234375q0.65625 0.234375 1.125 0.6875q0.484375 0.4375 0.734375 1.09375q0.265625 0.640625 0.265625 1.453125q0 0.671875 -0.1875 1.265625q-0.171875 0.578125 -0.546875 1.15625q-0.375 0.578125 -0.9375 1.203125q-0.546875 0.609375 -1.3125 1.359375l-2.171875 2.09375l5.796875 0l0 1.515625zm10.522919 -5.953125q0 1.375 -0.28125 2.5q-0.265625 1.125 -0.828125 1.9375q-0.546875 0.796875 -1.375 1.234375q-0.8125 0.4375 -1.9375 0.4375q-0.953125 0 -1.734375 -0.359375q-0.78125 -0.359375 -1.34375 -1.09375q-0.546875 -0.75 -0.859375 -1.90625q-0.296875 -1.15625 -0.296875 -2.75q0 -1.359375 0.28125 -2.484375q0.28125 -1.140625 0.828125 -1.9375q0.546875 -0.8125 1.375 -1.25q0.84375 -0.4375 1.9375 -0.4375q0.953125 0 1.734375 0.359375q0.796875 0.359375 1.34375 1.109375q0.5625 0.75 0.859375 1.90625q0.296875 1.15625 0.296875 2.734375zm-1.59375 0.0625q0 -0.3125 -0.03125 -0.609375q-0.015625 -0.3125 -0.046875 -0.609375l-5.046875 3.75q0.140625 0.46875 0.34375 0.875q0.21875 0.390625 0.515625 0.6875q0.296875 0.28125 0.671875 0.453125q0.375 0.15625 0.859375 0.15625q0.625 0 1.125 -0.296875q0.515625 -0.3125 0.859375 -0.90625q0.359375 -0.59375 0.546875 -1.46875q0.203125 -0.875 0.203125 -2.03125zm-5.453125 -0.109375q0 0.28125 0 0.5625q0 0.28125 0.03125 0.546875l5.046875 -3.734375q-0.140625 -0.453125 -0.359375 -0.828125q-0.203125 -0.390625 -0.5 -0.671875q-0.28125 -0.28125 -0.65625 -0.4375q-0.375 -0.15625 -0.84375 -0.15625q-0.609375 0 -1.125 0.3125q-0.5 0.296875 -0.859375 0.890625q-0.359375 0.59375 -0.546875 1.484375q-0.1875 0.875 -0.1875 2.03125zm17.179169 2.234375q0 0.8125 -0.296875 1.53125q-0.296875 0.71875 -0.84375 1.25q-0.546875 0.53125 -1.3125 0.84375q-0.765625 0.296875 -1.703125 0.296875q-0.984375 0 -1.75 -0.3125q-0.75 -0.3125 -1.265625 -0.953125q-0.5 -0.65625 -0.765625 -1.640625q-0.265625 -1.0 -0.265625 -2.359375q0 -0.90625 0.109375 -1.765625q0.125 -0.859375 0.390625 -1.609375q0.28125 -0.765625 0.734375 -1.390625q0.453125 -0.625 1.125 -1.078125q0.6875 -0.453125 1.609375 -0.703125q0.921875 -0.25 2.125 -0.25l1.1875 0l0 1.390625l-1.28125 0q-1.0625 0 -1.859375 0.25q-0.78125 0.25 -1.3125 0.71875q-0.515625 0.46875 -0.796875 1.125q-0.28125 0.65625 -0.359375 1.46875l-0.03125 0.359375q0.5625 -0.328125 1.3125 -0.53125q0.765625 -0.203125 1.640625 -0.203125q0.890625 0 1.5625 0.265625q0.6875 0.25 1.140625 0.734375q0.453125 0.46875 0.671875 1.125q0.234375 0.640625 0.234375 1.4375zm-1.65625 0.09375q0 -0.546875 -0.140625 -0.984375q-0.125 -0.4375 -0.40625 -0.75q-0.28125 -0.3125 -0.71875 -0.46875q-0.4375 -0.171875 -1.03125 -0.171875q-0.34375 0 -0.703125 0.0625q-0.359375 0.0625 -0.703125 0.1875q-0.328125 0.109375 -0.640625 0.25q-0.3125 0.140625 -0.5625 0.3125q0 1.171875 0.15625 1.96875q0.171875 0.78125 0.484375 1.25q0.328125 0.46875 0.796875 0.671875q0.484375 0.203125 1.09375 0.203125q0.53125 0 0.953125 -0.15625q0.4375 -0.171875 0.75 -0.5q0.3125 -0.328125 0.484375 -0.796875q0.1875 -0.46875 0.1875 -1.078125z" fill-rule="nonzero"/><path fill="#000000" fill-opacity="0.0" d="m236.27301 31.018854l61.13385 0l0 28.881891l-61.13385 0z" fill-rule="evenodd"/><path stroke="#efefef" stroke-width="1.0" stroke-linejoin="round" stroke-linecap="butt" d="m236.27301 31.018854l61.13385 0l0 28.881891l-61.13385 0z" fill-rule="evenodd"/><path fill="#efefef" d="m265.14514 52.036045q-0.625 0.25 -1.28125 0.359375q-0.640625 0.109375 -1.328125 0.109375q-2.171875 0 -3.34375 -1.171875q-1.171875 -1.171875 -1.171875 -3.4375q0 -1.078125 0.328125 -1.953125q0.34375 -0.890625 0.953125 -1.515625q0.609375 -0.640625 1.453125 -0.984375q0.859375 -0.34375 1.875 -0.34375q0.71875 0 1.328125 0.109375q0.625 0.09375 1.1875 0.328125l0 1.515625q-0.59375 -0.3125 -1.21875 -0.453125q-0.609375 -0.140625 -1.265625 -0.140625q-0.609375 0 -1.15625 0.234375q-0.53125 0.234375 -0.9375 0.671875q-0.40625 0.421875 -0.65625 1.0625q-0.234375 0.625 -0.234375 1.421875q0 1.65625 0.796875 2.484375q0.8125 0.8125 2.25 0.8125q0.640625 0 1.25 -0.140625q0.609375 -0.140625 1.171875 -0.4375l0 1.46875zm2.6947937 -4.03125q0 -1.171875 0.3125 -2.078125q0.3125 -0.90625 0.90625 -1.53125q0.59375 -0.625 1.40625 -0.9375q0.828125 -0.328125 1.84375 -0.328125q0.4375 0 0.859375 0.0625q0.421875 0.046875 0.828125 0.15625l0 -3.84375l1.59375 0l0 12.875l-1.421875 0l-0.046875 -1.734375q-0.671875 0.96875 -1.453125 1.4375q-0.765625 0.453125 -1.671875 0.453125q-0.78125 0 -1.375 -0.3125q-0.59375 -0.328125 -1.0 -0.921875q-0.390625 -0.609375 -0.59375 -1.4375q-0.1875 -0.84375 -0.1875 -1.859375zm1.609375 -0.109375q0 1.65625 0.484375 2.484375q0.5 0.8125 1.390625 0.8125q0.59375 0 1.265625 -0.53125q0.671875 -0.546875 1.40625 -1.609375l0 -4.234375q-0.390625 -0.1875 -0.859375 -0.28125q-0.46875 -0.09375 -0.9375 -0.09375q-1.296875 0 -2.03125 0.84375q-0.71875 0.828125 -0.71875 2.609375z" fill-rule="nonzero"/><path fill="#000000" fill-opacity="0.0" d="m135.13916 59.900745l61.13385 0l0 28.881886l-61.13385 0z" fill-rule="evenodd"/><path stroke="#efefef" stroke-width="1.0" stroke-linejoin="round" stroke-linecap="butt" d="m135.13916 59.900745l61.13385 0l0 28.881886l-61.13385 0z" fill-rule="evenodd"/><path fill="#efefef" d="m164.63629 81.26169l-7.84375 0l0 -1.421875l3.078125 -3.0625q0.75 -0.75 1.21875 -1.296875q0.484375 -0.546875 0.75 -0.984375q0.265625 -0.453125 0.34375 -0.859375q0.09375 -0.40625 0.09375 -0.859375q0 -0.4375 -0.125 -0.828125q-0.109375 -0.40625 -0.359375 -0.703125q-0.234375 -0.3125 -0.640625 -0.484375q-0.390625 -0.171875 -0.9375 -0.171875q-0.75 0 -1.375 0.34375q-0.609375 0.328125 -1.125 0.875l-0.875 -1.046875q0.671875 -0.71875 1.546875 -1.140625q0.875 -0.421875 2.046875 -0.421875q0.796875 0 1.4375 0.234375q0.65625 0.234375 1.125 0.6875q0.484375 0.4375 0.734375 1.09375q0.265625 0.640625 0.265625 1.453125q0 0.671875 -0.1875 1.265625q-0.171875 0.578125 -0.546875 1.15625q-0.375 0.578125 -0.9375 1.203125q-0.546875 0.609375 -1.3125 1.359375l-2.171875 2.09375l5.796875 0l0 1.515625zm10.194794 -6.625q0 1.75 -0.421875 3.0q-0.421875 1.25 -1.25 2.0625q-0.8125 0.796875 -2.03125 1.1875q-1.203125 0.375 -2.796875 0.375l-0.984375 0l0 -1.390625l1.09375 0q1.1875 0 2.03125 -0.234375q0.859375 -0.234375 1.421875 -0.6875q0.578125 -0.46875 0.875 -1.125q0.3125 -0.65625 0.375 -1.515625l0.046875 -0.359375q-0.578125 0.328125 -1.328125 0.53125q-0.75 0.203125 -1.625 0.203125q-0.890625 0 -1.578125 -0.25q-0.6875 -0.265625 -1.140625 -0.734375q-0.453125 -0.484375 -0.6875 -1.125q-0.21875 -0.65625 -0.21875 -1.421875q0 -0.84375 0.296875 -1.5625q0.3125 -0.71875 0.84375 -1.25q0.546875 -0.53125 1.296875 -0.828125q0.765625 -0.3125 1.671875 -0.3125q0.890625 0 1.640625 0.296875q0.75 0.28125 1.296875 0.9375q0.546875 0.640625 0.859375 1.6875q0.3125 1.03125 0.3125 2.515625zm-4.171875 -4.140625q-0.515625 0 -0.953125 0.171875q-0.421875 0.15625 -0.75 0.484375q-0.3125 0.328125 -0.5 0.796875q-0.171875 0.46875 -0.171875 1.09375q0 0.546875 0.125 0.984375q0.140625 0.4375 0.40625 0.75q0.28125 0.296875 0.71875 0.46875q0.4375 0.15625 1.046875 0.15625q0.328125 0 0.6875 -0.0625q0.375 -0.0625 0.703125 -0.171875q0.34375 -0.109375 0.65625 -0.25q0.3125 -0.15625 0.5625 -0.3125q0 -1.171875 -0.1875 -1.953125q-0.171875 -0.796875 -0.5 -1.265625q-0.3125 -0.484375 -0.796875 -0.6875q-0.46875 -0.203125 -1.046875 -0.203125z" fill-rule="nonzero"/><path fill="#000000" fill-opacity="0.0" d="m236.27301 59.900745l61.13385 0l0 28.881886l-61.13385 0z" fill-rule="evenodd"/><path stroke="#efefef" stroke-width="1.0" stroke-linejoin="round" stroke-linecap="butt" d="m236.27301 59.900745l61.13385 0l0 28.881886l-61.13385 0z" fill-rule="evenodd"/><path fill="#efefef" d="m266.03577 75.30856q0 1.375 -0.28125 2.5q-0.265625 1.125 -0.828125 1.9375q-0.546875 0.796875 -1.375 1.234375q-0.8125 0.4375 -1.9375 0.4375q-0.953125 0 -1.734375 -0.359375q-0.78125 -0.359375 -1.34375 -1.09375q-0.546875 -0.75 -0.859375 -1.90625q-0.296875 -1.15625 -0.296875 -2.75q0 -1.359375 0.28125 -2.484375q0.28125 -1.140625 0.828125 -1.9375q0.546875 -0.8125 1.375 -1.25q0.84375 -0.4375 1.9375 -0.4375q0.953125 0 1.734375 0.359375q0.796875 0.359375 1.34375 1.109375q0.5625 0.75 0.859375 1.90625q0.296875 1.15625 0.296875 2.734375zm-1.59375 0.0625q0 -0.3125 -0.03125 -0.609375q-0.015625 -0.3125 -0.046875 -0.609375l-5.046875 3.75q0.140625 0.46875 0.34375 0.875q0.21875 0.390625 0.515625 0.6875q0.296875 0.28125 0.671875 0.453125q0.375 0.15625 0.859375 0.15625q0.625 0 1.125 -0.296875q0.515625 -0.3125 0.859375 -0.90625q0.359375 -0.59375 0.546875 -1.46875q0.203125 -0.875 0.203125 -2.03125zm-5.453125 -0.109375q0 0.28125 0 0.5625q0 0.28125 0.03125 0.546875l5.046875 -3.734375q-0.140625 -0.453125 -0.359375 -0.828125q-0.203125 -0.390625 -0.5 -0.671875q-0.28125 -0.28125 -0.65625 -0.4375q-0.375 -0.15625 -0.84375 -0.15625q-0.609375 0 -1.125 0.3125q-0.5 0.296875 -0.859375 0.890625q-0.359375 0.59375 -0.546875 1.484375q-0.1875 0.875 -0.1875 2.03125zm17.038544 3.015625q0 0.75 -0.3125 1.34375q-0.3125 0.578125 -0.875 0.984375q-0.546875 0.40625 -1.3125 0.609375q-0.75 0.203125 -1.625 0.203125q-0.984375 0 -1.734375 -0.203125q-0.734375 -0.21875 -1.234375 -0.609375q-0.5 -0.40625 -0.765625 -0.9375q-0.25 -0.53125 -0.25 -1.1875q0 -1.09375 0.609375 -1.875q0.625 -0.796875 1.890625 -1.453125q-1.171875 -0.59375 -1.703125 -1.3125q-0.53125 -0.71875 -0.53125 -1.65625q0 -0.578125 0.234375 -1.109375q0.234375 -0.546875 0.703125 -0.953125q0.484375 -0.421875 1.203125 -0.671875q0.71875 -0.25 1.703125 -0.25q0.921875 0 1.609375 0.203125q0.703125 0.1875 1.171875 0.546875q0.46875 0.359375 0.703125 0.890625q0.25 0.515625 0.25 1.140625q0 1.046875 -0.578125 1.78125q-0.578125 0.71875 -1.640625 1.265625q0.515625 0.265625 0.96875 0.59375q0.46875 0.3125 0.796875 0.703125q0.34375 0.390625 0.53125 0.875q0.1875 0.484375 0.1875 1.078125zm-1.890625 -6.15625q0 -0.8125 -0.578125 -1.203125q-0.5625 -0.40625 -1.59375 -0.40625q-1.015625 0 -1.59375 0.390625q-0.5625 0.390625 -0.5625 1.171875q0 0.359375 0.140625 0.671875q0.140625 0.296875 0.421875 0.5625q0.28125 0.25 0.703125 0.515625q0.4375 0.25 1.03125 0.515625q1.03125 -0.484375 1.53125 -1.0q0.5 -0.53125 0.5 -1.21875zm0.15625 6.265625q0 -0.328125 -0.109375 -0.640625q-0.109375 -0.328125 -0.390625 -0.640625q-0.28125 -0.3125 -0.75 -0.609375q-0.46875 -0.3125 -1.203125 -0.640625q-0.625 0.296875 -1.046875 0.59375q-0.421875 0.296875 -0.6875 0.609375q-0.25 0.296875 -0.359375 0.625q-0.109375 0.328125 -0.109375 0.6875q0 0.40625 0.171875 0.734375q0.1875 0.3125 0.484375 0.53125q0.3125 0.21875 0.734375 0.328125q0.4375 0.109375 0.9375 0.109375q0.484375 0 0.90625 -0.09375q0.4375 -0.109375 0.75 -0.3125q0.3125 -0.203125 0.484375 -0.515625q0.1875 -0.328125 0.1875 -0.765625z" fill-rule="nonzero"/><path fill="#000000" fill-opacity="0.0" d="m135.13916 88.78263l61.13385 0l0 28.88189l-61.13385 0z" fill-rule="evenodd"/><path stroke="#efefef" stroke-width="1.0" stroke-linejoin="round" stroke-linecap="butt" d="m135.13916 88.78263l61.13385 0l0 28.88189l-61.13385 0z" fill-rule="evenodd"/><path fill="#efefef" d="m164.57379 103.51858q0 1.75 -0.421875 3.0q-0.421875 1.25 -1.25 2.0625q-0.8125 0.796875 -2.03125 1.1875q-1.203125 0.375 -2.796875 0.375l-0.984375 0l0 -1.390625l1.09375 0q1.1875 0 2.03125 -0.234375q0.859375 -0.234375 1.421875 -0.6875q0.578125 -0.46875 0.875 -1.125q0.3125 -0.65625 0.375 -1.515625l0.046875 -0.359375q-0.578125 0.328125 -1.328125 0.53125q-0.75 0.203125 -1.625 0.203125q-0.890625 0 -1.578125 -0.25q-0.6875 -0.265625 -1.140625 -0.734375q-0.453125 -0.484375 -0.6875 -1.125q-0.21875 -0.65625 -0.21875 -1.421875q0 -0.84375 0.296875 -1.5625q0.3125 -0.71875 0.84375 -1.25q0.546875 -0.53125 1.296875 -0.828125q0.765625 -0.3125 1.671875 -0.3125q0.890625 0 1.640625 0.296875q0.75 0.28125 1.296875 0.9375q0.546875 0.640625 0.859375 1.6875q0.3125 1.03125 0.3125 2.515625zm-4.171875 -4.140625q-0.515625 0 -0.953125 0.171875q-0.421875 0.15625 -0.75 0.484375q-0.3125 0.328125 -0.5 0.796875q-0.171875 0.46875 -0.171875 1.09375q0 0.546875 0.125 0.984375q0.140625 0.4375 0.40625 0.75q0.28125 0.296875 0.71875 0.46875q0.4375 0.15625 1.046875 0.15625q0.328125 0 0.6875 -0.0625q0.375 -0.0625 0.703125 -0.171875q0.34375 -0.109375 0.65625 -0.25q0.3125 -0.15625 0.5625 -0.3125q0 -1.171875 -0.1875 -1.953125q-0.171875 -0.796875 -0.5 -1.265625q-0.3125 -0.484375 -0.796875 -0.6875q-0.46875 -0.203125 -1.046875 -0.203125zm14.257294 7.15625q0 0.78125 -0.328125 1.46875q-0.3125 0.6875 -0.953125 1.203125q-0.625 0.515625 -1.59375 0.8125q-0.96875 0.28125 -2.25 0.28125q-0.71875 0 -1.28125 -0.046875q-0.5625 -0.03125 -1.046875 -0.109375l0 -1.421875q0.5625 0.09375 1.1875 0.15625q0.625 0.046875 1.28125 0.046875q0.890625 0 1.515625 -0.15625q0.640625 -0.15625 1.046875 -0.453125q0.40625 -0.296875 0.578125 -0.71875q0.1875 -0.4375 0.1875 -0.984375q0 -0.484375 -0.21875 -0.84375q-0.21875 -0.375 -0.625 -0.609375q-0.390625 -0.25 -0.9375 -0.375q-0.546875 -0.125 -1.203125 -0.125l-1.359375 0l0 -1.296875l1.375 0q0.53125 0 0.96875 -0.140625q0.453125 -0.140625 0.765625 -0.40625q0.3125 -0.265625 0.484375 -0.65625q0.171875 -0.390625 0.171875 -0.875q0 -0.953125 -0.59375 -1.390625q-0.578125 -0.4375 -1.703125 -0.4375q-0.609375 0 -1.25 0.125q-0.625 0.109375 -1.359375 0.34375l0 -1.390625q0.3125 -0.109375 0.65625 -0.1875q0.359375 -0.09375 0.703125 -0.140625q0.359375 -0.0625 0.703125 -0.09375q0.34375 -0.03125 0.65625 -0.03125q0.953125 0 1.671875 0.203125q0.71875 0.203125 1.203125 0.59375q0.484375 0.375 0.71875 0.921875q0.25 0.546875 0.25 1.21875q0 1.03125 -0.53125 1.71875q-0.515625 0.6875 -1.421875 1.109375q0.46875 0.0625 0.90625 0.28125q0.453125 0.21875 0.8125 0.5625q0.375 0.34375 0.59375 0.8125q0.21875 0.453125 0.21875 1.03125z" fill-rule="nonzero"/><path fill="#000000" fill-opacity="0.0" d="m236.27301 88.78263l61.13385 0l0 28.88189l-61.13385 0z" fill-rule="evenodd"/><path stroke="#efefef" stroke-width="1.0" stroke-linejoin="round" stroke-linecap="butt" d="m236.27301 88.78263l61.13385 0l0 28.88189l-61.13385 0z" fill-rule="evenodd"/><path fill="#efefef" d="m265.77014 107.1592q0 0.75 -0.3125 1.34375q-0.3125 0.578125 -0.875 0.984375q-0.546875 0.40625 -1.3125 0.609375q-0.75 0.203125 -1.625 0.203125q-0.984375 0 -1.734375 -0.203125q-0.734375 -0.21875 -1.234375 -0.609375q-0.5 -0.40625 -0.765625 -0.9375q-0.25 -0.53125 -0.25 -1.1875q0 -1.09375 0.609375 -1.875q0.625 -0.796875 1.890625 -1.453125q-1.171875 -0.59375 -1.703125 -1.3125q-0.53125 -0.71875 -0.53125 -1.65625q0 -0.578125 0.234375 -1.109375q0.234375 -0.546875 0.703125 -0.953125q0.484375 -0.421875 1.203125 -0.671875q0.71875 -0.25 1.703125 -0.25q0.921875 0 1.609375 0.203125q0.703125 0.1875 1.171875 0.546875q0.46875 0.359375 0.703125 0.890625q0.25 0.515625 0.25 1.140625q0 1.046875 -0.578125 1.78125q-0.578125 0.71875 -1.640625 1.265625q0.515625 0.265625 0.96875 0.59375q0.46875 0.3125 0.796875 0.703125q0.34375 0.390625 0.53125 0.875q0.1875 0.484375 0.1875 1.078125zm-1.890625 -6.15625q0 -0.8125 -0.578125 -1.203125q-0.5625 -0.40625 -1.59375 -0.40625q-1.015625 0 -1.59375 0.390625q-0.5625 0.390625 -0.5625 1.171875q0 0.359375 0.140625 0.671875q0.140625 0.296875 0.421875 0.5625q0.28125 0.25 0.703125 0.515625q0.4375 0.25 1.03125 0.515625q1.03125 -0.484375 1.53125 -1.0q0.5 -0.53125 0.5 -1.21875zm0.15625 6.265625q0 -0.328125 -0.109375 -0.640625q-0.109375 -0.328125 -0.390625 -0.640625q-0.28125 -0.3125 -0.75 -0.609375q-0.46875 -0.3125 -1.203125 -0.640625q-0.625 0.296875 -1.046875 0.59375q-0.421875 0.296875 -0.6875 0.609375q-0.25 0.296875 -0.359375 0.625q-0.109375 0.328125 -0.109375 0.6875q0 0.40625 0.171875 0.734375q0.1875 0.3125 0.484375 0.53125q0.3125 0.21875 0.734375 0.328125q0.4375 0.109375 0.9375 0.109375q0.484375 0 0.90625 -0.09375q0.4375 -0.109375 0.75 -0.3125q0.3125 -0.203125 0.484375 -0.515625q0.1875 -0.328125 0.1875 -0.765625zm3.8041687 -1.5q0 -1.171875 0.3125 -2.078125q0.3125 -0.90625 0.90625 -1.53125q0.59375 -0.625 1.40625 -0.9375q0.828125 -0.328125 1.84375 -0.328125q0.4375 0 0.859375 0.0625q0.421875 0.046875 0.828125 0.15625l0 -3.84375l1.59375 0l0 12.875l-1.421875 0l-0.046875 -1.734375q-0.671875 0.96875 -1.453125 1.4375q-0.765625 0.453125 -1.671875 0.453125q-0.78125 0 -1.375 -0.3125q-0.59375 -0.328125 -1.0 -0.921875q-0.390625 -0.609375 -0.59375 -1.4375q-0.1875 -0.84375 -0.1875 -1.859375zm1.609375 -0.109375q0 1.65625 0.484375 2.484375q0.5 0.8125 1.390625 0.8125q0.59375 0 1.265625 -0.53125q0.671875 -0.546875 1.40625 -1.609375l0 -4.234375q-0.390625 -0.1875 -0.859375 -0.28125q-0.46875 -0.09375 -0.9375 -0.09375q-1.296875 0 -2.03125 0.84375q-0.71875 0.828125 -0.71875 2.609375z" fill-rule="nonzero"/><path fill="#000000" fill-opacity="0.0" d="m135.13916 117.66452l61.13385 0l0 28.881897l-61.13385 0z" fill-rule="evenodd"/><path stroke="#efefef" stroke-width="1.0" stroke-linejoin="round" stroke-linecap="butt" d="m135.13916 117.66452l61.13385 0l0 28.881897l-61.13385 0z" fill-rule="evenodd"/><path fill="#efefef" d="m159.39827 139.02547l-7.46875 0l0 -1.46875l3.0625 0l0 -8.703125l-2.859375 1.546875l-0.578125 -1.34375l3.78125 -1.984375l1.40625 0l0 10.484375l2.65625 0l0 1.46875zm10.366669 0l-7.84375 0l0 -1.421875l3.078125 -3.0625q0.75 -0.75 1.21875 -1.296875q0.484375 -0.546875 0.75 -0.984375q0.265625 -0.453125 0.34375 -0.859375q0.09375 -0.40625 0.09375 -0.859375q0 -0.4375 -0.125 -0.828125q-0.109375 -0.40625 -0.359375 -0.703125q-0.234375 -0.3125 -0.640625 -0.484375q-0.390625 -0.171875 -0.9375 -0.171875q-0.75 0 -1.375 0.34375q-0.609375 0.328125 -1.125 0.875l-0.875 -1.046875q0.671875 -0.71875 1.546875 -1.140625q0.875 -0.421875 2.046875 -0.421875q0.796875 0 1.4375 0.234375q0.65625 0.234375 1.125 0.6875q0.484375 0.4375 0.734375 1.09375q0.265625 0.640625 0.265625 1.453125q0 0.671875 -0.1875 1.265625q-0.171875 0.578125 -0.546875 1.15625q-0.375 0.578125 -0.9375 1.203125q-0.546875 0.609375 -1.3125 1.359375l-2.171875 2.09375l5.796875 0l0 1.515625zm10.257294 0l-7.84375 0l0 -1.421875l3.078125 -3.0625q0.75 -0.75 1.21875 -1.296875q0.484375 -0.546875 0.75 -0.984375q0.265625 -0.453125 0.34375 -0.859375q0.09375 -0.40625 0.09375 -0.859375q0 -0.4375 -0.125 -0.828125q-0.109375 -0.40625 -0.359375 -0.703125q-0.234375 -0.3125 -0.640625 -0.484375q-0.390625 -0.171875 -0.9375 -0.171875q-0.75 0 -1.375 0.34375q-0.609375 0.328125 -1.125 0.875l-0.875 -1.046875q0.671875 -0.71875 1.546875 -1.140625q0.875 -0.421875 2.046875 -0.421875q0.796875 0 1.4375 0.234375q0.65625 0.234375 1.125 0.6875q0.484375 0.4375 0.734375 1.09375q0.265625 0.640625 0.265625 1.453125q0 0.671875 -0.1875 1.265625q-0.171875 0.578125 -0.546875 1.15625q-0.375 0.578125 -0.9375 1.203125q-0.546875 0.609375 -1.3125 1.359375l-2.171875 2.09375l5.796875 0l0 1.515625z" fill-rule="nonzero"/><path fill="#000000" fill-opacity="0.0" d="m236.27301 117.66452l61.13385 0l0 28.881897l-61.13385 0z" fill-rule="evenodd"/><path stroke="#efefef" stroke-width="1.0" stroke-linejoin="round" stroke-linecap="butt" d="m236.27301 117.66452l61.13385 0l0 28.881897l-61.13385 0z" fill-rule="evenodd"/><path fill="#efefef" d="m265.8639 134.29109q0 1.140625 -0.328125 2.046875q-0.3125 0.890625 -0.890625 1.515625q-0.578125 0.609375 -1.40625 0.953125q-0.828125 0.328125 -1.859375 0.328125q-0.8125 0 -1.671875 -0.15625q-0.84375 -0.15625 -1.671875 -0.484375l0 -12.34375l1.59375 0l0 3.546875l-0.078125 1.6875q0.6875 -0.90625 1.453125 -1.28125q0.78125 -0.390625 1.6875 -0.390625q0.78125 0 1.375 0.328125q0.59375 0.328125 0.984375 0.9375q0.40625 0.59375 0.609375 1.4375q0.203125 0.828125 0.203125 1.875zm-1.625 0.0625q0 -0.71875 -0.109375 -1.3125q-0.109375 -0.609375 -0.34375 -1.03125q-0.21875 -0.421875 -0.578125 -0.65625q-0.34375 -0.25 -0.84375 -0.25q-0.296875 0 -0.609375 0.09375q-0.3125 0.09375 -0.640625 0.328125q-0.328125 0.21875 -0.703125 0.59375q-0.359375 0.359375 -0.78125 0.90625l0 4.4375q0.453125 0.171875 0.9375 0.28125q0.484375 0.109375 0.921875 0.109375q0.546875 0 1.046875 -0.171875q0.5 -0.171875 0.875 -0.578125q0.375 -0.40625 0.59375 -1.078125q0.234375 -0.671875 0.234375 -1.671875zm9.929169 4.671875l-0.03125 -1.234375q-0.75 0.75 -1.515625 1.078125q-0.765625 0.3125 -1.625 0.3125q-0.78125 0 -1.34375 -0.1875q-0.546875 -0.203125 -0.90625 -0.546875q-0.359375 -0.359375 -0.53125 -0.828125q-0.15625 -0.484375 -0.15625 -1.03125q0 -1.375 1.015625 -2.15625q1.03125 -0.78125 3.03125 -0.78125l1.890625 0l0 -0.796875q0 -0.8125 -0.515625 -1.296875q-0.515625 -0.5 -1.578125 -0.5q-0.78125 0 -1.53125 0.1875q-0.75 0.171875 -1.546875 0.484375l0 -1.4375q0.296875 -0.109375 0.65625 -0.203125q0.375 -0.109375 0.78125 -0.1875q0.40625 -0.078125 0.859375 -0.125q0.453125 -0.0625 0.90625 -0.0625q0.828125 0 1.484375 0.1875q0.671875 0.171875 1.125 0.546875q0.46875 0.375 0.703125 0.953125q0.25 0.5625 0.25 1.328125l0 6.296875l-1.421875 0zm-0.171875 -4.15625l-2.015625 0q-0.578125 0 -1.015625 0.125q-0.421875 0.109375 -0.703125 0.328125q-0.265625 0.21875 -0.40625 0.53125q-0.125 0.296875 -0.125 0.671875q0 0.265625 0.078125 0.515625q0.078125 0.234375 0.265625 0.421875q0.1875 0.1875 0.46875 0.296875q0.296875 0.109375 0.71875 0.109375q0.546875 0 1.25 -0.328125q0.703125 -0.34375 1.484375 -1.0625l0 -1.609375z" fill-rule="nonzero"/><path fill="#000000" fill-opacity="0.0" d="m103.10241 219.36269l61.133858 0l0 28.881897l-61.133858 0z" fill-rule="evenodd"/><path stroke="#efefef" stroke-width="1.0" stroke-linejoin="round" stroke-linecap="butt" d="m103.10241 219.36269l61.133858 0l0 28.881897l-61.133858 0z" fill-rule="evenodd"/><path fill="#efefef" d="m132.49017 240.72363l-7.4687576 0l0 -1.46875l3.0625076 0l0 -8.703125l-2.8593826 1.546875l-0.578125 -1.34375l3.7812576 -1.984375l1.40625 0l0 10.484375l2.65625 0l0 1.46875zm10.304169 -6.625q0 1.75 -0.421875 3.0q-0.421875 1.25 -1.25 2.0625q-0.8125 0.796875 -2.03125 1.1875q-1.203125 0.375 -2.796875 0.375l-0.984375 0l0 -1.390625l1.09375 0q1.1875 0 2.03125 -0.234375q0.859375 -0.234375 1.421875 -0.6875q0.578125 -0.46875 0.875 -1.125q0.3125 -0.65625 0.375 -1.515625l0.046875 -0.359375q-0.578125 0.328125 -1.328125 0.53125q-0.75 0.203125 -1.625 0.203125q-0.890625 0 -1.578125 -0.25q-0.6875 -0.265625 -1.140625 -0.734375q-0.453125 -0.484375 -0.6875 -1.125q-0.21875 -0.65625 -0.21875 -1.421875q0 -0.84375 0.296875 -1.5625q0.3125 -0.71875 0.84375 -1.25q0.546875 -0.53125 1.296875 -0.828125q0.765625 -0.3125 1.671875 -0.3125q0.890625 0 1.640625 0.296875q0.75 0.28125 1.296875 0.9375q0.546875 0.640625 0.859375 1.6875q0.3125 1.03125 0.3125 2.515625zm-4.171875 -4.140625q-0.515625 0 -0.953125 0.171875q-0.421875 0.15625 -0.75 0.484375q-0.3125 0.328125 -0.5 0.796875q-0.171875 0.46875 -0.171875 1.09375q0 0.546875 0.125 0.984375q0.140625 0.4375 0.40625 0.75q0.28125 0.296875 0.71875 0.46875q0.4375 0.15625 1.046875 0.15625q0.328125 0 0.6875 -0.0625q0.375 -0.0625 0.703125 -0.171875q0.34375 -0.109375 0.65625 -0.25q0.3125 -0.15625 0.5625 -0.3125q0 -1.171875 -0.1875 -1.953125q-0.171875 -0.796875 -0.5 -1.265625q-0.3125 -0.484375 -0.796875 -0.6875q-0.46875 -0.203125 -1.046875 -0.203125z" fill-rule="nonzero"/><path fill="#000000" fill-opacity="0.0" d="m1.9685504 219.36269l61.133858 0l0 28.881897l-61.133858 0z" fill-rule="evenodd"/><path stroke="#efefef" stroke-width="1.0" stroke-linejoin="round" stroke-linecap="butt" d="m1.9685504 219.36269l61.133858 0l0 28.881897l-61.133858 0z" fill-rule="evenodd"/><path fill="#efefef" d="m36.85996 234.77051q0 1.375 -0.28125 2.5q-0.265625 1.125 -0.828125 1.9375q-0.546875 0.796875 -1.375 1.234375q-0.8125 0.4375 -1.9375 0.4375q-0.9531269 0 -1.7343769 -0.359375q-0.78125 -0.359375 -1.34375 -1.09375q-0.546875 -0.75 -0.859375 -1.90625q-0.296875 -1.15625 -0.296875 -2.75q0 -1.359375 0.28125 -2.484375q0.28125 -1.140625 0.828125 -1.9375q0.546875 -0.8125 1.375 -1.25q0.84375 -0.4375 1.9375019 -0.4375q0.953125 0 1.734375 0.359375q0.796875 0.359375 1.34375 1.109375q0.5625 0.75 0.859375 1.90625q0.296875 1.15625 0.296875 2.734375zm-1.59375 0.0625q0 -0.3125 -0.03125 -0.609375q-0.015625 -0.3125 -0.046875 -0.609375l-5.046877 3.75q0.140625 0.46875 0.34375 0.875q0.21875 0.390625 0.515625 0.6875q0.296875 0.28125 0.671875 0.453125q0.3750019 0.15625 0.8593769 0.15625q0.625 0 1.125 -0.296875q0.515625 -0.3125 0.859375 -0.90625q0.359375 -0.59375 0.546875 -1.46875q0.203125 -0.875 0.203125 -2.03125zm-5.453127 -0.109375q0 0.28125 0 0.5625q0 0.28125 0.03125 0.546875l5.046877 -3.734375q-0.140625 -0.453125 -0.359375 -0.828125q-0.203125 -0.390625 -0.5 -0.671875q-0.28125 -0.28125 -0.65625 -0.4375q-0.375 -0.15625 -0.84375 -0.15625q-0.6093769 0 -1.1250019 0.3125q-0.5 0.296875 -0.859375 0.890625q-0.359375 0.59375 -0.546875 1.484375q-0.1875 0.875 -0.1875 2.03125z" fill-rule="nonzero"/><path fill="#000000" fill-opacity="0.0" d="m103.10241 248.24458l61.133858 0l0 28.881882l-61.133858 0z" fill-rule="evenodd"/><path stroke="#efefef" stroke-width="1.0" stroke-linejoin="round" stroke-linecap="butt" d="m103.10241 248.24458l61.133858 0l0 28.881882l-61.133858 0z" fill-rule="evenodd"/><path fill="#efefef" d="m127.470894 269.60553l-7.84375 0l0 -1.421875l3.078125 -3.0625q0.75 -0.75 1.21875 -1.296875q0.484375 -0.546875 0.75 -0.984375q0.265625 -0.453125 0.34375 -0.859375q0.09375 -0.40625 0.09375 -0.859375q0 -0.4375 -0.125 -0.828125q-0.109375 -0.40625 -0.359375 -0.703125q-0.234375 -0.3125 -0.640625 -0.484375q-0.390625 -0.171875 -0.9375 -0.171875q-0.75 0 -1.375 0.34375q-0.609375 0.328125 -1.125 0.875l-0.875 -1.046875q0.671875 -0.71875 1.546875 -1.140625q0.875 -0.421875 2.046875 -0.421875q0.796875 0 1.4375 0.234375q0.65625 0.234375 1.125 0.6875q0.484375 0.4375 0.734375 1.09375q0.265625 0.640625 0.265625 1.453125q0 0.671875 -0.1875 1.265625q-0.171875 0.578125 -0.546875 1.15625q-0.375 0.578125 -0.9375 1.203125q-0.546875 0.609375 -1.3125 1.359375l-2.171875 2.09375l5.796875 0l0 1.515625zm10.522926 -5.953125q0 1.375 -0.28125 2.5q-0.265625 1.125 -0.828125 1.9375q-0.546875 0.796875 -1.375 1.234375q-0.8125 0.4375 -1.9375 0.4375q-0.953125 0 -1.734375 -0.359375q-0.78125 -0.359375 -1.34375 -1.09375q-0.546875 -0.75 -0.859375 -1.90625q-0.296875 -1.15625 -0.296875 -2.75q0 -1.359375 0.28125 -2.484375q0.28125 -1.140625 0.828125 -1.9375q0.546875 -0.8125 1.375 -1.25q0.84375 -0.4375 1.9375 -0.4375q0.953125 0 1.734375 0.359375q0.796875 0.359375 1.34375 1.109375q0.5625 0.75 0.859375 1.90625q0.296875 1.15625 0.296875 2.734375zm-1.59375 0.0625q0 -0.3125 -0.03125 -0.609375q-0.015625 -0.3125 -0.046875 -0.609375l-5.046875 3.75q0.140625 0.46875 0.34375 0.875q0.21875 0.390625 0.515625 0.6875q0.296875 0.28125 0.671875 0.453125q0.375 0.15625 0.859375 0.15625q0.625 0 1.125 -0.296875q0.515625 -0.3125 0.859375 -0.90625q0.359375 -0.59375 0.546875 -1.46875q0.203125 -0.875 0.203125 -2.03125zm-5.453125 -0.109375q0 0.28125 0 0.5625q0 0.28125 0.03125 0.546875l5.046875 -3.734375q-0.140625 -0.453125 -0.359375 -0.828125q-0.203125 -0.390625 -0.5 -0.671875q-0.28125 -0.28125 -0.65625 -0.4375q-0.375 -0.15625 -0.84375 -0.15625q-0.609375 0 -1.125 0.3125q-0.5 0.296875 -0.859375 0.890625q-0.359375 0.59375 -0.546875 1.484375q-0.1875 0.875 -0.1875 2.03125zm17.179169 2.234375q0 0.8125 -0.296875 1.53125q-0.296875 0.71875 -0.84375 1.25q-0.546875 0.53125 -1.3125 0.84375q-0.765625 0.296875 -1.703125 0.296875q-0.984375 0 -1.75 -0.3125q-0.75 -0.3125 -1.265625 -0.953125q-0.5 -0.65625 -0.765625 -1.640625q-0.265625 -1.0 -0.265625 -2.359375q0 -0.90625 0.109375 -1.765625q0.125 -0.859375 0.390625 -1.609375q0.28125 -0.765625 0.734375 -1.390625q0.453125 -0.625 1.125 -1.078125q0.6875 -0.453125 1.609375 -0.703125q0.921875 -0.25 2.125 -0.25l1.1875 0l0 1.390625l-1.28125 0q-1.0625 0 -1.859375 0.25q-0.78125 0.25 -1.3125 0.71875q-0.515625 0.46875 -0.796875 1.125q-0.28125 0.65625 -0.359375 1.46875l-0.03125 0.359375q0.5625 -0.328125 1.3125 -0.53125q0.765625 -0.203125 1.640625 -0.203125q0.890625 0 1.5625 0.265625q0.6875 0.25 1.140625 0.734375q0.453125 0.46875 0.671875 1.125q0.234375 0.640625 0.234375 1.4375zm-1.65625 0.09375q0 -0.546875 -0.140625 -0.984375q-0.125 -0.4375 -0.40625 -0.75q-0.28125 -0.3125 -0.71875 -0.46875q-0.4375 -0.171875 -1.03125 -0.171875q-0.34375 0 -0.703125 0.0625q-0.359375 0.0625 -0.703125 0.1875q-0.328125 0.109375 -0.640625 0.25q-0.3125 0.140625 -0.5625 0.3125q0 1.171875 0.15625 1.96875q0.171875 0.78125 0.484375 1.25q0.328125 0.46875 0.796875 0.671875q0.484375 0.203125 1.09375 0.203125q0.53125 0 0.953125 -0.15625q0.4375 -0.171875 0.75 -0.5q0.3125 -0.328125 0.484375 -0.796875q0.1875 -0.46875 0.1875 -1.078125z" fill-rule="nonzero"/><path fill="#000000" fill-opacity="0.0" d="m1.9685504 248.24458l61.133858 0l0 28.881882l-61.133858 0z" fill-rule="evenodd"/><path stroke="#efefef" stroke-width="1.0" stroke-linejoin="round" stroke-linecap="butt" d="m1.9685504 248.24458l61.133858 0l0 28.881882l-61.133858 0z" fill-rule="evenodd"/><path fill="#efefef" d="m36.48496 269.60553l-7.468752 0l0 -1.46875l3.062502 0l0 -8.703125l-2.859377 1.546875l-0.578125 -1.34375l3.781252 -1.984375l1.40625 0l0 10.484375l2.65625 0l0 1.46875z" fill-rule="nonzero"/><path fill="#000000" fill-opacity="0.0" d="m103.10241 277.12646l61.133858 0l0 28.881897l-61.133858 0z" fill-rule="evenodd"/><path stroke="#efefef" stroke-width="1.0" stroke-linejoin="round" stroke-linecap="butt" d="m103.10241 277.12646l61.133858 0l0 28.881897l-61.133858 0z" fill-rule="evenodd"/><path fill="#efefef" d="m132.59955 298.4874l-7.8437576 0l0 -1.421875l3.078125 -3.0625q0.7500076 -0.75 1.2187576 -1.296875q0.484375 -0.546875 0.75 -0.984375q0.265625 -0.453125 0.34375 -0.859375q0.09375 -0.40625 0.09375 -0.859375q0 -0.4375 -0.125 -0.828125q-0.109375 -0.40625 -0.359375 -0.703125q-0.234375 -0.3125 -0.640625 -0.484375q-0.390625 -0.171875 -0.9375 -0.171875q-0.7500076 0 -1.3750076 0.34375q-0.609375 0.328125 -1.125 0.875l-0.875 -1.046875q0.671875 -0.71875 1.546875 -1.140625q0.875 -0.421875 2.0468826 -0.421875q0.796875 0 1.4375 0.234375q0.65625 0.234375 1.125 0.6875q0.484375 0.4375 0.734375 1.09375q0.265625 0.640625 0.265625 1.453125q0 0.671875 -0.1875 1.265625q-0.171875 0.578125 -0.546875 1.15625q-0.375 0.578125 -0.9375 1.203125q-0.546875 0.609375 -1.3125 1.359375l-2.1718826 2.09375l5.7968826 0l0 1.515625zm10.194794 -6.625q0 1.75 -0.421875 3.0q-0.421875 1.25 -1.25 2.0625q-0.8125 0.796875 -2.03125 1.1875q-1.203125 0.375 -2.796875 0.375l-0.984375 0l0 -1.390625l1.09375 0q1.1875 0 2.03125 -0.234375q0.859375 -0.234375 1.421875 -0.6875q0.578125 -0.46875 0.875 -1.125q0.3125 -0.65625 0.375 -1.515625l0.046875 -0.359375q-0.578125 0.328125 -1.328125 0.53125q-0.75 0.203125 -1.625 0.203125q-0.890625 0 -1.578125 -0.25q-0.6875 -0.265625 -1.140625 -0.734375q-0.453125 -0.484375 -0.6875 -1.125q-0.21875 -0.65625 -0.21875 -1.421875q0 -0.84375 0.296875 -1.5625q0.3125 -0.71875 0.84375 -1.25q0.546875 -0.53125 1.296875 -0.828125q0.765625 -0.3125 1.671875 -0.3125q0.890625 0 1.640625 0.296875q0.75 0.28125 1.296875 0.9375q0.546875 0.640625 0.859375 1.6875q0.3125 1.03125 0.3125 2.515625zm-4.171875 -4.140625q-0.515625 0 -0.953125 0.171875q-0.421875 0.15625 -0.75 0.484375q-0.3125 0.328125 -0.5 0.796875q-0.171875 0.46875 -0.171875 1.09375q0 0.546875 0.125 0.984375q0.140625 0.4375 0.40625 0.75q0.28125 0.296875 0.71875 0.46875q0.4375 0.15625 1.046875 0.15625q0.328125 0 0.6875 -0.0625q0.375 -0.0625 0.703125 -0.171875q0.34375 -0.109375 0.65625 -0.25q0.3125 -0.15625 0.5625 -0.3125q0 -1.171875 -0.1875 -1.953125q-0.171875 -0.796875 -0.5 -1.265625q-0.3125 -0.484375 -0.796875 -0.6875q-0.46875 -0.203125 -1.046875 -0.203125z" fill-rule="nonzero"/><path fill="#000000" fill-opacity="0.0" d="m1.9685504 277.12646l61.133858 0l0 28.881897l-61.133858 0z" fill-rule="evenodd"/><path stroke="#efefef" stroke-width="1.0" stroke-linejoin="round" stroke-linecap="butt" d="m1.9685504 277.12646l61.133858 0l0 28.881897l-61.133858 0z" fill-rule="evenodd"/><path fill="#efefef" d="m36.594334 298.4874l-7.843752 0l0 -1.421875l3.078125 -3.0625q0.7500019 -0.75 1.2187519 -1.296875q0.484375 -0.546875 0.75 -0.984375q0.265625 -0.453125 0.34375 -0.859375q0.09375 -0.40625 0.09375 -0.859375q0 -0.4375 -0.125 -0.828125q-0.109375 -0.40625 -0.359375 -0.703125q-0.234375 -0.3125 -0.640625 -0.484375q-0.390625 -0.171875 -0.9375 -0.171875q-0.7500019 0 -1.3750019 0.34375q-0.609375 0.328125 -1.125 0.875l-0.875 -1.046875q0.671875 -0.71875 1.546875 -1.140625q0.875 -0.421875 2.046877 -0.421875q0.796875 0 1.4375 0.234375q0.65625 0.234375 1.125 0.6875q0.484375 0.4375 0.734375 1.09375q0.265625 0.640625 0.265625 1.453125q0 0.671875 -0.1875 1.265625q-0.171875 0.578125 -0.546875 1.15625q-0.375 0.578125 -0.9375 1.203125q-0.546875 0.609375 -1.3125 1.359375l-2.171877 2.09375l5.796877 0l0 1.515625z" fill-rule="nonzero"/><path fill="#000000" fill-opacity="0.0" d="m103.10241 306.00836l61.133858 0l0 28.881897l-61.133858 0z" fill-rule="evenodd"/><path stroke="#efefef" stroke-width="1.0" stroke-linejoin="round" stroke-linecap="butt" d="m103.10241 306.00836l61.133858 0l0 28.881897l-61.133858 0z" fill-rule="evenodd"/><path fill="#efefef" d="m132.53705 320.7443q0 1.75 -0.421875 3.0q-0.421875 1.25 -1.25 2.0625q-0.8125 0.796875 -2.03125 1.1875q-1.2031326 0.375 -2.7968826 0.375l-0.984375 0l0 -1.390625l1.09375 0q1.1875 0 2.0312576 -0.234375q0.859375 -0.234375 1.421875 -0.6875q0.578125 -0.46875 0.875 -1.125q0.3125 -0.65625 0.375 -1.515625l0.046875 -0.359375q-0.578125 0.328125 -1.328125 0.53125q-0.75 0.203125 -1.6250076 0.203125q-0.890625 0 -1.578125 -0.25q-0.6875 -0.265625 -1.140625 -0.734375q-0.453125 -0.484375 -0.6875 -1.125q-0.21875 -0.65625 -0.21875 -1.421875q0 -0.84375 0.296875 -1.5625q0.3125 -0.71875 0.84375 -1.25q0.546875 -0.53125 1.296875 -0.828125q0.765625 -0.3125 1.6718826 -0.3125q0.890625 0 1.640625 0.296875q0.75 0.28125 1.296875 0.9375q0.546875 0.640625 0.859375 1.6875q0.3125 1.03125 0.3125 2.515625zm-4.171875 -4.140625q-0.5156326 0 -0.9531326 0.171875q-0.421875 0.15625 -0.75 0.484375q-0.3125 0.328125 -0.5 0.796875q-0.171875 0.46875 -0.171875 1.09375q0 0.546875 0.125 0.984375q0.140625 0.4375 0.40625 0.75q0.28125 0.296875 0.71875 0.46875q0.4375 0.15625 1.0468826 0.15625q0.328125 0 0.6875 -0.0625q0.375 -0.0625 0.703125 -0.171875q0.34375 -0.109375 0.65625 -0.25q0.3125 -0.15625 0.5625 -0.3125q0 -1.171875 -0.1875 -1.953125q-0.171875 -0.796875 -0.5 -1.265625q-0.3125 -0.484375 -0.796875 -0.6875q-0.46875 -0.203125 -1.046875 -0.203125zm14.257294 7.15625q0 0.78125 -0.328125 1.46875q-0.3125 0.6875 -0.953125 1.203125q-0.625 0.515625 -1.59375 0.8125q-0.96875 0.28125 -2.25 0.28125q-0.71875 0 -1.28125 -0.046875q-0.5625 -0.03125 -1.046875 -0.109375l0 -1.421875q0.5625 0.09375 1.1875 0.15625q0.625 0.046875 1.28125 0.046875q0.890625 0 1.515625 -0.15625q0.640625 -0.15625 1.046875 -0.453125q0.40625 -0.296875 0.578125 -0.71875q0.1875 -0.4375 0.1875 -0.984375q0 -0.484375 -0.21875 -0.84375q-0.21875 -0.375 -0.625 -0.609375q-0.390625 -0.25 -0.9375 -0.375q-0.546875 -0.125 -1.203125 -0.125l-1.359375 0l0 -1.296875l1.375 0q0.53125 0 0.96875 -0.140625q0.453125 -0.140625 0.765625 -0.40625q0.3125 -0.265625 0.484375 -0.65625q0.171875 -0.390625 0.171875 -0.875q0 -0.953125 -0.59375 -1.390625q-0.578125 -0.4375 -1.703125 -0.4375q-0.609375 0 -1.25 0.125q-0.625 0.109375 -1.359375 0.34375l0 -1.390625q0.3125 -0.109375 0.65625 -0.1875q0.359375 -0.09375 0.703125 -0.140625q0.359375 -0.0625 0.703125 -0.09375q0.34375 -0.03125 0.65625 -0.03125q0.953125 0 1.671875 0.203125q0.71875 0.203125 1.203125 0.59375q0.484375 0.375 0.71875 0.921875q0.25 0.546875 0.25 1.21875q0 1.03125 -0.53125 1.71875q-0.515625 0.6875 -1.421875 1.109375q0.46875 0.0625 0.90625 0.28125q0.453125 0.21875 0.8125 0.5625q0.375 0.34375 0.59375 0.8125q0.21875 0.453125 0.21875 1.03125z" fill-rule="nonzero"/><path fill="#000000" fill-opacity="0.0" d="m1.9685504 306.00836l61.133858 0l0 28.881897l-61.133858 0z" fill-rule="evenodd"/><path stroke="#efefef" stroke-width="1.0" stroke-linejoin="round" stroke-linecap="butt" d="m1.9685504 306.00836l61.133858 0l0 28.881897l-61.133858 0z" fill-rule="evenodd"/><path fill="#efefef" d="m36.35996 323.75992q0 0.78125 -0.328125 1.46875q-0.3125 0.6875 -0.953125 1.203125q-0.625 0.515625 -1.59375 0.8125q-0.96875 0.28125 -2.250002 0.28125q-0.71875 0 -1.28125 -0.046875q-0.5625 -0.03125 -1.046875 -0.109375l0 -1.421875q0.5625 0.09375 1.1875 0.15625q0.625 0.046875 1.28125 0.046875q0.8906269 0 1.5156269 -0.15625q0.640625 -0.15625 1.046875 -0.453125q0.40625 -0.296875 0.578125 -0.71875q0.1875 -0.4375 0.1875 -0.984375q0 -0.484375 -0.21875 -0.84375q-0.21875 -0.375 -0.625 -0.609375q-0.390625 -0.25 -0.9375 -0.375q-0.546875 -0.125 -1.2031269 -0.125l-1.359375 0l0 -1.296875l1.375 0q0.5312519 0 0.9687519 -0.140625q0.453125 -0.140625 0.765625 -0.40625q0.3125 -0.265625 0.484375 -0.65625q0.171875 -0.390625 0.171875 -0.875q0 -0.953125 -0.59375 -1.390625q-0.578125 -0.4375 -1.7031269 -0.4375q-0.609375 0 -1.25 0.125q-0.625 0.109375 -1.359375 0.34375l0 -1.390625q0.3125 -0.109375 0.65625 -0.1875q0.359375 -0.09375 0.703125 -0.140625q0.359375 -0.0625 0.703125 -0.09375q0.34375 -0.03125 0.65625 -0.03125q0.9531269 0 1.6718769 0.203125q0.71875 0.203125 1.203125 0.59375q0.484375 0.375 0.71875 0.921875q0.25 0.546875 0.25 1.21875q0 1.03125 -0.53125 1.71875q-0.515625 0.6875 -1.421875 1.109375q0.46875 0.0625 0.90625 0.28125q0.453125 0.21875 0.8125 0.5625q0.375 0.34375 0.59375 0.8125q0.21875 0.453125 0.21875 1.03125z" fill-rule="nonzero"/><path fill="#000000" fill-opacity="0.0" d="m103.10241 334.89026l61.133858 0l0 28.881866l-61.133858 0z" fill-rule="evenodd"/><path stroke="#efefef" stroke-width="1.0" stroke-linejoin="round" stroke-linecap="butt" d="m103.10241 334.89026l61.133858 0l0 28.881866l-61.133858 0z" fill-rule="evenodd"/><path fill="#efefef" d="m127.36152 356.2512l-7.46875 0l0 -1.46875l3.0625 0l0 -8.703125l-2.859375 1.546875l-0.578125 -1.34375l3.78125 -1.984375l1.40625 0l0 10.484375l2.65625 0l0 1.46875zm10.366676 0l-7.84375 0l0 -1.421875l3.078125 -3.0625q0.75 -0.75 1.21875 -1.296875q0.484375 -0.546875 0.75 -0.984375q0.265625 -0.453125 0.34375 -0.859375q0.09375 -0.40625 0.09375 -0.859375q0 -0.4375 -0.125 -0.828125q-0.109375 -0.40625 -0.359375 -0.703125q-0.234375 -0.3125 -0.640625 -0.484375q-0.390625 -0.171875 -0.9375 -0.171875q-0.75 0 -1.375 0.34375q-0.609375 0.328125 -1.125 0.875l-0.875 -1.046875q0.671875 -0.71875 1.546875 -1.140625q0.875 -0.421875 2.046875 -0.421875q0.796875 0 1.4375 0.234375q0.65625 0.234375 1.125 0.6875q0.484375 0.4375 0.734375 1.09375q0.265625 0.640625 0.265625 1.453125q0 0.671875 -0.1875 1.265625q-0.171875 0.578125 -0.546875 1.15625q-0.375 0.578125 -0.9375 1.203125q-0.546875 0.609375 -1.3125 1.359375l-2.171875 2.09375l5.796875 0l0 1.515625zm10.257294 0l-7.84375 0l0 -1.421875l3.078125 -3.0625q0.75 -0.75 1.21875 -1.296875q0.484375 -0.546875 0.75 -0.984375q0.265625 -0.453125 0.34375 -0.859375q0.09375 -0.40625 0.09375 -0.859375q0 -0.4375 -0.125 -0.828125q-0.109375 -0.40625 -0.359375 -0.703125q-0.234375 -0.3125 -0.640625 -0.484375q-0.390625 -0.171875 -0.9375 -0.171875q-0.75 0 -1.375 0.34375q-0.609375 0.328125 -1.125 0.875l-0.875 -1.046875q0.671875 -0.71875 1.546875 -1.140625q0.875 -0.421875 2.046875 -0.421875q0.796875 0 1.4375 0.234375q0.65625 0.234375 1.125 0.6875q0.484375 0.4375 0.734375 1.09375q0.265625 0.640625 0.265625 1.453125q0 0.671875 -0.1875 1.265625q-0.171875 0.578125 -0.546875 1.15625q-0.375 0.578125 -0.9375 1.203125q-0.546875 0.609375 -1.3125 1.359375l-2.171875 2.09375l5.796875 0l0 1.515625z" fill-rule="nonzero"/><path fill="#000000" fill-opacity="0.0" d="m1.9685504 334.89026l61.133858 0l0 28.881866l-61.133858 0z" fill-rule="evenodd"/><path stroke="#efefef" stroke-width="1.0" stroke-linejoin="round" stroke-linecap="butt" d="m1.9685504 334.89026l61.133858 0l0 28.881866l-61.133858 0z" fill-rule="evenodd"/><path fill="#efefef" d="m37.188084 353.6262l-2.03125 0l0 2.625l-1.625 0l0 -2.625l-5.734377 0l0 -1.40625l5.078127 -7.875l2.28125 0l0 7.875l2.03125 0l0 1.40625zm-3.65625 -7.75l-4.140627 6.34375l4.140627 0l0 -6.34375z" fill-rule="nonzero"/><path fill="#000000" fill-opacity="0.0" d="m331.27563 218.08972l61.13385 0l0 28.881882l-61.13385 0z" fill-rule="evenodd"/><path stroke="#efefef" stroke-width="1.0" stroke-linejoin="round" stroke-linecap="butt" d="m331.27563 218.08972l61.13385 0l0 28.881882l-61.13385 0z" fill-rule="evenodd"/><path fill="#efefef" d="m366.16705 233.49754q0 1.375 -0.28125 2.5q-0.265625 1.125 -0.828125 1.9375q-0.546875 0.796875 -1.375 1.234375q-0.8125 0.4375 -1.9375 0.4375q-0.953125 0 -1.734375 -0.359375q-0.78125 -0.359375 -1.34375 -1.09375q-0.546875 -0.75 -0.859375 -1.90625q-0.296875 -1.15625 -0.296875 -2.75q0 -1.359375 0.28125 -2.484375q0.28125 -1.140625 0.828125 -1.9375q0.546875 -0.8125 1.375 -1.25q0.84375 -0.4375 1.9375 -0.4375q0.953125 0 1.734375 0.359375q0.796875 0.359375 1.34375 1.109375q0.5625 0.75 0.859375 1.90625q0.296875 1.15625 0.296875 2.734375zm-1.59375 0.0625q0 -0.3125 -0.03125 -0.609375q-0.015625 -0.3125 -0.046875 -0.609375l-5.046875 3.75q0.140625 0.46875 0.34375 0.875q0.21875 0.390625 0.515625 0.6875q0.296875 0.28125 0.671875 0.453125q0.375 0.15625 0.859375 0.15625q0.625 0 1.125 -0.296875q0.515625 -0.3125 0.859375 -0.90625q0.359375 -0.59375 0.546875 -1.46875q0.203125 -0.875 0.203125 -2.03125zm-5.453125 -0.109375q0 0.28125 0 0.5625q0 0.28125 0.03125 0.546875l5.046875 -3.734375q-0.140625 -0.453125 -0.359375 -0.828125q-0.203125 -0.390625 -0.5 -0.671875q-0.28125 -0.28125 -0.65625 -0.4375q-0.375 -0.15625 -0.84375 -0.15625q-0.609375 0 -1.125 0.3125q-0.5 0.296875 -0.859375 0.890625q-0.359375 0.59375 -0.546875 1.484375q-0.1875 0.875 -0.1875 2.03125z" fill-rule="nonzero"/><path fill="#000000" fill-opacity="0.0" d="m392.4095 218.08972l61.13388 0l0 28.881882l-61.13388 0z" fill-rule="evenodd"/><path stroke="#efefef" stroke-width="1.0" stroke-linejoin="round" stroke-linecap="butt" d="m392.4095 218.08972l61.13388 0l0 28.881882l-61.13388 0z" fill-rule="evenodd"/><path fill="#efefef" d="m422.29724 228.06004q-1.25 -0.265625 -2.15625 -0.265625q-2.140625 0 -2.140625 2.234375l0 1.609375l4.015625 0l0 1.3125l-4.015625 0l0 6.5l-1.609375 0l0 -6.5l-2.9375 0l0 -1.3125l2.9375 0l0 -1.515625q0 -3.65625 3.8125 -3.65625q0.9375 0 2.09375 0.21875l0 1.375zm-9.578125 2.25l0 0zm11.257294 4.765625q0 -1.171875 0.3125 -2.078125q0.3125 -0.90625 0.90625 -1.53125q0.59375 -0.625 1.40625 -0.9375q0.828125 -0.328125 1.84375 -0.328125q0.4375 0 0.859375 0.0625q0.421875 0.046875 0.828125 0.15625l0 -3.84375l1.59375 0l0 12.875l-1.421875 0l-0.046875 -1.734375q-0.671875 0.96875 -1.453125 1.4375q-0.765625 0.453125 -1.671875 0.453125q-0.78125 0 -1.375 -0.3125q-0.59375 -0.328125 -1.0 -0.921875q-0.390625 -0.609375 -0.59375 -1.4375q-0.1875 -0.84375 -0.1875 -1.859375zm1.609375 -0.109375q0 1.65625 0.484375 2.484375q0.5 0.8125 1.390625 0.8125q0.59375 0 1.265625 -0.53125q0.671875 -0.546875 1.40625 -1.609375l0 -4.234375q-0.390625 -0.1875 -0.859375 -0.28125q-0.46875 -0.09375 -0.9375 -0.09375q-1.296875 0 -2.03125 0.84375q-0.71875 0.828125 -0.71875 2.609375z" fill-rule="nonzero"/><path fill="#000000" fill-opacity="0.0" d="m331.27563 246.9716l61.13385 0l0 28.881882l-61.13385 0z" fill-rule="evenodd"/><path stroke="#efefef" stroke-width="1.0" stroke-linejoin="round" stroke-linecap="butt" d="m331.27563 246.9716l61.13385 0l0 28.881882l-61.13385 0z" fill-rule="evenodd"/><path fill="#efefef" d="m365.79205 268.33255l-7.46875 0l0 -1.46875l3.0625 0l0 -8.703125l-2.859375 1.546875l-0.578125 -1.34375l3.78125 -1.984375l1.40625 0l0 10.484375l2.65625 0l0 1.46875z" fill-rule="nonzero"/><path fill="#000000" fill-opacity="0.0" d="m392.4095 246.9716l61.13388 0l0 28.881882l-61.13388 0z" fill-rule="evenodd"/><path stroke="#efefef" stroke-width="1.0" stroke-linejoin="round" stroke-linecap="butt" d="m392.4095 246.9716l61.13388 0l0 28.881882l-61.13388 0z" fill-rule="evenodd"/><path fill="#efefef" d="m421.28162 267.9888q-0.625 0.25 -1.28125 0.359375q-0.640625 0.109375 -1.328125 0.109375q-2.171875 0 -3.34375 -1.171875q-1.171875 -1.171875 -1.171875 -3.4375q0 -1.078125 0.328125 -1.953125q0.34375 -0.890625 0.953125 -1.515625q0.609375 -0.640625 1.453125 -0.984375q0.859375 -0.34375 1.875 -0.34375q0.71875 0 1.328125 0.109375q0.625 0.09375 1.1875 0.328125l0 1.515625q-0.59375 -0.3125 -1.21875 -0.453125q-0.609375 -0.140625 -1.265625 -0.140625q-0.609375 0 -1.15625 0.234375q-0.53125 0.234375 -0.9375 0.671875q-0.40625 0.421875 -0.65625 1.0625q-0.234375 0.625 -0.234375 1.421875q0 1.65625 0.796875 2.484375q0.8125 0.8125 2.25 0.8125q0.640625 0 1.25 -0.140625q0.609375 -0.140625 1.171875 -0.4375l0 1.46875zm2.6947937 -4.03125q0 -1.171875 0.3125 -2.078125q0.3125 -0.90625 0.90625 -1.53125q0.59375 -0.625 1.40625 -0.9375q0.828125 -0.328125 1.84375 -0.328125q0.4375 0 0.859375 0.0625q0.421875 0.046875 0.828125 0.15625l0 -3.84375l1.59375 0l0 12.875l-1.421875 0l-0.046875 -1.734375q-0.671875 0.96875 -1.453125 1.4375q-0.765625 0.453125 -1.671875 0.453125q-0.78125 0 -1.375 -0.3125q-0.59375 -0.328125 -1.0 -0.921875q-0.390625 -0.609375 -0.59375 -1.4375q-0.1875 -0.84375 -0.1875 -1.859375zm1.609375 -0.109375q0 1.65625 0.484375 2.484375q0.5 0.8125 1.390625 0.8125q0.59375 0 1.265625 -0.53125q0.671875 -0.546875 1.40625 -1.609375l0 -4.234375q-0.390625 -0.1875 -0.859375 -0.28125q-0.46875 -0.09375 -0.9375 -0.09375q-1.296875 0 -2.03125 0.84375q-0.71875 0.828125 -0.71875 2.609375z" fill-rule="nonzero"/><path fill="#000000" fill-opacity="0.0" d="m331.27563 275.8535l61.13385 0l0 28.881897l-61.13385 0z" fill-rule="evenodd"/><path stroke="#efefef" stroke-width="1.0" stroke-linejoin="round" stroke-linecap="butt" d="m331.27563 275.8535l61.13385 0l0 28.881897l-61.13385 0z" fill-rule="evenodd"/><path fill="#efefef" d="m365.90143 297.21445l-7.84375 0l0 -1.421875l3.078125 -3.0625q0.75 -0.75 1.21875 -1.296875q0.484375 -0.546875 0.75 -0.984375q0.265625 -0.453125 0.34375 -0.859375q0.09375 -0.40625 0.09375 -0.859375q0 -0.4375 -0.125 -0.828125q-0.109375 -0.40625 -0.359375 -0.703125q-0.234375 -0.3125 -0.640625 -0.484375q-0.390625 -0.171875 -0.9375 -0.171875q-0.75 0 -1.375 0.34375q-0.609375 0.328125 -1.125 0.875l-0.875 -1.046875q0.671875 -0.71875 1.546875 -1.140625q0.875 -0.421875 2.046875 -0.421875q0.796875 0 1.4375 0.234375q0.65625 0.234375 1.125 0.6875q0.484375 0.4375 0.734375 1.09375q0.265625 0.640625 0.265625 1.453125q0 0.671875 -0.1875 1.265625q-0.171875 0.578125 -0.546875 1.15625q-0.375 0.578125 -0.9375 1.203125q-0.546875 0.609375 -1.3125 1.359375l-2.171875 2.09375l5.796875 0l0 1.515625z" fill-rule="nonzero"/><path fill="#000000" fill-opacity="0.0" d="m392.4095 275.8535l61.13388 0l0 28.881897l-61.13388 0z" fill-rule="evenodd"/><path stroke="#efefef" stroke-width="1.0" stroke-linejoin="round" stroke-linecap="butt" d="m392.4095 275.8535l61.13388 0l0 28.881897l-61.13388 0z" fill-rule="evenodd"/><path fill="#efefef" d="m422.17224 291.26132q0 1.375 -0.28125 2.5q-0.265625 1.125 -0.828125 1.9375q-0.546875 0.796875 -1.375 1.234375q-0.8125 0.4375 -1.9375 0.4375q-0.953125 0 -1.734375 -0.359375q-0.78125 -0.359375 -1.34375 -1.09375q-0.546875 -0.75 -0.859375 -1.90625q-0.296875 -1.15625 -0.296875 -2.75q0 -1.359375 0.28125 -2.484375q0.28125 -1.140625 0.828125 -1.9375q0.546875 -0.8125 1.375 -1.25q0.84375 -0.4375 1.9375 -0.4375q0.953125 0 1.734375 0.359375q0.796875 0.359375 1.34375 1.109375q0.5625 0.75 0.859375 1.90625q0.296875 1.15625 0.296875 2.734375zm-1.59375 0.0625q0 -0.3125 -0.03125 -0.609375q-0.015625 -0.3125 -0.046875 -0.609375l-5.046875 3.75q0.140625 0.46875 0.34375 0.875q0.21875 0.390625 0.515625 0.6875q0.296875 0.28125 0.671875 0.453125q0.375 0.15625 0.859375 0.15625q0.625 0 1.125 -0.296875q0.515625 -0.3125 0.859375 -0.90625q0.359375 -0.59375 0.546875 -1.46875q0.203125 -0.875 0.203125 -2.03125zm-5.453125 -0.109375q0 0.28125 0 0.5625q0 0.28125 0.03125 0.546875l5.046875 -3.734375q-0.140625 -0.453125 -0.359375 -0.828125q-0.203125 -0.390625 -0.5 -0.671875q-0.28125 -0.28125 -0.65625 -0.4375q-0.375 -0.15625 -0.84375 -0.15625q-0.609375 0 -1.125 0.3125q-0.5 0.296875 -0.859375 0.890625q-0.359375 0.59375 -0.546875 1.484375q-0.1875 0.875 -0.1875 2.03125zm17.038544 3.015625q0 0.75 -0.3125 1.34375q-0.3125 0.578125 -0.875 0.984375q-0.546875 0.40625 -1.3125 0.609375q-0.75 0.203125 -1.625 0.203125q-0.984375 0 -1.734375 -0.203125q-0.734375 -0.21875 -1.234375 -0.609375q-0.5 -0.40625 -0.765625 -0.9375q-0.25 -0.53125 -0.25 -1.1875q0 -1.09375 0.609375 -1.875q0.625 -0.796875 1.890625 -1.453125q-1.171875 -0.59375 -1.703125 -1.3125q-0.53125 -0.71875 -0.53125 -1.65625q0 -0.578125 0.234375 -1.109375q0.234375 -0.546875 0.703125 -0.953125q0.484375 -0.421875 1.203125 -0.671875q0.71875 -0.25 1.703125 -0.25q0.921875 0 1.609375 0.203125q0.703125 0.1875 1.171875 0.546875q0.46875 0.359375 0.703125 0.890625q0.25 0.515625 0.25 1.140625q0 1.046875 -0.578125 1.78125q-0.578125 0.71875 -1.640625 1.265625q0.515625 0.265625 0.96875 0.59375q0.46875 0.3125 0.796875 0.703125q0.34375 0.390625 0.53125 0.875q0.1875 0.484375 0.1875 1.078125zm-1.890625 -6.15625q0 -0.8125 -0.578125 -1.203125q-0.5625 -0.40625 -1.59375 -0.40625q-1.015625 0 -1.59375 0.390625q-0.5625 0.390625 -0.5625 1.171875q0 0.359375 0.140625 0.671875q0.140625 0.296875 0.421875 0.5625q0.28125 0.25 0.703125 0.515625q0.4375 0.25 1.03125 0.515625q1.03125 -0.484375 1.53125 -1.0q0.5 -0.53125 0.5 -1.21875zm0.15625 6.265625q0 -0.328125 -0.109375 -0.640625q-0.109375 -0.328125 -0.390625 -0.640625q-0.28125 -0.3125 -0.75 -0.609375q-0.46875 -0.3125 -1.203125 -0.640625q-0.625 0.296875 -1.046875 0.59375q-0.421875 0.296875 -0.6875 0.609375q-0.25 0.296875 -0.359375 0.625q-0.109375 0.328125 -0.109375 0.6875q0 0.40625 0.171875 0.734375q0.1875 0.3125 0.484375 0.53125q0.3125 0.21875 0.734375 0.328125q0.4375 0.109375 0.9375 0.109375q0.484375 0 0.90625 -0.09375q0.4375 -0.109375 0.75 -0.3125q0.3125 -0.203125 0.484375 -0.515625q0.1875 -0.328125 0.1875 -0.765625z" fill-rule="nonzero"/><path fill="#000000" fill-opacity="0.0" d="m331.27563 304.73538l61.13385 0l0 28.881897l-61.13385 0z" fill-rule="evenodd"/><path stroke="#efefef" stroke-width="1.0" stroke-linejoin="round" stroke-linecap="butt" d="m331.27563 304.73538l61.13385 0l0 28.881897l-61.13385 0z" fill-rule="evenodd"/><path fill="#efefef" d="m365.66705 322.48697q0 0.78125 -0.328125 1.46875q-0.3125 0.6875 -0.953125 1.203125q-0.625 0.515625 -1.59375 0.8125q-0.96875 0.28125 -2.25 0.28125q-0.71875 0 -1.28125 -0.046875q-0.5625 -0.03125 -1.046875 -0.109375l0 -1.421875q0.5625 0.09375 1.1875 0.15625q0.625 0.046875 1.28125 0.046875q0.890625 0 1.515625 -0.15625q0.640625 -0.15625 1.046875 -0.453125q0.40625 -0.296875 0.578125 -0.71875q0.1875 -0.4375 0.1875 -0.984375q0 -0.484375 -0.21875 -0.84375q-0.21875 -0.375 -0.625 -0.609375q-0.390625 -0.25 -0.9375 -0.375q-0.546875 -0.125 -1.203125 -0.125l-1.359375 0l0 -1.296875l1.375 0q0.53125 0 0.96875 -0.140625q0.453125 -0.140625 0.765625 -0.40625q0.3125 -0.265625 0.484375 -0.65625q0.171875 -0.390625 0.171875 -0.875q0 -0.953125 -0.59375 -1.390625q-0.578125 -0.4375 -1.703125 -0.4375q-0.609375 0 -1.25 0.125q-0.625 0.109375 -1.359375 0.34375l0 -1.390625q0.3125 -0.109375 0.65625 -0.1875q0.359375 -0.09375 0.703125 -0.140625q0.359375 -0.0625 0.703125 -0.09375q0.34375 -0.03125 0.65625 -0.03125q0.953125 0 1.671875 0.203125q0.71875 0.203125 1.203125 0.59375q0.484375 0.375 0.71875 0.921875q0.25 0.546875 0.25 1.21875q0 1.03125 -0.53125 1.71875q-0.515625 0.6875 -1.421875 1.109375q0.46875 0.0625 0.90625 0.28125q0.453125 0.21875 0.8125 0.5625q0.375 0.34375 0.59375 0.8125q0.21875 0.453125 0.21875 1.03125z" fill-rule="nonzero"/><path fill="#000000" fill-opacity="0.0" d="m392.4095 304.73538l61.13388 0l0 28.881897l-61.13388 0z" fill-rule="evenodd"/><path stroke="#efefef" stroke-width="1.0" stroke-linejoin="round" stroke-linecap="butt" d="m392.4095 304.73538l61.13388 0l0 28.881897l-61.13388 0z" fill-rule="evenodd"/><path fill="#efefef" d="m421.90662 323.11197q0 0.75 -0.3125 1.34375q-0.3125 0.578125 -0.875 0.984375q-0.546875 0.40625 -1.3125 0.609375q-0.75 0.203125 -1.625 0.203125q-0.984375 0 -1.734375 -0.203125q-0.734375 -0.21875 -1.234375 -0.609375q-0.5 -0.40625 -0.765625 -0.9375q-0.25 -0.53125 -0.25 -1.1875q0 -1.09375 0.609375 -1.875q0.625 -0.796875 1.890625 -1.453125q-1.171875 -0.59375 -1.703125 -1.3125q-0.53125 -0.71875 -0.53125 -1.65625q0 -0.578125 0.234375 -1.109375q0.234375 -0.546875 0.703125 -0.953125q0.484375 -0.421875 1.203125 -0.671875q0.71875 -0.25 1.703125 -0.25q0.921875 0 1.609375 0.203125q0.703125 0.1875 1.171875 0.546875q0.46875 0.359375 0.703125 0.890625q0.25 0.515625 0.25 1.140625q0 1.046875 -0.578125 1.78125q-0.578125 0.71875 -1.640625 1.265625q0.515625 0.265625 0.96875 0.59375q0.46875 0.3125 0.796875 0.703125q0.34375 0.390625 0.53125 0.875q0.1875 0.484375 0.1875 1.078125zm-1.890625 -6.15625q0 -0.8125 -0.578125 -1.203125q-0.5625 -0.40625 -1.59375 -0.40625q-1.015625 0 -1.59375 0.390625q-0.5625 0.390625 -0.5625 1.171875q0 0.359375 0.140625 0.671875q0.140625 0.296875 0.421875 0.5625q0.28125 0.25 0.703125 0.515625q0.4375 0.25 1.03125 0.515625q1.03125 -0.484375 1.53125 -1.0q0.5 -0.53125 0.5 -1.21875zm0.15625 6.265625q0 -0.328125 -0.109375 -0.640625q-0.109375 -0.328125 -0.390625 -0.640625q-0.28125 -0.3125 -0.75 -0.609375q-0.46875 -0.3125 -1.203125 -0.640625q-0.625 0.296875 -1.046875 0.59375q-0.421875 0.296875 -0.6875 0.609375q-0.25 0.296875 -0.359375 0.625q-0.109375 0.328125 -0.109375 0.6875q0 0.40625 0.171875 0.734375q0.1875 0.3125 0.484375 0.53125q0.3125 0.21875 0.734375 0.328125q0.4375 0.109375 0.9375 0.109375q0.484375 0 0.90625 -0.09375q0.4375 -0.109375 0.75 -0.3125q0.3125 -0.203125 0.484375 -0.515625q0.1875 -0.328125 0.1875 -0.765625zm3.8041687 -1.5q0 -1.171875 0.3125 -2.078125q0.3125 -0.90625 0.90625 -1.53125q0.59375 -0.625 1.40625 -0.9375q0.828125 -0.328125 1.84375 -0.328125q0.4375 0 0.859375 0.0625q0.421875 0.046875 0.828125 0.15625l0 -3.84375l1.59375 0l0 12.875l-1.421875 0l-0.046875 -1.734375q-0.671875 0.96875 -1.453125 1.4375q-0.765625 0.453125 -1.671875 0.453125q-0.78125 0 -1.375 -0.3125q-0.59375 -0.328125 -1.0 -0.921875q-0.390625 -0.609375 -0.59375 -1.4375q-0.1875 -0.84375 -0.1875 -1.859375zm1.609375 -0.109375q0 1.65625 0.484375 2.484375q0.5 0.8125 1.390625 0.8125q0.59375 0 1.265625 -0.53125q0.671875 -0.546875 1.40625 -1.609375l0 -4.234375q-0.390625 -0.1875 -0.859375 -0.28125q-0.46875 -0.09375 -0.9375 -0.09375q-1.296875 0 -2.03125 0.84375q-0.71875 0.828125 -0.71875 2.609375z" fill-rule="nonzero"/><path fill="#000000" fill-opacity="0.0" d="m331.27563 333.61728l61.13385 0l0 28.881897l-61.13385 0z" fill-rule="evenodd"/><path stroke="#efefef" stroke-width="1.0" stroke-linejoin="round" stroke-linecap="butt" d="m331.27563 333.61728l61.13385 0l0 28.881897l-61.13385 0z" fill-rule="evenodd"/><path fill="#efefef" d="m366.49518 352.3532l-2.03125 0l0 2.625l-1.625 0l0 -2.625l-5.734375 0l0 -1.40625l5.078125 -7.875l2.28125 0l0 7.875l2.03125 0l0 1.40625zm-3.65625 -7.75l-4.140625 6.34375l4.140625 0l0 -6.34375z" fill-rule="nonzero"/><path fill="#000000" fill-opacity="0.0" d="m392.4095 333.61728l61.13388 0l0 28.881897l-61.13388 0z" fill-rule="evenodd"/><path stroke="#efefef" stroke-width="1.0" stroke-linejoin="round" stroke-linecap="butt" d="m392.4095 333.61728l61.13388 0l0 28.881897l-61.13388 0z" fill-rule="evenodd"/><path fill="#efefef" d="m422.00037 350.24384q0 1.140625 -0.328125 2.046875q-0.3125 0.890625 -0.890625 1.515625q-0.578125 0.609375 -1.40625 0.953125q-0.828125 0.328125 -1.859375 0.328125q-0.8125 0 -1.671875 -0.15625q-0.84375 -0.15625 -1.671875 -0.484375l0 -12.34375l1.59375 0l0 3.546875l-0.078125 1.6875q0.6875 -0.90625 1.453125 -1.28125q0.78125 -0.390625 1.6875 -0.390625q0.78125 0 1.375 0.328125q0.59375 0.328125 0.984375 0.9375q0.40625 0.59375 0.609375 1.4375q0.203125 0.828125 0.203125 1.875zm-1.625 0.0625q0 -0.71875 -0.109375 -1.3125q-0.109375 -0.609375 -0.34375 -1.03125q-0.21875 -0.421875 -0.578125 -0.65625q-0.34375 -0.25 -0.84375 -0.25q-0.296875 0 -0.609375 0.09375q-0.3125 0.09375 -0.640625 0.328125q-0.328125 0.21875 -0.703125 0.59375q-0.359375 0.359375 -0.78125 0.90625l0 4.4375q0.453125 0.171875 0.9375 0.28125q0.484375 0.109375 0.921875 0.109375q0.546875 0 1.046875 -0.171875q0.5 -0.171875 0.875 -0.578125q0.375 -0.40625 0.59375 -1.078125q0.234375 -0.671875 0.234375 -1.671875zm9.929169 4.671875l-0.03125 -1.234375q-0.75 0.75 -1.515625 1.078125q-0.765625 0.3125 -1.625 0.3125q-0.78125 0 -1.34375 -0.1875q-0.546875 -0.203125 -0.90625 -0.546875q-0.359375 -0.359375 -0.53125 -0.828125q-0.15625 -0.484375 -0.15625 -1.03125q0 -1.375 1.015625 -2.15625q1.03125 -0.78125 3.03125 -0.78125l1.890625 0l0 -0.796875q0 -0.8125 -0.515625 -1.296875q-0.515625 -0.5 -1.578125 -0.5q-0.78125 0 -1.53125 0.1875q-0.75 0.171875 -1.546875 0.484375l0 -1.4375q0.296875 -0.109375 0.65625 -0.203125q0.375 -0.109375 0.78125 -0.1875q0.40625 -0.078125 0.859375 -0.125q0.453125 -0.0625 0.90625 -0.0625q0.828125 0 1.484375 0.1875q0.671875 0.171875 1.125 0.546875q0.46875 0.375 0.703125 0.953125q0.25 0.5625 0.25 1.328125l0 6.296875l-1.421875 0zm-0.171875 -4.15625l-2.015625 0q-0.578125 0 -1.015625 0.125q-0.421875 0.109375 -0.703125 0.328125q-0.265625 0.21875 -0.40625 0.53125q-0.125 0.296875 -0.125 0.671875q0 0.265625 0.078125 0.515625q0.078125 0.234375 0.265625 0.421875q0.1875 0.1875 0.46875 0.296875q0.296875 0.109375 0.71875 0.109375q0.546875 0 1.25 -0.328125q0.703125 -0.34375 1.484375 -1.0625l0 -1.609375z" fill-rule="nonzero"/><path fill="#000000" fill-opacity="0.0" d="m47.81632 370.07397l61.13386 0l0 38.771637l-61.13386 0z" fill-rule="evenodd"/><path fill="#efefef" d="m65.59028 389.1371l-1.390625 1.453125l0 3.84375l-1.5 0l0 -11.375l1.5 0l0 5.625l5.046875 -5.625l1.8125 0l-4.46875 5.015625l4.828125 6.359375l-1.796875 0l-4.03125 -5.296875zm10.21875 5.453125q-1.71875 0 -2.796875 -1.125q-1.078125 -1.140625 -1.078125 -3.03125l0 -0.265625q0 -1.25 0.46875 -2.234375q0.484375 -1.0 1.34375 -1.546875q0.875 -0.5625 1.875 -0.5625q1.65625 0 2.5625 1.09375q0.921875 1.078125 0.921875 3.09375l0 0.609375l-5.734375 0q0.03125 1.25 0.734375 2.015625q0.703125 0.765625 1.78125 0.765625q0.765625 0 1.296875 -0.3125q0.53125 -0.3125 0.921875 -0.828125l0.890625 0.6875q-1.0625 1.640625 -3.1875 1.640625zm-0.1875 -7.578125q-0.875 0 -1.46875 0.640625q-0.59375 0.625 -0.734375 1.78125l4.234375 0l0 -0.109375q-0.0625 -1.109375 -0.59375 -1.703125q-0.53125 -0.609375 -1.4375 -0.609375zm7.8125 5.296875l1.96875 -6.328125l1.546875 0l-3.390625 9.765625q-0.796875 2.109375 -2.515625 2.109375l-0.265625 -0.03125l-0.546875 -0.09375l0 -1.171875l0.390625 0.03125q0.734375 0 1.140625 -0.296875q0.421875 -0.296875 0.6875 -1.09375l0.3125 -0.859375l-3.015625 -8.359375l1.578125 0l2.109375 6.328125zm9.7265625 -0.125q0 -0.578125 -0.4375 -0.90625q-0.4375 -0.328125 -1.546875 -0.5625q-1.09375 -0.234375 -1.734375 -0.5625q-0.640625 -0.328125 -0.953125 -0.78125q-0.3125 -0.453125 -0.3125 -1.078125q0 -1.03125 0.875 -1.75q0.890625 -0.71875 2.25 -0.71875q1.4375 0 2.328125 0.75q0.90625 0.734375 0.90625 1.890625l-1.453125 0q0 -0.59375 -0.515625 -1.015625q-0.5 -0.4375 -1.265625 -0.4375q-0.78125 0 -1.234375 0.34375q-0.4375 0.34375 -0.4375 0.890625q0 0.53125 0.40625 0.796875q0.421875 0.265625 1.5 0.515625q1.078125 0.234375 1.75 0.578125q0.671875 0.328125 1.0 0.796875q0.328125 0.46875 0.328125 1.15625q0 1.125 -0.90625 1.8125q-0.90625 0.6875 -2.359375 0.6875q-1.015625 0 -1.796875 -0.359375q-0.78125 -0.359375 -1.21875 -1.0q-0.4375 -0.65625 -0.4375 -1.40625l1.4375 0q0.046875 0.734375 0.578125 1.15625q0.546875 0.421875 1.4375 0.421875q0.828125 0 1.3125 -0.328125q0.5 -0.328125 0.5 -0.890625z" fill-rule="nonzero"/><path fill="#000000" fill-opacity="0.0" d="m281.40686 370.07397l76.53543 0l0 38.771637l-76.53543 0z" fill-rule="evenodd"/><path fill="#efefef" d="m300.79178 392.43396l3.25 -9.375l1.640625 0l-4.21875 11.375l-1.328125 0l-4.21875 -11.375l1.640625 0l3.234375 9.375zm11.0390625 2.0q-0.125 -0.25 -0.203125 -0.890625q-1.0 1.046875 -2.40625 1.046875q-1.25 0 -2.046875 -0.703125q-0.796875 -0.71875 -0.796875 -1.796875q0 -1.328125 1.0 -2.046875q1.0 -0.734375 2.828125 -0.734375l1.40625 0l0 -0.671875q0 -0.75 -0.453125 -1.203125q-0.453125 -0.453125 -1.34375 -0.453125q-0.765625 0 -1.296875 0.390625q-0.515625 0.390625 -0.515625 0.953125l-1.453125 0q0 -0.640625 0.4375 -1.21875q0.453125 -0.59375 1.21875 -0.9375q0.78125 -0.34375 1.703125 -0.34375q1.453125 0 2.28125 0.734375q0.828125 0.71875 0.859375 2.0l0 3.890625q0 1.171875 0.296875 1.859375l0 0.125l-1.515625 0zm-2.390625 -1.109375q0.671875 0 1.28125 -0.34375q0.609375 -0.359375 0.890625 -0.921875l0 -1.734375l-1.140625 0q-2.65625 0 -2.65625 1.5625q0 0.671875 0.453125 1.0625q0.453125 0.375 1.171875 0.375zm7.453125 1.109375l-1.453125 0l0 -12.0l1.453125 0l0 12.0zm7.5234375 -0.84375q-0.84375 1.0 -2.46875 1.0q-1.359375 0 -2.0625 -0.78125q-0.703125 -0.796875 -0.71875 -2.328125l0 -5.5l1.453125 0l0 5.453125q0 1.921875 1.5625 1.921875q1.65625 0 2.203125 -1.234375l0 -6.140625l1.4375 0l0 8.453125l-1.375 0l-0.03125 -0.84375zm7.1171875 1.0q-1.71875 0 -2.796875 -1.125q-1.078125 -1.140625 -1.078125 -3.03125l0 -0.265625q0 -1.25 0.46875 -2.234375q0.484375 -1.0 1.34375 -1.546875q0.875 -0.5625 1.875 -0.5625q1.65625 0 2.5625 1.09375q0.921875 1.078125 0.921875 3.09375l0 0.609375l-5.734375 0q0.03125 1.25 0.734375 2.015625q0.703125 0.765625 1.78125 0.765625q0.765625 0 1.296875 -0.3125q0.53125 -0.3125 0.921875 -0.828125l0.890625 0.6875q-1.0625 1.640625 -3.1875 1.640625zm-0.1875 -7.578125q-0.875 0 -1.46875 0.640625q-0.59375 0.625 -0.734375 1.78125l4.234375 0l0 -0.109375q-0.0625 -1.109375 -0.59375 -1.703125q-0.53125 -0.609375 -1.4375 -0.609375zm10.0703125 5.171875q0 -0.578125 -0.4375 -0.90625q-0.4375 -0.328125 -1.546875 -0.5625q-1.09375 -0.234375 -1.734375 -0.5625q-0.640625 -0.328125 -0.953125 -0.78125q-0.3125 -0.453125 -0.3125 -1.078125q0 -1.03125 0.875 -1.75q0.890625 -0.71875 2.25 -0.71875q1.4375 0 2.328125 0.75q0.90625 0.734375 0.90625 1.890625l-1.453125 0q0 -0.59375 -0.515625 -1.015625q-0.5 -0.4375 -1.265625 -0.4375q-0.78125 0 -1.234375 0.34375q-0.4375 0.34375 -0.4375 0.890625q0 0.53125 0.40625 0.796875q0.421875 0.265625 1.5 0.515625q1.078125 0.234375 1.75 0.578125q0.671875 0.328125 1.0 0.796875q0.328125 0.46875 0.328125 1.15625q0 1.125 -0.90625 1.8125q-0.90625 0.6875 -2.359375 0.6875q-1.015625 0 -1.796875 -0.359375q-0.78125 -0.359375 -1.21875 -1.0q-0.4375 -0.65625 -0.4375 -1.40625l1.4375 0q0.046875 0.734375 0.578125 1.15625q0.546875 0.421875 1.4375 0.421875q0.828125 0 1.3125 -0.328125q0.5 -0.328125 0.5 -0.890625z" fill-rule="nonzero"/><path fill="#000000" fill-opacity="0.0" d="m204.38326 16.57791l23.779526 0" fill-rule="evenodd"/><path stroke="#efefef" stroke-width="1.0" stroke-linejoin="round" stroke-linecap="butt" d="m204.38324 16.577908l17.779526 0" fill-rule="evenodd"/><path fill="#efefef" stroke="#efefef" stroke-width="1.0" stroke-linecap="butt" d="m222.16277 18.229641l4.538101 -1.6517334l-4.538101 -1.6517315z" fill-rule="evenodd"/><path fill="#000000" fill-opacity="0.0" d="m204.38326 45.459797l23.779526 0" fill-rule="evenodd"/><path stroke="#efefef" stroke-width="1.0" stroke-linejoin="round" stroke-linecap="butt" d="m204.38324 45.4598l17.779526 0" fill-rule="evenodd"/><path fill="#efefef" stroke="#efefef" stroke-width="1.0" stroke-linecap="butt" d="m222.16277 47.11153l4.538101 -1.6517296l-4.538101 -1.6517334z" fill-rule="evenodd"/><path fill="#000000" fill-opacity="0.0" d="m204.38326 74.34169l23.779526 0" fill-rule="evenodd"/><path stroke="#efefef" stroke-width="1.0" stroke-linejoin="round" stroke-linecap="butt" d="m204.38324 74.34169l17.779526 0" fill-rule="evenodd"/><path fill="#efefef" stroke="#efefef" stroke-width="1.0" stroke-linecap="butt" d="m222.16277 75.99342l4.538101 -1.6517334l-4.538101 -1.6517334z" fill-rule="evenodd"/><path fill="#000000" fill-opacity="0.0" d="m204.38326 103.22358l23.779526 0" fill-rule="evenodd"/><path stroke="#efefef" stroke-width="1.0" stroke-linejoin="round" stroke-linecap="butt" d="m204.38324 103.22358l17.779526 0" fill-rule="evenodd"/><path fill="#efefef" stroke="#efefef" stroke-width="1.0" stroke-linecap="butt" d="m222.16277 104.87531l4.538101 -1.6517334l-4.538101 -1.6517334z" fill-rule="evenodd"/><path fill="#000000" fill-opacity="0.0" d="m204.38326 132.10547l23.779526 0" fill-rule="evenodd"/><path stroke="#efefef" stroke-width="1.0" stroke-linejoin="round" stroke-linecap="butt" d="m204.38324 132.10547l17.779526 0" fill-rule="evenodd"/><path fill="#efefef" stroke="#efefef" stroke-width="1.0" stroke-linecap="butt" d="m222.16277 133.7572l4.538101 -1.6517334l-4.538101 -1.6517334z" fill-rule="evenodd"/><path fill="#000000" fill-opacity="0.0" d="m229.5171 218.08841l61.133865 0l0 28.881882l-61.133865 0z" fill-rule="evenodd"/><path stroke="#efefef" stroke-width="1.0" stroke-linejoin="round" stroke-linecap="butt" d="m229.5171 218.08841l61.133865 0l0 28.881882l-61.133865 0z" fill-rule="evenodd"/><path fill="#efefef" d="m258.90488 239.44936l-7.4687653 0l0 -1.46875l3.0625 0l0 -8.703125l-2.859375 1.546875l-0.578125 -1.34375l3.78125 -1.984375l1.4062653 0l0 10.484375l2.65625 0l0 1.46875zm10.304169 -6.625q0 1.75 -0.421875 3.0q-0.421875 1.25 -1.25 2.0625q-0.8125 0.796875 -2.03125 1.1875q-1.203125 0.375 -2.796875 0.375l-0.984375 0l0 -1.390625l1.09375 0q1.1875 0 2.03125 -0.234375q0.859375 -0.234375 1.421875 -0.6875q0.578125 -0.46875 0.875 -1.125q0.3125 -0.65625 0.375 -1.515625l0.046875 -0.359375q-0.578125 0.328125 -1.328125 0.53125q-0.75 0.203125 -1.625 0.203125q-0.890625 0 -1.578125 -0.25q-0.6875 -0.265625 -1.140625 -0.734375q-0.453125 -0.484375 -0.6875 -1.125q-0.21875 -0.65625 -0.21875 -1.421875q0 -0.84375 0.296875 -1.5625q0.3125 -0.71875 0.84375 -1.25q0.546875 -0.53125 1.296875 -0.828125q0.765625 -0.3125 1.671875 -0.3125q0.890625 0 1.640625 0.296875q0.75 0.28125 1.296875 0.9375q0.546875 0.640625 0.859375 1.6875q0.3125 1.03125 0.3125 2.515625zm-4.171875 -4.140625q-0.515625 0 -0.953125 0.171875q-0.421875 0.15625 -0.75 0.484375q-0.3125 0.328125 -0.5 0.796875q-0.171875 0.46875 -0.171875 1.09375q0 0.546875 0.125 0.984375q0.140625 0.4375 0.40625 0.75q0.28125 0.296875 0.71875 0.46875q0.4375 0.15625 1.046875 0.15625q0.328125 0 0.6875 -0.0625q0.375 -0.0625 0.703125 -0.171875q0.34375 -0.109375 0.65625 -0.25q0.3125 -0.15625 0.5625 -0.3125q0 -1.171875 -0.1875 -1.953125q-0.171875 -0.796875 -0.5 -1.265625q-0.3125 -0.484375 -0.796875 -0.6875q-0.46875 -0.203125 -1.046875 -0.203125z" fill-rule="nonzero"/><path fill="#000000" fill-opacity="0.0" d="m229.5171 246.97029l61.133865 0l0 28.881882l-61.133865 0z" fill-rule="evenodd"/><path stroke="#efefef" stroke-width="1.0" stroke-linejoin="round" stroke-linecap="butt" d="m229.5171 246.97029l61.133865 0l0 28.881882l-61.133865 0z" fill-rule="evenodd"/><path fill="#efefef" d="m253.88559 268.33124l-7.84375 0l0 -1.421875l3.078125 -3.0625q0.75 -0.75 1.21875 -1.296875q0.484375 -0.546875 0.75 -0.984375q0.265625 -0.453125 0.34375 -0.859375q0.09375 -0.40625 0.09375 -0.859375q0 -0.4375 -0.125 -0.828125q-0.109375 -0.40625 -0.359375 -0.703125q-0.234375 -0.3125 -0.640625 -0.484375q-0.390625 -0.171875 -0.9375 -0.171875q-0.75 0 -1.375 0.34375q-0.609375 0.328125 -1.125 0.875l-0.875 -1.046875q0.671875 -0.71875 1.546875 -1.140625q0.875 -0.421875 2.046875 -0.421875q0.796875 0 1.4375 0.234375q0.65625 0.234375 1.125 0.6875q0.484375 0.4375 0.734375 1.09375q0.265625 0.640625 0.265625 1.453125q0 0.671875 -0.1875 1.265625q-0.171875 0.578125 -0.546875 1.15625q-0.375 0.578125 -0.9375 1.203125q-0.546875 0.609375 -1.3125 1.359375l-2.171875 2.09375l5.796875 0l0 1.515625zm10.522919 -5.953125q0 1.375 -0.28125 2.5q-0.265625 1.125 -0.828125 1.9375q-0.546875 0.796875 -1.375 1.234375q-0.8125 0.4375 -1.9375 0.4375q-0.953125 0 -1.734375 -0.359375q-0.78125 -0.359375 -1.34375 -1.09375q-0.546875 -0.75 -0.859375 -1.90625q-0.296875 -1.15625 -0.296875 -2.75q0 -1.359375 0.28125 -2.484375q0.28125 -1.140625 0.828125 -1.9375q0.546875 -0.8125 1.375 -1.25q0.84375 -0.4375 1.9375 -0.4375q0.953125 0 1.734375 0.359375q0.796875 0.359375 1.34375 1.109375q0.5625 0.75 0.859375 1.90625q0.296875 1.15625 0.296875 2.734375zm-1.59375 0.0625q0 -0.3125 -0.03125 -0.609375q-0.015625 -0.3125 -0.046875 -0.609375l-5.046875 3.75q0.140625 0.46875 0.34375 0.875q0.21875 0.390625 0.515625 0.6875q0.296875 0.28125 0.671875 0.453125q0.375 0.15625 0.859375 0.15625q0.625 0 1.125 -0.296875q0.515625 -0.3125 0.859375 -0.90625q0.359375 -0.59375 0.546875 -1.46875q0.203125 -0.875 0.203125 -2.03125zm-5.453125 -0.109375q0 0.28125 0 0.5625q0 0.28125 0.03125 0.546875l5.046875 -3.734375q-0.140625 -0.453125 -0.359375 -0.828125q-0.203125 -0.390625 -0.5 -0.671875q-0.28125 -0.28125 -0.65625 -0.4375q-0.375 -0.15625 -0.84375 -0.15625q-0.609375 0 -1.125 0.3125q-0.5 0.296875 -0.859375 0.890625q-0.359375 0.59375 -0.546875 1.484375q-0.1875 0.875 -0.1875 2.03125zm17.179169 2.234375q0 0.8125 -0.296875 1.53125q-0.296875 0.71875 -0.84375 1.25q-0.546875 0.53125 -1.3125 0.84375q-0.765625 0.296875 -1.703125 0.296875q-0.984375 0 -1.75 -0.3125q-0.75 -0.3125 -1.265625 -0.953125q-0.5 -0.65625 -0.765625 -1.640625q-0.265625 -1.0 -0.265625 -2.359375q0 -0.90625 0.109375 -1.765625q0.125 -0.859375 0.390625 -1.609375q0.28125 -0.765625 0.734375 -1.390625q0.453125 -0.625 1.125 -1.078125q0.6875 -0.453125 1.609375 -0.703125q0.921875 -0.25 2.125 -0.25l1.1875 0l0 1.390625l-1.28125 0q-1.0625 0 -1.859375 0.25q-0.78125 0.25 -1.3125 0.71875q-0.515625 0.46875 -0.796875 1.125q-0.28125 0.65625 -0.359375 1.46875l-0.03125 0.359375q0.5625 -0.328125 1.3125 -0.53125q0.765625 -0.203125 1.640625 -0.203125q0.890625 0 1.5625 0.265625q0.6875 0.25 1.140625 0.734375q0.453125 0.46875 0.671875 1.125q0.234375 0.640625 0.234375 1.4375zm-1.65625 0.09375q0 -0.546875 -0.140625 -0.984375q-0.125 -0.4375 -0.40625 -0.75q-0.28125 -0.3125 -0.71875 -0.46875q-0.4375 -0.171875 -1.03125 -0.171875q-0.34375 0 -0.703125 0.0625q-0.359375 0.0625 -0.703125 0.1875q-0.328125 0.109375 -0.640625 0.25q-0.3125 0.140625 -0.5625 0.3125q0 1.171875 0.15625 1.96875q0.171875 0.78125 0.484375 1.25q0.328125 0.46875 0.796875 0.671875q0.484375 0.203125 1.09375 0.203125q0.53125 0 0.953125 -0.15625q0.4375 -0.171875 0.75 -0.5q0.3125 -0.328125 0.484375 -0.796875q0.1875 -0.46875 0.1875 -1.078125z" fill-rule="nonzero"/><path fill="#000000" fill-opacity="0.0" d="m229.5171 275.85217l61.133865 0l0 28.881897l-61.133865 0z" fill-rule="evenodd"/><path stroke="#efefef" stroke-width="1.0" stroke-linejoin="round" stroke-linecap="butt" d="m229.5171 275.85217l61.133865 0l0 28.881897l-61.133865 0z" fill-rule="evenodd"/><path fill="#efefef" d="m259.01425 297.21313l-7.8437653 0l0 -1.421875l3.078125 -3.0625q0.75 -0.75 1.21875 -1.296875q0.484375 -0.546875 0.75001526 -0.984375q0.265625 -0.453125 0.34375 -0.859375q0.09375 -0.40625 0.09375 -0.859375q0 -0.4375 -0.125 -0.828125q-0.109375 -0.40625 -0.359375 -0.703125q-0.23439026 -0.3125 -0.64064026 -0.484375q-0.390625 -0.171875 -0.9375 -0.171875q-0.75 0 -1.375 0.34375q-0.609375 0.328125 -1.125 0.875l-0.875 -1.046875q0.671875 -0.71875 1.546875 -1.140625q0.875 -0.421875 2.046875 -0.421875q0.796875 0 1.4375153 0.234375q0.65625 0.234375 1.125 0.6875q0.484375 0.4375 0.734375 1.09375q0.265625 0.640625 0.265625 1.453125q0 0.671875 -0.1875 1.265625q-0.171875 0.578125 -0.546875 1.15625q-0.375 0.578125 -0.9375 1.203125q-0.546875 0.609375 -1.3125153 1.359375l-2.171875 2.09375l5.7968903 0l0 1.515625zm10.194794 -6.625q0 1.75 -0.421875 3.0q-0.421875 1.25 -1.25 2.0625q-0.8125 0.796875 -2.03125 1.1875q-1.203125 0.375 -2.796875 0.375l-0.984375 0l0 -1.390625l1.09375 0q1.1875 0 2.03125 -0.234375q0.859375 -0.234375 1.421875 -0.6875q0.578125 -0.46875 0.875 -1.125q0.3125 -0.65625 0.375 -1.515625l0.046875 -0.359375q-0.578125 0.328125 -1.328125 0.53125q-0.75 0.203125 -1.625 0.203125q-0.890625 0 -1.578125 -0.25q-0.6875 -0.265625 -1.140625 -0.734375q-0.453125 -0.484375 -0.6875 -1.125q-0.21875 -0.65625 -0.21875 -1.421875q0 -0.84375 0.296875 -1.5625q0.3125 -0.71875 0.84375 -1.25q0.546875 -0.53125 1.296875 -0.828125q0.765625 -0.3125 1.671875 -0.3125q0.890625 0 1.640625 0.296875q0.75 0.28125 1.296875 0.9375q0.546875 0.640625 0.859375 1.6875q0.3125 1.03125 0.3125 2.515625zm-4.171875 -4.140625q-0.515625 0 -0.953125 0.171875q-0.421875 0.15625 -0.75 0.484375q-0.3125 0.328125 -0.5 0.796875q-0.171875 0.46875 -0.171875 1.09375q0 0.546875 0.125 0.984375q0.140625 0.4375 0.40625 0.75q0.28125 0.296875 0.71875 0.46875q0.4375 0.15625 1.046875 0.15625q0.328125 0 0.6875 -0.0625q0.375 -0.0625 0.703125 -0.171875q0.34375 -0.109375 0.65625 -0.25q0.3125 -0.15625 0.5625 -0.3125q0 -1.171875 -0.1875 -1.953125q-0.171875 -0.796875 -0.5 -1.265625q-0.3125 -0.484375 -0.796875 -0.6875q-0.46875 -0.203125 -1.046875 -0.203125z" fill-rule="nonzero"/><path fill="#000000" fill-opacity="0.0" d="m229.5171 304.73407l61.133865 0l0 28.881897l-61.133865 0z" fill-rule="evenodd"/><path stroke="#efefef" stroke-width="1.0" stroke-linejoin="round" stroke-linecap="butt" d="m229.5171 304.73407l61.133865 0l0 28.881897l-61.133865 0z" fill-rule="evenodd"/><path fill="#efefef" d="m258.95175 319.47003q0 1.75 -0.421875 3.0q-0.421875 1.25 -1.25 2.0625q-0.8125 0.796875 -2.0312653 1.1875q-1.203125 0.375 -2.796875 0.375l-0.984375 0l0 -1.390625l1.09375 0q1.1875 0 2.03125 -0.234375q0.859375 -0.234375 1.4218903 -0.6875q0.578125 -0.46875 0.875 -1.125q0.3125 -0.65625 0.375 -1.515625l0.046875 -0.359375q-0.578125 0.328125 -1.3281403 0.53125q-0.75 0.203125 -1.625 0.203125q-0.890625 0 -1.578125 -0.25q-0.6875 -0.265625 -1.140625 -0.734375q-0.453125 -0.484375 -0.6875 -1.125q-0.21875 -0.65625 -0.21875 -1.421875q0 -0.84375 0.296875 -1.5625q0.3125 -0.71875 0.84375 -1.25q0.546875 -0.53125 1.296875 -0.828125q0.765625 -0.3125 1.671875 -0.3125q0.890625 0 1.6406403 0.296875q0.75 0.28125 1.296875 0.9375q0.546875 0.640625 0.859375 1.6875q0.3125 1.03125 0.3125 2.515625zm-4.1718903 -4.140625q-0.515625 0 -0.953125 0.171875q-0.421875 0.15625 -0.75 0.484375q-0.3125 0.328125 -0.5 0.796875q-0.171875 0.46875 -0.171875 1.09375q0 0.546875 0.125 0.984375q0.140625 0.4375 0.40625 0.75q0.28125 0.296875 0.71875 0.46875q0.4375 0.15625 1.046875 0.15625q0.328125 0 0.6875 -0.0625q0.375 -0.0625 0.70314026 -0.171875q0.34375 -0.109375 0.65625 -0.25q0.3125 -0.15625 0.5625 -0.3125q0 -1.171875 -0.1875 -1.953125q-0.171875 -0.796875 -0.5 -1.265625q-0.3125 -0.484375 -0.79689026 -0.6875q-0.46875 -0.203125 -1.046875 -0.203125zm14.257309 7.15625q0 0.78125 -0.328125 1.46875q-0.3125 0.6875 -0.953125 1.203125q-0.625 0.515625 -1.59375 0.8125q-0.96875 0.28125 -2.25 0.28125q-0.71875 0 -1.28125 -0.046875q-0.5625 -0.03125 -1.046875 -0.109375l0 -1.421875q0.5625 0.09375 1.1875 0.15625q0.625 0.046875 1.28125 0.046875q0.890625 0 1.515625 -0.15625q0.640625 -0.15625 1.046875 -0.453125q0.40625 -0.296875 0.578125 -0.71875q0.1875 -0.4375 0.1875 -0.984375q0 -0.484375 -0.21875 -0.84375q-0.21875 -0.375 -0.625 -0.609375q-0.390625 -0.25 -0.9375 -0.375q-0.546875 -0.125 -1.203125 -0.125l-1.359375 0l0 -1.296875l1.375 0q0.53125 0 0.96875 -0.140625q0.453125 -0.140625 0.765625 -0.40625q0.3125 -0.265625 0.484375 -0.65625q0.171875 -0.390625 0.171875 -0.875q0 -0.953125 -0.59375 -1.390625q-0.578125 -0.4375 -1.703125 -0.4375q-0.609375 0 -1.25 0.125q-0.625 0.109375 -1.359375 0.34375l0 -1.390625q0.3125 -0.109375 0.65625 -0.1875q0.359375 -0.09375 0.703125 -0.140625q0.359375 -0.0625 0.703125 -0.09375q0.34375 -0.03125 0.65625 -0.03125q0.953125 0 1.671875 0.203125q0.71875 0.203125 1.203125 0.59375q0.484375 0.375 0.71875 0.921875q0.25 0.546875 0.25 1.21875q0 1.03125 -0.53125 1.71875q-0.515625 0.6875 -1.421875 1.109375q0.46875 0.0625 0.90625 0.28125q0.453125 0.21875 0.8125 0.5625q0.375 0.34375 0.59375 0.8125q0.21875 0.453125 0.21875 1.03125z" fill-rule="nonzero"/><path fill="#000000" fill-opacity="0.0" d="m229.5171 333.61597l61.133865 0l0 28.881897l-61.133865 0z" fill-rule="evenodd"/><path stroke="#efefef" stroke-width="1.0" stroke-linejoin="round" stroke-linecap="butt" d="m229.5171 333.61597l61.133865 0l0 28.881897l-61.133865 0z" fill-rule="evenodd"/><path fill="#efefef" d="m253.77621 354.9769l-7.46875 0l0 -1.46875l3.0625 0l0 -8.703125l-2.859375 1.546875l-0.578125 -1.34375l3.78125 -1.984375l1.40625 0l0 10.484375l2.65625 0l0 1.46875zm10.366669 0l-7.84375 0l0 -1.421875l3.078125 -3.0625q0.75 -0.75 1.21875 -1.296875q0.484375 -0.546875 0.75 -0.984375q0.265625 -0.453125 0.34375 -0.859375q0.09375 -0.40625 0.09375 -0.859375q0 -0.4375 -0.125 -0.828125q-0.109375 -0.40625 -0.359375 -0.703125q-0.234375 -0.3125 -0.640625 -0.484375q-0.390625 -0.171875 -0.9375 -0.171875q-0.75 0 -1.375 0.34375q-0.609375 0.328125 -1.125 0.875l-0.875 -1.046875q0.671875 -0.71875 1.546875 -1.140625q0.875 -0.421875 2.046875 -0.421875q0.796875 0 1.4375 0.234375q0.65625 0.234375 1.125 0.6875q0.484375 0.4375 0.734375 1.09375q0.265625 0.640625 0.265625 1.453125q0 0.671875 -0.1875 1.265625q-0.171875 0.578125 -0.546875 1.15625q-0.375 0.578125 -0.9375 1.203125q-0.546875 0.609375 -1.3125 1.359375l-2.171875 2.09375l5.796875 0l0 1.515625zm10.257294 0l-7.84375 0l0 -1.421875l3.078125 -3.0625q0.75 -0.75 1.21875 -1.296875q0.484375 -0.546875 0.75 -0.984375q0.265625 -0.453125 0.34375 -0.859375q0.09375 -0.40625 0.09375 -0.859375q0 -0.4375 -0.125 -0.828125q-0.109375 -0.40625 -0.359375 -0.703125q-0.234375 -0.3125 -0.640625 -0.484375q-0.390625 -0.171875 -0.9375 -0.171875q-0.75 0 -1.375 0.34375q-0.609375 0.328125 -1.125 0.875l-0.875 -1.046875q0.671875 -0.71875 1.546875 -1.140625q0.875 -0.421875 2.046875 -0.421875q0.796875 0 1.4375 0.234375q0.65625 0.234375 1.125 0.6875q0.484375 0.4375 0.734375 1.09375q0.265625 0.640625 0.265625 1.453125q0 0.671875 -0.1875 1.265625q-0.171875 0.578125 -0.546875 1.15625q-0.375 0.578125 -0.9375 1.203125q-0.546875 0.609375 -1.3125 1.359375l-2.171875 2.09375l5.796875 0l0 1.515625z" fill-rule="nonzero"/><path fill="#000000" fill-opacity="0.0" d="m299.07355 232.53067l23.77951 0" fill-rule="evenodd"/><path stroke="#efefef" stroke-width="1.0" stroke-linejoin="round" stroke-linecap="butt" d="m299.07352 232.53065l17.779541 0" fill-rule="evenodd"/><path fill="#efefef" stroke="#efefef" stroke-width="1.0" stroke-linecap="butt" d="m316.85306 234.18239l4.538086 -1.6517334l-4.538086 -1.6517334z" fill-rule="evenodd"/><path fill="#000000" fill-opacity="0.0" d="m299.07355 261.41257l23.77951 0" fill-rule="evenodd"/><path stroke="#efefef" stroke-width="1.0" stroke-linejoin="round" stroke-linecap="butt" d="m299.07352 261.41254l17.779541 0" fill-rule="evenodd"/><path fill="#efefef" stroke="#efefef" stroke-width="1.0" stroke-linecap="butt" d="m316.85306 263.06427l4.538086 -1.6517334l-4.538086 -1.6517334z" fill-rule="evenodd"/><path fill="#000000" fill-opacity="0.0" d="m299.07355 290.29443l23.77951 0" fill-rule="evenodd"/><path stroke="#efefef" stroke-width="1.0" stroke-linejoin="round" stroke-linecap="butt" d="m299.07352 290.29443l17.779541 0" fill-rule="evenodd"/><path fill="#efefef" stroke="#efefef" stroke-width="1.0" stroke-linecap="butt" d="m316.85306 291.94617l4.538086 -1.6517334l-4.538086 -1.6517334z" fill-rule="evenodd"/><path fill="#000000" fill-opacity="0.0" d="m299.07355 319.17633l23.77951 0" fill-rule="evenodd"/><path stroke="#efefef" stroke-width="1.0" stroke-linejoin="round" stroke-linecap="butt" d="m299.07352 319.17633l17.779541 0" fill-rule="evenodd"/><path fill="#efefef" stroke="#efefef" stroke-width="1.0" stroke-linecap="butt" d="m316.85306 320.82806l4.538086 -1.6517334l-4.538086 -1.6517334z" fill-rule="evenodd"/><path fill="#000000" fill-opacity="0.0" d="m299.07355 348.05823l23.77951 0" fill-rule="evenodd"/><path stroke="#efefef" stroke-width="1.0" stroke-linejoin="round" stroke-linecap="butt" d="m299.07352 348.05823l17.779541 0" fill-rule="evenodd"/><path fill="#efefef" stroke="#efefef" stroke-width="1.0" stroke-linecap="butt" d="m316.85306 349.70996l4.538086 -1.6517334l-4.538086 -1.6517334z" fill-rule="evenodd"/><path fill="#000000" fill-opacity="0.0" d="m71.21265 232.10547l23.779526 0" fill-rule="evenodd"/><path stroke="#efefef" stroke-width="1.0" stroke-linejoin="round" stroke-linecap="butt" d="m71.21265 232.10545l17.779533 0" fill-rule="evenodd"/><path fill="#efefef" stroke="#efefef" stroke-width="1.0" stroke-linecap="butt" d="m88.99218 233.75719l4.5380936 -1.6517334l-4.5380936 -1.6517334z" fill-rule="evenodd"/><path fill="#000000" fill-opacity="0.0" d="m71.21265 260.98737l23.779526 0" fill-rule="evenodd"/><path stroke="#efefef" stroke-width="1.0" stroke-linejoin="round" stroke-linecap="butt" d="m71.21265 260.98734l17.779533 0" fill-rule="evenodd"/><path fill="#efefef" stroke="#efefef" stroke-width="1.0" stroke-linecap="butt" d="m88.99218 262.63907l4.5380936 -1.6517334l-4.5380936 -1.6517334z" fill-rule="evenodd"/><path fill="#000000" fill-opacity="0.0" d="m71.21265 289.86926l23.779526 0" fill-rule="evenodd"/><path stroke="#efefef" stroke-width="1.0" stroke-linejoin="round" stroke-linecap="butt" d="m71.21265 289.86923l17.779533 0" fill-rule="evenodd"/><path fill="#efefef" stroke="#efefef" stroke-width="1.0" stroke-linecap="butt" d="m88.99218 291.52097l4.5380936 -1.6517334l-4.5380936 -1.6517334z" fill-rule="evenodd"/><path fill="#000000" fill-opacity="0.0" d="m71.21265 318.75113l23.779526 0" fill-rule="evenodd"/><path stroke="#efefef" stroke-width="1.0" stroke-linejoin="round" stroke-linecap="butt" d="m71.21265 318.75113l17.779533 0" fill-rule="evenodd"/><path fill="#efefef" stroke="#efefef" stroke-width="1.0" stroke-linecap="butt" d="m88.99218 320.40286l4.5380936 -1.6517334l-4.5380936 -1.6517334z" fill-rule="evenodd"/><path fill="#000000" fill-opacity="0.0" d="m71.21265 347.63303l23.779526 0" fill-rule="evenodd"/><path stroke="#efefef" stroke-width="1.0" stroke-linejoin="round" stroke-linecap="butt" d="m71.21265 347.63303l17.779533 0" fill-rule="evenodd"/><path fill="#efefef" stroke="#efefef" stroke-width="1.0" stroke-linecap="butt" d="m88.99218 349.28476l4.5380936 -1.6517334l-4.5380936 -1.6517334z" fill-rule="evenodd"/><path fill="#000000" fill-opacity="0.0" d="m155.10765 397.53592l90.33072 0l0 38.771637l-90.33072 0z" fill-rule="evenodd"/><path fill="#efefef" d="m179.72614 416.81778q-1.921875 -0.546875 -2.8125 -1.359375q-0.875 -0.8125 -0.875 -2.0q0 -1.34375 1.078125 -2.21875q1.078125 -0.875 2.796875 -0.875q1.171875 0 2.078125 0.453125q0.921875 0.453125 1.421875 1.25q0.515625 0.796875 0.515625 1.734375l-1.515625 0q0 -1.03125 -0.65625 -1.609375q-0.65625 -0.59375 -1.84375 -0.59375q-1.109375 0 -1.734375 0.484375q-0.625 0.484375 -0.625 1.359375q0 0.6875 0.59375 1.171875q0.59375 0.484375 2.0 0.890625q1.421875 0.390625 2.21875 0.875q0.8125 0.46875 1.1875 1.109375q0.390625 0.640625 0.390625 1.515625q0 1.375 -1.078125 2.21875q-1.078125 0.828125 -2.875 0.828125q-1.171875 0 -2.1875 -0.453125q-1.015625 -0.453125 -1.578125 -1.234375q-0.546875 -0.78125 -0.546875 -1.765625l1.515625 0q0 1.03125 0.75 1.625q0.765625 0.59375 2.046875 0.59375q1.1875 0 1.8125 -0.484375q0.640625 -0.484375 0.640625 -1.3125q0 -0.84375 -0.59375 -1.296875q-0.578125 -0.453125 -2.125 -0.90625zm7.4921875 5.078125l-1.453125 0l0 -8.453125l1.453125 0l0 8.453125zm-1.5625 -10.703125q0 -0.34375 0.203125 -0.578125q0.21875 -0.25 0.640625 -0.25q0.421875 0 0.640625 0.25q0.21875 0.234375 0.21875 0.59375q0 0.34375 -0.21875 0.578125q-0.21875 0.234375 -0.640625 0.234375q-0.421875 0 -0.640625 -0.234375q-0.203125 -0.234375 -0.203125 -0.59375zm5.2265625 9.515625l4.953125 0l0 1.1875l-6.71875 0l0 -1.0625l4.671875 -6.203125l-4.59375 0l0 -1.1875l6.40625 0l0 1.015625l-4.71875 6.25zm9.9609375 1.34375q-1.71875 0 -2.796875 -1.125q-1.078125 -1.140625 -1.078125 -3.03125l0 -0.265625q0 -1.25 0.46875 -2.234375q0.484375 -1.0 1.34375 -1.546875q0.875 -0.5625 1.875 -0.5625q1.65625 0 2.5625 1.09375q0.921875 1.078125 0.921875 3.09375l0 0.609375l-5.734375 0q0.03125 1.25 0.734375 2.015625q0.703125 0.765625 1.78125 0.765625q0.765625 0 1.296875 -0.3125q0.53125 -0.3125 0.921875 -0.828125l0.890625 0.6875q-1.0625 1.640625 -3.1875 1.640625zm-0.1875 -7.578125q-0.875 0 -1.46875 0.640625q-0.59375 0.625 -0.734375 1.78125l4.234375 0l0 -0.109375q-0.0625 -1.109375 -0.59375 -1.703125q-0.53125 -0.609375 -1.4375 -0.609375zm9.0625 6.65625q0 -0.375 0.21875 -0.625q0.234375 -0.25 0.671875 -0.25q0.453125 0 0.671875 0.25q0.234375 0.25 0.234375 0.625q0 0.359375 -0.234375 0.609375q-0.21875 0.25 -0.671875 0.25q-0.4375 0 -0.671875 -0.25q-0.21875 -0.25 -0.21875 -0.609375zm0 -6.90625q0 -0.375 0.21875 -0.625q0.234375 -0.25 0.671875 -0.25q0.453125 0 0.671875 0.25q0.234375 0.25 0.234375 0.625q0 0.359375 -0.234375 0.609375q-0.21875 0.25 -0.671875 0.25q-0.4375 0 -0.671875 -0.25q-0.21875 -0.25 -0.21875 -0.609375zm8.3984375 1.96875l0.578125 -5.671875l5.828125 0l0 1.328125l-4.59375 0l-0.34375 3.109375q0.828125 -0.5 1.890625 -0.5q1.5625 0 2.46875 1.03125q0.921875 1.03125 0.921875 2.78125q0 1.75 -0.953125 2.765625q-0.953125 1.015625 -2.65625 1.015625q-1.5 0 -2.453125 -0.828125q-0.953125 -0.84375 -1.09375 -2.328125l1.375 0q0.125 0.984375 0.6875 1.484375q0.5625 0.484375 1.484375 0.484375q1.015625 0 1.578125 -0.6875q0.578125 -0.6875 0.578125 -1.890625q0 -1.140625 -0.625 -1.828125q-0.609375 -0.703125 -1.640625 -0.703125q-0.953125 0 -1.484375 0.421875l-0.390625 0.3125l-1.15625 -0.296875z" fill-rule="nonzero"/><path fill="#000000" fill-opacity="0.0" d="m86.026245 182.98492l228.40945 0" fill-rule="evenodd"/><path stroke="#efefef" stroke-width="1.0" stroke-linejoin="round" stroke-linecap="butt" d="m86.026245 182.98492l228.40945 0" fill-rule="evenodd"/><path fill="#000000" fill-opacity="0.0" d="m214.2336 182.98492l0 -19.527557" fill-rule="evenodd"/><path stroke="#efefef" stroke-width="1.0" stroke-linejoin="round" stroke-linecap="butt" d="m214.2336 182.98492l0 -19.527557" fill-rule="evenodd"/><path fill="#000000" fill-opacity="0.0" d="m86.026245 182.98627l0 22.929138" fill-rule="evenodd"/><path stroke="#efefef" stroke-width="1.0" stroke-linejoin="round" stroke-linecap="butt" d="m86.026245 182.98627l0 16.929123" fill-rule="evenodd"/><path fill="#efefef" stroke="#efefef" stroke-width="1.0" stroke-linecap="butt" d="m84.37451 199.91539l1.6517334 4.538101l1.6517334 -4.538101z" fill-rule="evenodd"/><path fill="#000000" fill-opacity="0.0" d="m314.4226 182.98492l0 21.228348" fill-rule="evenodd"/><path stroke="#efefef" stroke-width="1.0" stroke-linejoin="round" stroke-linecap="butt" d="m314.4226 182.98492l0 15.228348" fill-rule="evenodd"/><path fill="#efefef" stroke="#efefef" stroke-width="1.0" stroke-linecap="butt" d="m312.77087 198.21327l1.6517334 4.538101l1.6517334 -4.538101z" fill-rule="evenodd"/></g></svg>